{
.appVersion = "1060";
copyright = "Copyright 2017 Google Inc. All Rights Reserved.";
customParameters = (
{
name = glyphOrder;
value = (
.notdef,
NULL,
CR,
space,
uni00A0,
uni1B00,
uni1B01,
uni1B02,
uni1B03,
uni1B04,
uni1B05,
uni1B06,
uni1B07,
uni1B08,
uni1B09,
uni1B0A,
uni1B0B,
uni1B0C,
uni1B0D,
uni1B0E,
uni1B0F,
uni1B10,
uni1B11,
uni1B12,
uni1B13,
uni1B14,
uni1B15,
uni1B16,
uni1B17,
uni1B18,
uni1B19,
uni1B1A,
uni1B1B,
uni1B1C,
uni1B1D,
uni1B1E,
uni1B1F,
uni1B20,
uni1B21,
uni1B22,
uni1B23,
uni1B24,
uni1B25,
uni1B26,
uni1B27,
uni1B28,
uni1B29,
uni1B2A,
uni1B2B,
uni1B2C,
uni1B2D,
uni1B2E,
uni1B2F,
uni1B30,
uni1B31,
uni1B32,
uni1B33,
uni1B34,
uni1B35,
uni1B36,
uni1B37,
uni1B38,
uni1B39,
uni1B3A,
uni1B3B,
uni1B3C,
uni1B3D,
uni1B3E,
uni1B3F,
uni1B40,
uni1B41,
uni1B42,
uni1B43,
uni1B44,
uni1B45,
uni1B46,
uni1B47,
uni1B48,
uni1B49,
uni1B4A,
uni1B4B,
uni1B50,
uni1B51,
uni1B52,
uni1B53,
uni1B54,
uni1B55,
uni1B56,
uni1B57,
uni1B58,
uni1B59,
uni1B5A,
uni1B5B,
uni1B5C,
uni1B5D,
uni1B5E,
uni1B5F,
uni1B60,
uni1B61,
uni1B62,
uni1B63,
uni1B64,
uni1B65,
uni1B66,
uni1B67,
uni1B68,
uni1B69,
uni1B6A,
uni1B6B,
uni1B6C,
uni1B6D,
uni1B6E,
uni1B6F,
uni1B70,
uni1B71,
uni1B72,
uni1B73,
uni1B74,
uni1B75,
uni1B76,
uni1B77,
uni1B78,
uni1B79,
uni1B7A,
uni1B7B,
uni1B7C,
uni200B,
uni200C,
uni200D,
uni25CC,
uni1B13.sub,
uni1B14.sub,
uni1B15.sub,
uni1B16.sub,
uni1B17.sub,
uni1B18.sub,
uni1B19.sub,
uni1B1A.sub,
uni1B1B.sub,
uni1B1C.sub,
uni1B1D.sub,
uni1B1E.sub,
uni1B1F.sub,
uni1B20.sub,
uni1B21.sub,
uni1B22.sub,
uni1B23.sub,
uni1B24.sub,
uni1B25.sub,
uni1B26.sub,
uni1B27.sub,
uni1B28.sub,
uni1B29.sub,
uni1B2A.sub,
uni1B2B.sub,
uni1B2C.sub,
uni1B2D.sub,
uni1B2E.sub,
uni1B2F.sub,
uni1B30.sub,
uni1B31.sub,
uni1B32.sub,
uni1B33.sub,
uni1B45.sub,
uni1B46.sub,
uni1B47.sub,
uni1B48.sub,
uni1B49.sub,
uni1B4A.sub,
uni1B4B.sub,
uni1B0B.sub,
uni1B3C.blw,
uni1B27.sub_e,
uni1B27.sub_ai,
uni1B28.sub_e,
uni1B28.sub_ai,
uni1B31.sub_e,
uni1B31.sub_ai,
uni1B48.sub_e,
uni1B48.sub_ai,
uni1B0B.sub_e,
uni1B0B.sub_ai,

glyphs = (
{
glyphname = .notdef;
lastChange = "2017-10-19 13:12:48 +0000";
layers = (
{
layerId = "3BC433F7-38BC-4C75-8B4E-78FBECB68114";
paths = (
{
closed = 1;
nodes = (
"505 0 LINE",
"505 714 LINE",
"94 714 LINE",
"94 0 LINE"
);
},
{
closed = 1;
nodes = (
"454 663 LINE",
"454 51 LINE",
"145 51 LINE",
"145 663 LINE"
);
}
);
width = 600;
}
);
note = .notdef;
},
{
glyphname = uni1B00;
lastChange = "2017-10-19 13:19:44 +0000";
layers = (
{
layerId = "3BC433F7-38BC-4C75-8B4E-78FBECB68114";
paths = (
{
closed = 1;
nodes = (
"-301 806 OFFCURVE",
"-327 780 OFFCURVE",
"-327 749 CURVE SMOOTH",
"-327 719 OFFCURVE",
"-303 692 OFFCURVE",
"-270 692 CURVE SMOOTH",
"-238 692 OFFCURVE",
"-214 718 OFFCURVE",
"-214 749 CURVE SMOOTH",
"-214 781 OFFCURVE",
"-240 806 OFFCURVE",
"-270 806 CURVE SMOOTH"
);
},
{
closed = 1;
nodes = (
"-104 673 OFFCURVE",
"-83 727 OFFCURVE",
"-83 782 CURVE SMOOTH",
"-83 903 OFFCURVE",
"-152 972 OFFCURVE",
"-273 972 CURVE SMOOTH",
"-398 972 OFFCURVE",
"-467 905 OFFCURVE",
"-467 782 CURVE SMOOTH",
"-467 726 OFFCURVE",
"-446 672 OFFCURVE",
"-404 620 CURVE",
"-379 645 LINE",
"-422 706 OFFCURVE",
"-428 729 OFFCURVE",
"-428 778 CURVE SMOOTH",
"-428 854 OFFCURVE",
"-370 898 OFFCURVE",
"-270 898 CURVE SMOOTH",
"-177 898 OFFCURVE",
"-122 856 OFFCURVE",
"-122 778 CURVE SMOOTH",
"-122 729 OFFCURVE",
"-128 707 OFFCURVE",
"-171 645 CURVE",
"-146 620 LINE"
);
}
);
width = 0;
}
);
note = uni1B00;
unicode = 1B00;
},
{
glyphname = uni1B01;
lastChange = "2017-10-19 13:19:44 +0000";
layers = (
{
layerId = "3BC433F7-38BC-4C75-8B4E-78FBECB68114";
paths = (
{
closed = 1;
nodes = (
"-125 889 OFFCURVE",
"-117 864 OFFCURVE",
"-117 814 CURVE SMOOTH",
"-117 793 OFFCURVE",
"-121 774 OFFCURVE",
"-129 758 CURVE",
"-139 831 OFFCURVE",
"-183 883 OFFCURVE",
"-246 893 CURVE",
"-246 996 LINE",
"-285 996 LINE",
"-285 894 LINE",
"-352 884 OFFCURVE",
"-399 828 OFFCURVE",
"-405 750 CURVE",
"-417 768 OFFCURVE",
"-423 790 OFFCURVE",
"-423 814 CURVE SMOOTH",
"-423 865 OFFCURVE",
"-416 887 OFFCURVE",
"-375 947 CURVE",
"-399 972 LINE",
"-441 919 OFFCURVE",
"-462 865 OFFCURVE",
"-462 810 CURVE SMOOTH",
"-462 687 OFFCURVE",
"-393 620 OFFCURVE",
"-269 620 CURVE SMOOTH",
"-147 620 OFFCURVE",
"-78 688 OFFCURVE",
"-78 810 CURVE SMOOTH",
"-78 866 OFFCURVE",
"-99 919 OFFCURVE",
"-142 972 CURVE",
"-166 947 LINE"
);
},
{
closed = 1;
nodes = (
"-369 721 OFFCURVE",
"-370 728 OFFCURVE",
"-370 736 CURVE SMOOTH",
"-370 801 OFFCURVE",
"-327 854 OFFCURVE",
"-268 854 CURVE SMOOTH",
"-208 854 OFFCURVE",
"-165 801 OFFCURVE",
"-165 736 CURVE SMOOTH",
"-165 730 OFFCURVE",
"-165 723 OFFCURVE",
"-166 717 CURVE",
"-190 701 OFFCURVE",
"-224 693 OFFCURVE",
"-265 693 CURVE SMOOTH",
"-307 693 OFFCURVE",
"-341 701 OFFCURVE",
"-368 716 CURVE"
);
}
);
width = 0;
}
);
note = uni1B01;
unicode = 1B01;
},
{
glyphname = uni1B02;
lastChange = "2017-10-19 13:19:44 +0000";
layers = (
{
layerId = "3BC433F7-38BC-4C75-8B4E-78FBECB68114";
paths = (
{
closed = 1;
nodes = (
"-123 849 LINE SMOOTH",
"-146 907 OFFCURVE",
"-167 949 OFFCURVE",
"-187 974 CURVE SMOOTH",
"-207 999 OFFCURVE",
"-226 1011 OFFCURVE",
"-245 1011 CURVE SMOOTH",
"-288 1011 OFFCURVE",
"-313 944 OFFCURVE",
"-313 875 CURVE",
"-281 872 LINE",
"-280 905 OFFCURVE",
"-265 927 OFFCURVE",
"-238 927 CURVE SMOOTH",
"-223 927 OFFCURVE",
"-208 918 OFFCURVE",
"-194 900 CURVE SMOOTH",
"-180 881 OFFCURVE",
"-165 850 OFFCURVE",
"-147 806 CURVE SMOOTH",
"-73 620 LINE",
"-38 639 LINE"
);
}
);
width = 0;
}
);
note = uni1B02;
unicode = 1B02;
},
{
glyphname = uni1B03;
lastChange = "2017-10-19 13:19:44 +0000";
layers = (
{
layerId = "3BC433F7-38BC-4C75-8B4E-78FBECB68114";
paths = (
{
closed = 1;
nodes = (
"-183 673 OFFCURVE",
"-321 794 OFFCURVE",
"-389 989 CURVE",
"-484 1011 LINE",
"-420 797 OFFCURVE",
"-227 635 OFFCURVE",
"-15 621 CURVE",
"-3 650 LINE"
);
}
);
width = 0;
}
);
note = uni1B03;
unicode = 1B03;
},
{
glyphname = uni1B04;
lastChange = "2017-10-19 13:12:48 +0000";
layers = (
{
layerId = "3BC433F7-38BC-4C75-8B4E-78FBECB68114";
paths = (
{
closed = 1;
nodes = (
"114 180 LINE SMOOTH",
"237 180 OFFCURVE",
"314 132 OFFCURVE",
"314 46 CURVE SMOOTH",
"314 -21 OFFCURVE",
"292 -91 OFFCURVE",
"249 -164 CURVE SMOOTH",
"206 -236 OFFCURVE",
"184 -313 OFFCURVE",
"184 -392 CURVE SMOOTH",
"184 -433 OFFCURVE",
"204 -519 OFFCURVE",
"224 -546 CURVE",
"249 -527 LINE",
"237 -493 OFFCURVE",
"232 -460 OFFCURVE",
"232 -421 CURVE SMOOTH",
"232 -372 OFFCURVE",
"254 -307 OFFCURVE",
"298 -226 CURVE SMOOTH",
"342 -145 OFFCURVE",
"363 -63 OFFCURVE",
"363 14 CURVE SMOOTH",
"363 103 OFFCURVE",
"321 165 OFFCURVE",
"237 200 CURVE",
"302 232 OFFCURVE",
"341 289 OFFCURVE",
"341 349 CURVE SMOOTH",
"341 470 OFFCURVE",
"280 546 OFFCURVE",
"187 546 CURVE SMOOTH",
"92 546 OFFCURVE",
"39 463 OFFCURVE",
"39 335 CURVE",
"57 332 LINE",
"62 332 OFFCURVE",
"69 333 OFFCURVE",
"78 336 CURVE",
"80 417 OFFCURVE",
"121 463 OFFCURVE",
"188 463 CURVE SMOOTH",
"251 463 OFFCURVE",
"292 422 OFFCURVE",
"292 352 CURVE SMOOTH",
"292 264 OFFCURVE",
"236 219 OFFCURVE",
"125 219 CURVE SMOOTH",
"99 219 LINE",
"94 180 LINE"
);
}
);
width = 412;
}
);
note = uni1B04;
unicode = 1B04;
},
{
glyphname = uni1B05;
lastChange = "2017-10-19 13:18:59 +0000";
layers = (
{
layerId = "3BC433F7-38BC-4C75-8B4E-78FBECB68114";
paths = (
{
closed = 1;
nodes = (
"251 373 OFFCURVE",
"279 386 OFFCURVE",
"325 386 CURVE SMOOTH",
"359 386 OFFCURVE",
"387 367 OFFCURVE",
"387 337 CURVE SMOOTH",
"387 308 OFFCURVE",
"350 276 OFFCURVE",
"303 271 CURVE",
"265 271 LINE",
"260 232 LINE",
"305 232 LINE SMOOTH",
"374 232 OFFCURVE",
"410 205 OFFCURVE",
"410 162 CURVE SMOOTH",
"410 104 OFFCURVE",
"374 73 OFFCURVE",
"283 73 CURVE SMOOTH",
"164 73 OFFCURVE",
"98 151 OFFCURVE",
"98 295 CURVE SMOOTH",
"98 442 OFFCURVE",
"203 542 OFFCURVE",
"337 542 CURVE SMOOTH",
"438 542 OFFCURVE",
"514 512 OFFCURVE",
"597 390 CURVE",
"631 412 LINE",
"580 521 OFFCURVE",
"468 591 OFFCURVE",
"336 591 CURVE SMOOTH",
"200 591 OFFCURVE",
"49 490 OFFCURVE",
"49 292 CURVE SMOOTH",
"49 122 OFFCURVE",
"150 -10 OFFCURVE",
"283 -10 CURVE SMOOTH",
"389 -10 OFFCURVE",
"459 58 OFFCURVE",
"459 157 CURVE SMOOTH",
"459 206 OFFCURVE",
"430 246 OFFCURVE",
"377 262 CURVE",
"416 287 OFFCURVE",
"436 324 OFFCURVE",
"436 373 CURVE SMOOTH",
"436 428 OFFCURVE",
"391 469 OFFCURVE",
"334 469 CURVE SMOOTH",
"283 469 OFFCURVE",
"237 423 OFFCURVE",
"215 354 CURVE",
"232 342 LINE"
);
},
{
closed = 1;
nodes = (
"1010 240 LINE",
"1010 310 LINE SMOOTH",
"1010 375 OFFCURVE",
"1006 422 OFFCURVE",
"997 452 CURVE SMOOTH",
"979 511 OFFCURVE",
"938 537 OFFCURVE",
"869 537 CURVE SMOOTH",
"846 537 LINE",
"846 305 LINE",
"810 316 OFFCURVE",
"781 322 OFFCURVE",
"761 322 CURVE SMOOTH",
"725 322 OFFCURVE",
"699 301 OFFCURVE",
"699 269 CURVE SMOOTH",
"699 236 OFFCURVE",
"724 193 OFFCURVE",
"761 162 CURVE",
"786 182 LINE",
"772 196 OFFCURVE",
"765 210 OFFCURVE",
"765 224 CURVE SMOOTH",
"765 249 OFFCURVE",
"785 264 OFFCURVE",
"812 264 CURVE SMOOTH",
"820 264 OFFCURVE",
"832 263 OFFCURVE",
"846 259 CURVE",
"846 242 LINE SMOOTH",
"846 129 OFFCURVE",
"798 73 OFFCURVE",
"710 73 CURVE SMOOTH",
"616 73 OFFCURVE",
"562 115 OFFCURVE",
"552 190 CURVE",
"520 181 LINE",
"533 58 OFFCURVE",
"599 -10 OFFCURVE",
"710 -10 CURVE SMOOTH",
"824 -10 OFFCURVE",
"885 71 OFFCURVE",
"885 237 CURVE SMOOTH",
"885 249 LINE",
"904 242 OFFCURVE",
"933 231 OFFCURVE",
"971 214 CURVE",
"971 0 LINE",
"1010 0 LINE",
"1010 197 LINE",
"1076 169 LINE",
"1088 207 LINE"
);
},
{
closed = 1;
nodes = (
"898 454 LINE SMOOTH",
"946 454 OFFCURVE",
"971 405 OFFCURVE",
"971 306 CURVE SMOOTH",
"971 257 LINE",
"885 292 LINE",
"885 454 LINE"
);
}
);
width = 1103;
}
);
note = uni1B05;
unicode = 1B05;
},
{
glyphname = uni1B06;
lastChange = "2017-10-19 13:18:59 +0000";
layers = (
{
layerId = "3BC433F7-38BC-4C75-8B4E-78FBECB68114";
paths = (
{
closed = 1;
nodes = (
"885 227 LINE",
"885 264 LINE SMOOTH",
"885 384 OFFCURVE",
"965 462 OFFCURVE",
"1095 462 CURVE SMOOTH",
"1222 462 OFFCURVE",
"1304 388 OFFCURVE",
"1304 270 CURVE SMOOTH",
"1304 130 OFFCURVE",
"1232 39 OFFCURVE",
"1144 39 CURVE SMOOTH",
"1122 39 OFFCURVE",
"1090 42 OFFCURVE",
"1075 50 CURVE",
"1050 11 LINE",
"1073 -3 OFFCURVE",
"1103 -10 OFFCURVE",
"1139 -10 CURVE SMOOTH",
"1256 -10 OFFCURVE",
"1353 94 OFFCURVE",
"1353 274 CURVE SMOOTH",
"1353 431 OFFCURVE",
"1246 545 OFFCURVE",
"1093 545 CURVE SMOOTH",
"952 545 OFFCURVE",
"846 429 OFFCURVE",
"846 265 CURVE",
"803 305 OFFCURVE",
"769 325 OFFCURVE",
"743 325 CURVE SMOOTH",
"710 325 OFFCURVE",
"688 297 OFFCURVE",
"688 255 CURVE SMOOTH",
"688 227 OFFCURVE",
"696 199 OFFCURVE",
"710 170 CURVE",
"741 180 LINE",
"737 190 OFFCURVE",
"735 199 OFFCURVE",
"735 208 CURVE SMOOTH",
"735 231 OFFCURVE",
"752 250 OFFCURVE",
"775 250 CURVE SMOOTH",
"793 250 OFFCURVE",
"816 236 OFFCURVE",
"845 210 CURVE",
"836 119 OFFCURVE",
"792 73 OFFCURVE",
"710 73 CURVE SMOOTH",
"616 73 OFFCURVE",
"562 115 OFFCURVE",
"552 190 CURVE",
"520 181 LINE",
"533 58 OFFCURVE",
"599 -10 OFFCURVE",
"710 -10 CURVE SMOOTH",
"810 -10 OFFCURVE",
"868 51 OFFCURVE",
"882 174 CURVE",
"982 67 LINE",
"1008 98 LINE"
);
},
{
closed = 1;
nodes = (
"251 373 OFFCURVE",
"279 386 OFFCURVE",
"325 386 CURVE SMOOTH",
"359 386 OFFCURVE",
"387 367 OFFCURVE",
"387 337 CURVE SMOOTH",
"387 307 OFFCURVE",
"349 271 OFFCURVE",
"303 271 CURVE SMOOTH",
"265 271 LINE",
"260 232 LINE",
"305 232 LINE SMOOTH",
"374 232 OFFCURVE",
"410 205 OFFCURVE",
"410 162 CURVE SMOOTH",
"410 104 OFFCURVE",
"374 73 OFFCURVE",
"283 73 CURVE SMOOTH",
"164 73 OFFCURVE",
"98 151 OFFCURVE",
"98 295 CURVE SMOOTH",
"98 442 OFFCURVE",
"203 542 OFFCURVE",
"337 542 CURVE SMOOTH",
"438 542 OFFCURVE",
"514 512 OFFCURVE",
"597 390 CURVE",
"631 412 LINE",
"580 521 OFFCURVE",
"468 591 OFFCURVE",
"336 591 CURVE SMOOTH",
"199 591 OFFCURVE",
"49 489 OFFCURVE",
"49 292 CURVE SMOOTH",
"49 122 OFFCURVE",
"150 -10 OFFCURVE",
"283 -10 CURVE SMOOTH",
"389 -10 OFFCURVE",
"459 58 OFFCURVE",
"459 157 CURVE SMOOTH",
"459 206 OFFCURVE",
"430 246 OFFCURVE",
"377 262 CURVE",
"416 287 OFFCURVE",
"436 324 OFFCURVE",
"436 373 CURVE SMOOTH",
"436 428 OFFCURVE",
"391 469 OFFCURVE",
"334 469 CURVE SMOOTH",
"283 469 OFFCURVE",
"237 423 OFFCURVE",
"215 354 CURVE",
"232 342 LINE"
);
}
);
width = 1402;
}
);
note = uni1B06;
unicode = 1B06;
},
{
glyphname = uni1B07;
lastChange = "2017-10-19 13:18:59 +0000";
layers = (
{
layerId = "3BC433F7-38BC-4C75-8B4E-78FBECB68114";
paths = (
{
closed = 1;
nodes = (
"361 0 LINE",
"361 301 LINE SMOOTH",
"361 430 OFFCURVE",
"405 463 OFFCURVE",
"474 463 CURVE SMOOTH",
"532 463 OFFCURVE",
"579 411 OFFCURVE",
"579 358 CURVE",
"613 358 LINE",
"619 428 OFFCURVE",
"668 463 OFFCURVE",
"718 463 CURVE SMOOTH",
"787 463 OFFCURVE",
"830 430 OFFCURVE",
"830 301 CURVE SMOOTH",
"830 0 LINE",
"869 0 LINE",
"869 301 LINE SMOOTH",
"869 474 OFFCURVE",
"831 546 OFFCURVE",
"718 546 CURVE SMOOTH",
"655 546 OFFCURVE",
"617 510 OFFCURVE",
"596 445 CURVE",
"575 510 OFFCURVE",
"536 546 OFFCURVE",
"474 546 CURVE SMOOTH",
"361 546 OFFCURVE",
"322 474 OFFCURVE",
"322 301 CURVE SMOOTH",
"322 83 LINE",
"310 83 LINE SMOOTH",
"268 83 OFFCURVE",
"238 121 OFFCURVE",
"238 204 CURVE SMOOTH",
"238 319 LINE SMOOTH",
"238 422 OFFCURVE",
"235 546 OFFCURVE",
"140 546 CURVE SMOOTH",
"42 546 OFFCURVE",
"39 405 OFFCURVE",
"39 335 CURVE",
"45 333 OFFCURVE",
"48 332 OFFCURVE",
"57 332 CURVE SMOOTH",
"67 332 OFFCURVE",
"71 334 OFFCURVE",
"78 336 CURVE",
"80 410 OFFCURVE",
"80 463 OFFCURVE",
"141 463 CURVE SMOOTH",
"187 463 OFFCURVE",
"199 424 OFFCURVE",
"199 322 CURVE SMOOTH",
"199 227 LINE SMOOTH",
"199 107 OFFCURVE",
"203 0 OFFCURVE",
"338 0 CURVE SMOOTH"
);
},
{
closed = 1;
nodes = (
"682 -352 OFFCURVE",
"728 -296 OFFCURVE",
"728 -241 CURVE SMOOTH",
"728 -124 OFFCURVE",
"518 -150 OFFCURVE",
"518 -98 CURVE SMOOTH",
"518 -72 OFFCURVE",
"561 -63 OFFCURVE",
"587 -63 CURVE SMOOTH",
"620 -63 OFFCURVE",
"644 -69 OFFCURVE",
"664 -82 CURVE",
"683 -47 LINE",
"660 -35 OFFCURVE",
"636 -24 OFFCURVE",
"590 -24 CURVE SMOOTH",
"531 -24 OFFCURVE",
"477 -54 OFFCURVE",
"477 -104 CURVE SMOOTH",
"477 -193 OFFCURVE",
"686 -161 OFFCURVE",
"686 -234 CURVE SMOOTH",
"686 -271 OFFCURVE",
"614 -279 OFFCURVE",
"589 -279 CURVE SMOOTH",
"541 -279 OFFCURVE",
"462 -257 OFFCURVE",
"442 -227 CURVE",
"424 -240 LINE",
"444 -300 OFFCURVE",
"529 -352 OFFCURVE",
"599 -352 CURVE SMOOTH"
);
}
);
width = 933;
}
);
note = uni1B07;
unicode = 1B07;
},
{
glyphname = uni1B09;
lastChange = "2017-10-19 13:18:59 +0000";
layers = (
{
layerId = "3BC433F7-38BC-4C75-8B4E-78FBECB68114";
paths = (
{
closed = 1;
nodes = (
"686 -402 LINE SMOOTH",
"686 -235 OFFCURVE",
"603 -155 OFFCURVE",
"456 -155 CURVE SMOOTH",
"306 -155 OFFCURVE",
"227 -242 OFFCURVE",
"227 -401 CURVE SMOOTH",
"227 -463 LINE",
"214 -463 LINE SMOOTH",
"165 -463 OFFCURVE",
"112 -407 OFFCURVE",
"112 -333 CURVE SMOOTH",
"112 -258 OFFCURVE",
"161 -184 OFFCURVE",
"285 -86 CURVE SMOOTH",
"347 -37 OFFCURVE",
"400 10 OFFCURVE",
"445 56 CURVE SMOOTH",
"534 146 OFFCURVE",
"577 243 OFFCURVE",
"577 349 CURVE SMOOTH",
"577 470 OFFCURVE",
"517 546 OFFCURVE",
"423 546 CURVE SMOOTH",
"328 546 OFFCURVE",
"275 463 OFFCURVE",
"275 335 CURVE",
"281 333 OFFCURVE",
"288 332 OFFCURVE",
"293 332 CURVE SMOOTH",
"298 332 OFFCURVE",
"305 333 OFFCURVE",
"314 336 CURVE",
"316 417 OFFCURVE",
"357 463 OFFCURVE",
"425 463 CURVE SMOOTH",
"487 463 OFFCURVE",
"528 422 OFFCURVE",
"528 352 CURVE SMOOTH",
"528 308 OFFCURVE",
"513 263 OFFCURVE",
"483 218 CURVE SMOOTH",
"453 172 OFFCURVE",
"393 112 OFFCURVE",
"303 36 CURVE SMOOTH",
"123 -117 OFFCURVE",
"63 -215 OFFCURVE",
"63 -330 CURVE SMOOTH",
"63 -466 OFFCURVE",
"131 -546 OFFCURVE",
"243 -546 CURVE SMOOTH",
"266 -546 LINE",
"266 -401 LINE SMOOTH",
"266 -291 OFFCURVE",
"322 -238 OFFCURVE",
"456 -238 CURVE SMOOTH",
"589 -238 OFFCURVE",
"646 -288 OFFCURVE",
"646 -403 CURVE SMOOTH",
"646 -546 LINE",
"686 -546 LINE"
);
}
);
width = 749;
}
);
note = uni1B09;
unicode = 1B09;
},
{
glyphname = uni1B0B;
lastChange = "2017-10-19 13:18:59 +0000";
layers = (
{
layerId = "3BC433F7-38BC-4C75-8B4E-78FBECB68114";
paths = (
{
closed = 1;
nodes = (
"537 -10 OFFCURVE",
"619 62 OFFCURVE",
"619 235 CURVE SMOOTH",
"619 454 LINE",
"632 454 LINE SMOOTH",
"678 454 OFFCURVE",
"705 408 OFFCURVE",
"705 306 CURVE SMOOTH",
"705 0 LINE",
"744 0 LINE",
"744 310 LINE SMOOTH",
"744 430 OFFCURVE",
"738 537 OFFCURVE",
"603 537 CURVE SMOOTH",
"580 537 LINE",
"580 235 LINE SMOOTH",
"580 106 OFFCURVE",
"510 73 OFFCURVE",
"409 73 CURVE SMOOTH",
"281 73 OFFCURVE",
"238 125 OFFCURVE",
"238 237 CURVE SMOOTH",
"238 319 LINE SMOOTH",
"238 422 OFFCURVE",
"235 546 OFFCURVE",
"140 546 CURVE SMOOTH",
"42 546 OFFCURVE",
"39 405 OFFCURVE",
"39 335 CURVE",
"45 333 OFFCURVE",
"48 332 OFFCURVE",
"57 332 CURVE SMOOTH",
"67 332 OFFCURVE",
"71 334 OFFCURVE",
"78 336 CURVE",
"80 410 OFFCURVE",
"80 463 OFFCURVE",
"141 463 CURVE SMOOTH",
"187 463 OFFCURVE",
"199 424 OFFCURVE",
"199 322 CURVE SMOOTH",
"199 227 LINE SMOOTH",
"199 66 OFFCURVE",
"275 -10 OFFCURVE",
"410 -10 CURVE SMOOTH"
);
},
{
closed = 1;
nodes = (
"501 -376 OFFCURVE",
"547 -321 OFFCURVE",
"547 -266 CURVE SMOOTH",
"547 -148 OFFCURVE",
"337 -175 OFFCURVE",
"337 -122 CURVE SMOOTH",
"337 -96 OFFCURVE",
"380 -88 OFFCURVE",
"407 -88 CURVE SMOOTH",
"439 -88 OFFCURVE",
"463 -93 OFFCURVE",
"483 -106 CURVE",
"502 -71 LINE",
"479 -59 OFFCURVE",
"455 -49 OFFCURVE",
"409 -49 CURVE SMOOTH",
"351 -49 OFFCURVE",
"296 -78 OFFCURVE",
"296 -128 CURVE SMOOTH",
"296 -218 OFFCURVE",
"505 -186 OFFCURVE",
"505 -259 CURVE SMOOTH",
"505 -295 OFFCURVE",
"433 -303 OFFCURVE",
"408 -303 CURVE SMOOTH",
"360 -303 OFFCURVE",
"281 -282 OFFCURVE",
"262 -251 CURVE",
"243 -264 LINE",
"264 -325 OFFCURVE",
"349 -376 OFFCURVE",
"418 -376 CURVE SMOOTH"
);
}
);
width = 807;
}
);
note = uni1B0B;
unicode = 1B0B;
},
{
glyphname = uni1B0D;
lastChange = "2017-10-19 13:18:59 +0000";
layers = (
{
layerId = "3BC433F7-38BC-4C75-8B4E-78FBECB68114";
paths = (
{
closed = 1;
nodes = (
"1004 -176 LINE",
"976 -192 OFFCURVE",
"937 -199 OFFCURVE",
"878 -199 CURVE SMOOTH",
"867 -199 LINE",
"886 -97 OFFCURVE",
"898 14 OFFCURVE",
"898 131 CURVE SMOOTH",
"898 354 OFFCURVE",
"853 546 OFFCURVE",
"718 546 CURVE SMOOTH",
"655 546 OFFCURVE",
"617 510 OFFCURVE",
"596 445 CURVE",
"575 510 OFFCURVE",
"536 546 OFFCURVE",
"474 546 CURVE SMOOTH",
"361 546 OFFCURVE",
"322 474 OFFCURVE",
"322 301 CURVE SMOOTH",
"322 83 LINE",
"310 83 LINE SMOOTH",
"268 83 OFFCURVE",
"238 121 OFFCURVE",
"238 204 CURVE SMOOTH",
"238 319 LINE SMOOTH",
"238 422 OFFCURVE",
"235 546 OFFCURVE",
"140 546 CURVE SMOOTH",
"42 546 OFFCURVE",
"39 405 OFFCURVE",
"39 335 CURVE",
"45 333 OFFCURVE",
"48 332 OFFCURVE",
"57 332 CURVE SMOOTH",
"67 332 OFFCURVE",
"71 334 OFFCURVE",
"78 336 CURVE",
"80 410 OFFCURVE",
"80 463 OFFCURVE",
"141 463 CURVE SMOOTH",
"187 463 OFFCURVE",
"199 424 OFFCURVE",
"199 322 CURVE SMOOTH",
"199 227 LINE SMOOTH",
"199 107 OFFCURVE",
"203 0 OFFCURVE",
"338 0 CURVE SMOOTH",
"361 0 LINE",
"361 301 LINE SMOOTH",
"361 430 OFFCURVE",
"405 463 OFFCURVE",
"474 463 CURVE SMOOTH",
"532 463 OFFCURVE",
"579 411 OFFCURVE",
"579 358 CURVE",
"613 358 LINE",
"619 428 OFFCURVE",
"668 463 OFFCURVE",
"718 463 CURVE SMOOTH",
"817 463 OFFCURVE",
"850 321 OFFCURVE",
"850 126 CURVE SMOOTH",
"850 17 OFFCURVE",
"838 -93 OFFCURVE",
"819 -194 CURVE",
"753 -184 OFFCURVE",
"690 -159 OFFCURVE",
"626 -134 CURVE SMOOTH",
"543 -101 OFFCURVE",
"458 -68 OFFCURVE",
"363 -68 CURVE SMOOTH",
"249 -68 OFFCURVE",
"186 -139 OFFCURVE",
"186 -209 CURVE SMOOTH",
"186 -313 OFFCURVE",
"307 -359 OFFCURVE",
"436 -392 CURVE SMOOTH",
"579 -429 OFFCURVE",
"731 -451 OFFCURVE",
"737 -520 CURVE",
"732 -537 LINE",
"771 -547 LINE",
"801 -466 OFFCURVE",
"834 -364 OFFCURVE",
"858 -247 CURVE",
"866 -248 OFFCURVE",
"875 -248 OFFCURVE",
"883 -248 CURVE SMOOTH",
"926 -248 OFFCURVE",
"981 -237 OFFCURVE",
"1021 -211 CURVE"
);
},
{
closed = 1;
nodes = (
"715 -407 OFFCURVE",
"573 -382 OFFCURVE",
"448 -349 CURVE SMOOTH",
"334 -319 OFFCURVE",
"234 -282 OFFCURVE",
"234 -211 CURVE SMOOTH",
"234 -168 OFFCURVE",
"263 -142 OFFCURVE",
"333 -142 CURVE SMOOTH",
"418 -142 OFFCURVE",
"512 -172 OFFCURVE",
"612 -201 CURVE SMOOTH",
"675 -219 OFFCURVE",
"742 -236 OFFCURVE",
"810 -244 CURVE",
"794 -321 OFFCURVE",
"776 -395 OFFCURVE",
"757 -457 CURVE"
);
}
);
width = 947;
}
);
note = uni1B0D;
unicode = 1B0D;
},
{
glyphname = uni1B0E;
lastChange = "2017-10-19 13:18:59 +0000";
layers = (
{
layerId = "3BC433F7-38BC-4C75-8B4E-78FBECB68114";
paths = (
{
closed = 1;
nodes = (
"1162 -271 OFFCURVE",
"1181 -240 OFFCURVE",
"1181 -198 CURVE SMOOTH",
"1181 -151 OFFCURVE",
"1150 -112 OFFCURVE",
"1103 -112 CURVE SMOOTH",
"995 -112 OFFCURVE",
"1005 -199 OFFCURVE",
"878 -199 CURVE SMOOTH",
"867 -199 LINE",
"886 -97 OFFCURVE",
"898 14 OFFCURVE",
"898 131 CURVE SMOOTH",
"898 354 OFFCURVE",
"853 546 OFFCURVE",
"718 546 CURVE SMOOTH",
"655 546 OFFCURVE",
"617 510 OFFCURVE",
"596 445 CURVE",
"575 510 OFFCURVE",
"536 546 OFFCURVE",
"474 546 CURVE SMOOTH",
"361 546 OFFCURVE",
"322 474 OFFCURVE",
"322 301 CURVE SMOOTH",
"322 83 LINE",
"310 83 LINE SMOOTH",
"268 83 OFFCURVE",
"238 121 OFFCURVE",
"238 204 CURVE SMOOTH",
"238 319 LINE SMOOTH",
"238 422 OFFCURVE",
"235 546 OFFCURVE",
"140 546 CURVE SMOOTH",
"42 546 OFFCURVE",
"39 405 OFFCURVE",
"39 335 CURVE",
"45 333 OFFCURVE",
"48 332 OFFCURVE",
"57 332 CURVE SMOOTH",
"67 332 OFFCURVE",
"71 334 OFFCURVE",
"78 336 CURVE",
"80 410 OFFCURVE",
"80 463 OFFCURVE",
"141 463 CURVE SMOOTH",
"187 463 OFFCURVE",
"199 424 OFFCURVE",
"199 322 CURVE SMOOTH",
"199 227 LINE SMOOTH",
"199 107 OFFCURVE",
"203 0 OFFCURVE",
"338 0 CURVE SMOOTH",
"361 0 LINE",
"361 301 LINE SMOOTH",
"361 430 OFFCURVE",
"405 463 OFFCURVE",
"474 463 CURVE SMOOTH",
"532 463 OFFCURVE",
"579 411 OFFCURVE",
"579 358 CURVE",
"613 358 LINE",
"619 428 OFFCURVE",
"668 463 OFFCURVE",
"718 463 CURVE SMOOTH",
"817 463 OFFCURVE",
"850 321 OFFCURVE",
"850 126 CURVE SMOOTH",
"850 17 OFFCURVE",
"838 -93 OFFCURVE",
"819 -194 CURVE",
"744 -183 OFFCURVE",
"672 -153 OFFCURVE",
"600 -124 CURVE SMOOTH",
"525 -94 OFFCURVE",
"448 -68 OFFCURVE",
"363 -68 CURVE SMOOTH",
"249 -68 OFFCURVE",
"186 -139 OFFCURVE",
"186 -209 CURVE SMOOTH",
"186 -328 OFFCURVE",
"348 -373 OFFCURVE",
"496 -407 CURVE SMOOTH",
"548 -419 OFFCURVE",
"597 -431 OFFCURVE",
"638 -444 CURVE SMOOTH",
"694 -462 OFFCURVE",
"735 -486 OFFCURVE",
"737 -521 CURVE",
"732 -537 LINE",
"771 -547 LINE",
"801 -467 OFFCURVE",
"833 -365 OFFCURVE",
"858 -248 CURVE",
"976 -247 OFFCURVE",
"1004 -172 OFFCURVE",
"1090 -172 CURVE SMOOTH",
"1127 -172 OFFCURVE",
"1137 -190 OFFCURVE",
"1137 -221 CURVE SMOOTH",
"1137 -248 OFFCURVE",
"1108 -286 OFFCURVE",
"1062 -286 CURVE SMOOTH",
"1030 -286 LINE",
"1026 -325 LINE",
"1064 -325 LINE SMOOTH",
"1122 -325 OFFCURVE",
"1154 -351 OFFCURVE",
"1154 -387 CURVE SMOOTH",
"1154 -437 OFFCURVE",
"1123 -463 OFFCURVE",
"1045 -463 CURVE SMOOTH",
"985 -463 OFFCURVE",
"943 -449 OFFCURVE",
"918 -411 CURVE",
"888 -440 LINE",
"924 -499 OFFCURVE",
"980 -536 OFFCURVE",
"1045 -536 CURVE SMOOTH",
"1138 -536 OFFCURVE",
"1198 -473 OFFCURVE",
"1198 -391 CURVE SMOOTH",
"1198 -359 OFFCURVE",
"1182 -310 OFFCURVE",
"1128 -293 CURVE"
);
},
{
closed = 1;
nodes = (
"738 -435 OFFCURVE",
"698 -416 OFFCURVE",
"648 -401 CURVE SMOOTH",
"606 -388 OFFCURVE",
"555 -376 OFFCURVE",
"505 -364 CURVE SMOOTH",
"392 -337 OFFCURVE",
"234 -297 OFFCURVE",
"234 -211 CURVE SMOOTH",
"234 -168 OFFCURVE",
"263 -142 OFFCURVE",
"333 -142 CURVE SMOOTH",
"404 -142 OFFCURVE",
"488 -164 OFFCURVE",
"571 -189 CURVE SMOOTH",
"650 -213 OFFCURVE",
"732 -238 OFFCURVE",
"810 -246 CURVE",
"794 -323 OFFCURVE",
"775 -395 OFFCURVE",
"757 -457 CURVE"
);
}
);
width = 1149;
}
);
note = uni1B0E;
unicode = 1B0E;
},
{
glyphname = uni1B0F;
lastChange = "2017-10-19 13:18:59 +0000";
layers = (
{
layerId = "3BC433F7-38BC-4C75-8B4E-78FBECB68114";
paths = (
{
closed = 1;
nodes = (
"659 8 OFFCURVE",
"660 17 OFFCURVE",
"660 25 CURVE SMOOTH",
"660 181 OFFCURVE",
"554 293 OFFCURVE",
"400 293 CURVE SMOOTH",
"283 293 OFFCURVE",
"188 213 OFFCURVE",
"161 90 CURVE",
"125 129 OFFCURVE",
"107 188 OFFCURVE",
"107 266 CURVE SMOOTH",
"107 413 OFFCURVE",
"212 513 OFFCURVE",
"347 513 CURVE SMOOTH",
"362 513 OFFCURVE",
"379 512 OFFCURVE",
"397 509 CURVE",
"408 556 LINE",
"387 560 OFFCURVE",
"366 562 OFFCURVE",
"346 562 CURVE SMOOTH",
"231 562 OFFCURVE",
"59 478 OFFCURVE",
"59 262 CURVE SMOOTH",
"59 143 OFFCURVE",
"108 39 OFFCURVE",
"192 -12 CURVE",
"192 12 LINE SMOOTH",
"192 132 OFFCURVE",
"272 210 OFFCURVE",
"401 210 CURVE SMOOTH",
"530 210 OFFCURVE",
"611 139 OFFCURVE",
"611 21 CURVE SMOOTH",
"611 11 OFFCURVE",
"610 0 OFFCURVE",
"610 -10 CURVE",
"659 0 LINE"
);
}
);
width = 718;
}
);
note = uni1B0F;
unicode = 1B0F;
},
{
glyphname = uni1B10;
lastChange = "2017-10-19 13:18:59 +0000";
layers = (
{
layerId = "3BC433F7-38BC-4C75-8B4E-78FBECB68114";
paths = (
{
closed = 1;
nodes = (
"1077 510 OFFCURVE",
"1136 582 OFFCURVE",
"1144 693 CURVE",
"1110 714 LINE",
"1104 638 OFFCURVE",
"1056 592 OFFCURVE",
"999 592 CURVE",
"995 691 OFFCURVE",
"950 767 OFFCURVE",
"887 767 CURVE SMOOTH",
"836 767 OFFCURVE",
"804 732 OFFCURVE",
"804 677 CURVE SMOOTH",
"804 588 OFFCURVE",
"866 523 OFFCURVE",
"959 509 CURVE",
"959 -301 LINE SMOOTH",
"959 -412 OFFCURVE",
"932 -463 OFFCURVE",
"832 -463 CURVE SMOOTH",
"800 -463 OFFCURVE",
"774 -445 OFFCURVE",
"755 -410 CURVE SMOOTH",
"736 -375 OFFCURVE",
"714 -358 OFFCURVE",
"690 -358 CURVE SMOOTH",
"672 -358 OFFCURVE",
"656 -369 OFFCURVE",
"644 -392 CURVE SMOOTH",
"620 -436 OFFCURVE",
"594 -463 OFFCURVE",
"549 -463 CURVE SMOOTH",
"461 -463 OFFCURVE",
"411 -416 OFFCURVE",
"411 -333 CURVE SMOOTH",
"411 -265 OFFCURVE",
"444 -203 OFFCURVE",
"582 -103 CURVE SMOOTH",
"651 -53 OFFCURVE",
"707 -3 OFFCURVE",
"750 41 CURVE SMOOTH",
"838 132 OFFCURVE",
"875 232 OFFCURVE",
"875 349 CURVE SMOOTH",
"875 474 OFFCURVE",
"817 546 OFFCURVE",
"718 546 CURVE SMOOTH",
"658 546 OFFCURVE",
"618 512 OFFCURVE",
"596 445 CURVE",
"574 512 OFFCURVE",
"534 546 OFFCURVE",
"474 546 CURVE SMOOTH",
"365 546 OFFCURVE",
"322 479 OFFCURVE",
"322 301 CURVE SMOOTH",
"322 83 LINE",
"310 83 LINE SMOOTH",
"265 83 OFFCURVE",
"238 125 OFFCURVE",
"238 204 CURVE SMOOTH",
"238 319 LINE SMOOTH",
"238 442 OFFCURVE",
"228 546 OFFCURVE",
"140 546 CURVE SMOOTH",
"56 546 OFFCURVE",
"39 445 OFFCURVE",
"39 335 CURVE",
"45 333 OFFCURVE",
"53 332 OFFCURVE",
"57 332 CURVE SMOOTH",
"62 332 OFFCURVE",
"69 333 OFFCURVE",
"78 336 CURVE",
"80 412 OFFCURVE",
"79 463 OFFCURVE",
"141 463 CURVE SMOOTH",
"195 463 OFFCURVE",
"199 403 OFFCURVE",
"199 320 CURVE SMOOTH",
"199 227 LINE SMOOTH",
"199 161 OFFCURVE",
"203 114 OFFCURVE",
"212 85 CURVE SMOOTH",
"230 28 OFFCURVE",
"271 0 OFFCURVE",
"338 0 CURVE SMOOTH",
"361 0 LINE",
"361 301 LINE SMOOTH",
"361 413 OFFCURVE",
"392 463 OFFCURVE",
"474 463 CURVE SMOOTH",
"530 463 OFFCURVE",
"579 413 OFFCURVE",
"579 358 CURVE",
"613 358 LINE",
"619 422 OFFCURVE",
"663 463 OFFCURVE",
"718 463 CURVE SMOOTH",
"786 463 OFFCURVE",
"827 421 OFFCURVE",
"827 352 CURVE SMOOTH",
"827 243 OFFCURVE",
"777 157 OFFCURVE",
"594 11 CURVE SMOOTH",
"412 -134 OFFCURVE",
"362 -222 OFFCURVE",
"362 -331 CURVE SMOOTH",
"362 -461 OFFCURVE",
"430 -546 OFFCURVE",
"540 -546 CURVE SMOOTH",
"572 -546 OFFCURVE",
"599 -529 OFFCURVE",
"619 -496 CURVE SMOOTH",
"639 -463 OFFCURVE",
"662 -445 OFFCURVE",
"690 -445 CURVE SMOOTH",
"719 -445 OFFCURVE",
"743 -462 OFFCURVE",
"763 -496 CURVE SMOOTH",
"783 -529 OFFCURVE",
"809 -546 OFFCURVE",
"842 -546 CURVE SMOOTH",
"953 -546 OFFCURVE",
"999 -469 OFFCURVE",
"999 -301 CURVE SMOOTH",
"999 508 LINE"
);
},
{
closed = 1;
nodes = (
"848 704 OFFCURVE",
"862 718 OFFCURVE",
"889 718 CURVE SMOOTH",
"925 718 OFFCURVE",
"957 665 OFFCURVE",
"959 592 CURVE",
"889 598 OFFCURVE",
"848 628 OFFCURVE",
"848 677 CURVE SMOOTH"
);
}
);
width = 1144;
}
);
note = uni1B10;
unicode = 1B10;
},
{
glyphname = uni1B11;
lastChange = "2017-10-19 13:18:59 +0000";
layers = (
{
layerId = "3BC433F7-38BC-4C75-8B4E-78FBECB68114";
paths = (
{
closed = 1;
nodes = (
"563 -546 LINE",
"563 -401 LINE SMOOTH",
"563 -272 OFFCURVE",
"644 -238 OFFCURVE",
"754 -238 CURVE SMOOTH",
"892 -238 OFFCURVE",
"944 -292 OFFCURVE",
"944 -403 CURVE SMOOTH",
"944 -546 LINE",
"983 -546 LINE",
"983 -402 LINE SMOOTH",
"983 -235 OFFCURVE",
"900 -155 OFFCURVE",
"753 -155 CURVE SMOOTH",
"616 -155 OFFCURVE",
"524 -228 OFFCURVE",
"524 -401 CURVE SMOOTH",
"524 -463 LINE",
"512 -463 LINE SMOOTH",
"448 -463 OFFCURVE",
"411 -386 OFFCURVE",
"411 -333 CURVE SMOOTH",
"411 -102 OFFCURVE",
"875 -50 OFFCURVE",
"875 349 CURVE SMOOTH",
"875 456 OFFCURVE",
"832 546 OFFCURVE",
"718 546 CURVE SMOOTH",
"655 546 OFFCURVE",
"617 510 OFFCURVE",
"596 445 CURVE",
"575 510 OFFCURVE",
"536 546 OFFCURVE",
"474 546 CURVE SMOOTH",
"361 546 OFFCURVE",
"322 474 OFFCURVE",
"322 301 CURVE SMOOTH",
"322 83 LINE",
"310 83 LINE SMOOTH",
"268 83 OFFCURVE",
"238 121 OFFCURVE",
"238 204 CURVE SMOOTH",
"238 319 LINE SMOOTH",
"238 422 OFFCURVE",
"235 546 OFFCURVE",
"140 546 CURVE SMOOTH",
"42 546 OFFCURVE",
"39 405 OFFCURVE",
"39 335 CURVE",
"45 333 OFFCURVE",
"48 332 OFFCURVE",
"57 332 CURVE SMOOTH",
"67 332 OFFCURVE",
"71 334 OFFCURVE",
"78 336 CURVE",
"80 410 OFFCURVE",
"80 463 OFFCURVE",
"141 463 CURVE SMOOTH",
"187 463 OFFCURVE",
"199 424 OFFCURVE",
"199 322 CURVE SMOOTH",
"199 227 LINE SMOOTH",
"199 107 OFFCURVE",
"203 0 OFFCURVE",
"338 0 CURVE SMOOTH",
"361 0 LINE",
"361 301 LINE SMOOTH",
"361 430 OFFCURVE",
"405 463 OFFCURVE",
"474 463 CURVE SMOOTH",
"532 463 OFFCURVE",
"579 411 OFFCURVE",
"579 358 CURVE",
"613 358 LINE",
"619 428 OFFCURVE",
"668 463 OFFCURVE",
"718 463 CURVE SMOOTH",
"788 463 OFFCURVE",
"827 418 OFFCURVE",
"827 352 CURVE SMOOTH",
"827 51 OFFCURVE",
"362 -28 OFFCURVE",
"362 -330 CURVE SMOOTH",
"362 -435 OFFCURVE",
"405 -546 OFFCURVE",
"541 -546 CURVE SMOOTH"
);
}
);
width = 983;
}
);
note = uni1B11;
unicode = 1B11;
},
{
glyphname = uni1B13;
lastChange = "2017-10-19 13:19:07 +0000";
layers = (
{
layerId = "3BC433F7-38BC-4C75-8B4E-78FBECB68114";
paths = (
{
closed = 1;
nodes = (
"241 -10 OFFCURVE",
"262 79 OFFCURVE",
"262 182 CURVE SMOOTH",
"262 212 LINE",
"281 214 OFFCURVE",
"297 215 OFFCURVE",
"317 215 CURVE",
"317 203 LINE SMOOTH",
"317 68 OFFCURVE",
"431 -10 OFFCURVE",
"522 -10 CURVE SMOOTH",
"587 -10 OFFCURVE",
"655 19 OFFCURVE",
"655 99 CURVE SMOOTH",
"655 239 OFFCURVE",
"502 289 OFFCURVE",
"356 297 CURVE",
"356 405 OFFCURVE",
"421 463 OFFCURVE",
"557 463 CURVE SMOOTH",
"695 463 OFFCURVE",
"752 411 OFFCURVE",
"752 299 CURVE SMOOTH",
"752 182 LINE SMOOTH",
"752 79 OFFCURVE",
"761 -10 OFFCURVE",
"843 -10 CURVE SMOOTH",
"905 -10 OFFCURVE",
"923 57 OFFCURVE",
"923 108 CURVE SMOOTH",
"923 454 LINE",
"936 454 LINE SMOOTH",
"982 454 OFFCURVE",
"1008 408 OFFCURVE",
"1008 306 CURVE SMOOTH",
"1008 0 LINE",
"1047 0 LINE",
"1047 310 LINE SMOOTH",
"1047 430 OFFCURVE",
"1042 537 OFFCURVE",
"907 537 CURVE SMOOTH",
"884 537 LINE",
"884 138 LINE SMOOTH",
"884 96 OFFCURVE",
"870 63 OFFCURVE",
"844 63 CURVE SMOOTH",
"805 63 OFFCURVE",
"791 88 OFFCURVE",
"791 178 CURVE SMOOTH",
"791 300 LINE SMOOTH",
"791 467 OFFCURVE",
"703 546 OFFCURVE",
"556 546 CURVE SMOOTH",
"418 546 OFFCURVE",
"317 473 OFFCURVE",
"317 319 CURVE SMOOTH",
"317 298 LINE",
"281 297 OFFCURVE",
"271 296 OFFCURVE",
"262 294 CURVE",
"262 319 LINE SMOOTH",
"262 422 OFFCURVE",
"255 546 OFFCURVE",
"156 546 CURVE SMOOTH",
"42 546 OFFCURVE",
"39 405 OFFCURVE",
"39 335 CURVE",
"45 333 OFFCURVE",
"48 332 OFFCURVE",
"57 332 CURVE SMOOTH",
"67 332 OFFCURVE",
"71 334 OFFCURVE",
"78 336 CURVE",
"80 410 OFFCURVE",
"87 463 OFFCURVE",
"151 463 CURVE SMOOTH",
"197 463 OFFCURVE",
"223 424 OFFCURVE",
"223 322 CURVE SMOOTH",
"223 286 LINE",
"137 261 OFFCURVE",
"68 196 OFFCURVE",
"68 92 CURVE SMOOTH",
"68 42 OFFCURVE",
"98 -10 OFFCURVE",
"153 -10 CURVE SMOOTH"
);
},
{
closed = 1;
nodes = (
"130 39 OFFCURVE",
"112 56 OFFCURVE",
"112 98 CURVE SMOOTH",
"112 155 OFFCURVE",
"158 190 OFFCURVE",
"223 206 CURVE",
"223 178 LINE SMOOTH",
"223 76 OFFCURVE",
"195 39 OFFCURVE",
"155 39 CURVE SMOOTH"
);
},
{
closed = 1;
nodes = (
"455 39 OFFCURVE",
"356 87 OFFCURVE",
"356 199 CURVE SMOOTH",
"356 213 LINE",
"476 206 OFFCURVE",
"606 165 OFFCURVE",
"606 85 CURVE SMOOTH",
"606 52 OFFCURVE",
"564 39 OFFCURVE",
"527 39 CURVE SMOOTH"
);
}
);
width = 1111;
}
);
note = uni1B13;
unicode = 1B13;
},
{
glyphname = uni1B14;
lastChange = "2017-10-19 13:19:07 +0000";
layers = (
{
layerId = "3BC433F7-38BC-4C75-8B4E-78FBECB68114";
paths = (
{
closed = 1;
nodes = (
"1142 20 OFFCURVE",
"1070 76 OFFCURVE",
"954 78 CURVE SMOOTH",
"838 80 OFFCURVE",
"791 118 OFFCURVE",
"791 203 CURVE SMOOTH",
"791 300 LINE SMOOTH",
"791 460 OFFCURVE",
"710 546 OFFCURVE",
"556 546 CURVE SMOOTH",
"407 546 OFFCURVE",
"317 462 OFFCURVE",
"317 319 CURVE SMOOTH",
"317 298 LINE",
"293 298 OFFCURVE",
"275 297 OFFCURVE",
"262 294 CURVE",
"262 319 LINE SMOOTH",
"262 407 OFFCURVE",
"253 467 OFFCURVE",
"235 499 CURVE SMOOTH",
"217 530 OFFCURVE",
"190 546 OFFCURVE",
"156 546 CURVE SMOOTH",
"78 546 OFFCURVE",
"39 485 OFFCURVE",
"39 335 CURVE",
"45 334 OFFCURVE",
"51 332 OFFCURVE",
"57 332 CURVE SMOOTH",
"62 332 OFFCURVE",
"69 333 OFFCURVE",
"78 336 CURVE",
"79 388 OFFCURVE",
"85 421 OFFCURVE",
"98 439 CURVE SMOOTH",
"109 455 OFFCURVE",
"127 463 OFFCURVE",
"151 463 CURVE SMOOTH",
"201 463 OFFCURVE",
"223 417 OFFCURVE",
"223 322 CURVE SMOOTH",
"223 286 LINE",
"126 258 OFFCURVE",
"68 186 OFFCURVE",
"68 92 CURVE SMOOTH",
"68 35 OFFCURVE",
"103 -10 OFFCURVE",
"153 -10 CURVE SMOOTH",
"226 -10 OFFCURVE",
"262 49 OFFCURVE",
"262 182 CURVE SMOOTH",
"262 212 LINE",
"275 214 OFFCURVE",
"293 214 OFFCURVE",
"317 214 CURVE",
"317 202 LINE SMOOTH",
"317 77 OFFCURVE",
"422 -10 OFFCURVE",
"522 -10 CURVE SMOOTH",
"604 -10 OFFCURVE",
"655 32 OFFCURVE",
"655 99 CURVE SMOOTH",
"655 217 OFFCURVE",
"543 287 OFFCURVE",
"356 297 CURVE",
"356 311 LINE SMOOTH",
"356 415 OFFCURVE",
"415 463 OFFCURVE",
"557 463 CURVE SMOOTH",
"690 463 OFFCURVE",
"752 415 OFFCURVE",
"752 299 CURVE SMOOTH",
"752 198 LINE SMOOTH",
"752 61 OFFCURVE",
"815 -5 OFFCURVE",
"944 -5 CURVE SMOOTH",
"1071 -5 OFFCURVE",
"1115 -37 OFFCURVE",
"1123 -98 CURVE",
"1155 -88 LINE"
);
},
{
closed = 1;
nodes = (
"505 204 OFFCURVE",
"606 154 OFFCURVE",
"606 85 CURVE SMOOTH",
"606 56 OFFCURVE",
"572 39 OFFCURVE",
"527 39 CURVE SMOOTH",
"443 39 OFFCURVE",
"356 97 OFFCURVE",
"356 199 CURVE SMOOTH",
"356 213 LINE"
);
},
{
closed = 1;
nodes = (
"223 85 OFFCURVE",
"201 39 OFFCURVE",
"155 39 CURVE SMOOTH",
"126 39 OFFCURVE",
"112 59 OFFCURVE",
"112 98 CURVE SMOOTH",
"112 149 OFFCURVE",
"150 188 OFFCURVE",
"223 206 CURVE",
"223 178 LINE SMOOTH"
);
}
);
width = 1131;
}
);
note = uni1B14;
unicode = 1B14;
},
{
glyphname = uni1B15;
lastChange = "2017-10-19 13:19:07 +0000";
layers = (
{
layerId = "3BC433F7-38BC-4C75-8B4E-78FBECB68114";
paths = (
{
closed = 1;
nodes = (
"865 537 LINE",
"865 204 LINE SMOOTH",
"865 121 OFFCURVE",
"836 83 OFFCURVE",
"794 83 CURVE SMOOTH",
"781 83 LINE",
"781 300 LINE SMOOTH",
"781 467 OFFCURVE",
"698 546 OFFCURVE",
"551 546 CURVE SMOOTH",
"414 546 OFFCURVE",
"322 474 OFFCURVE",
"322 301 CURVE SMOOTH",
"322 83 LINE",
"310 83 LINE SMOOTH",
"268 83 OFFCURVE",
"238 121 OFFCURVE",
"238 204 CURVE SMOOTH",
"238 319 LINE SMOOTH",
"238 422 OFFCURVE",
"235 546 OFFCURVE",
"140 546 CURVE SMOOTH",
"42 546 OFFCURVE",
"39 405 OFFCURVE",
"39 335 CURVE",
"45 333 OFFCURVE",
"48 332 OFFCURVE",
"57 332 CURVE SMOOTH",
"67 332 OFFCURVE",
"71 334 OFFCURVE",
"78 336 CURVE",
"80 411 OFFCURVE",
"80 463 OFFCURVE",
"141 463 CURVE SMOOTH",
"187 463 OFFCURVE",
"199 424 OFFCURVE",
"199 322 CURVE SMOOTH",
"199 227 LINE SMOOTH",
"199 107 OFFCURVE",
"203 0 OFFCURVE",
"338 0 CURVE SMOOTH",
"361 0 LINE",
"361 301 LINE SMOOTH",
"361 430 OFFCURVE",
"441 463 OFFCURVE",
"552 463 CURVE SMOOTH",
"689 463 OFFCURVE",
"742 411 OFFCURVE",
"742 299 CURVE SMOOTH",
"742 0 LINE",
"765 0 LINE SMOOTH",
"900 0 OFFCURVE",
"904 107 OFFCURVE",
"904 227 CURVE SMOOTH",
"904 454 LINE",
"917 454 LINE SMOOTH",
"963 454 OFFCURVE",
"990 408 OFFCURVE",
"990 306 CURVE SMOOTH",
"990 0 LINE",
"1029 0 LINE",
"1029 310 LINE SMOOTH",
"1029 430 OFFCURVE",
"1023 537 OFFCURVE",
"888 537 CURVE SMOOTH"
);
}
);
width = 1092;
}
);
note = uni1B15;
unicode = 1B15;
},
{
glyphname = uni1B16;
lastChange = "2017-10-19 13:19:07 +0000";
layers = (
{
layerId = "3BC433F7-38BC-4C75-8B4E-78FBECB68114";
paths = (
{
closed = 1;
nodes = (
"872 546 OFFCURVE",
"830 508 OFFCURVE",
"804 454 CURVE",
"920 454 OFFCURVE",
"955 337 OFFCURVE",
"955 261 CURVE SMOOTH",
"955 235 LINE SMOOTH",
"955 106 OFFCURVE",
"921 73 OFFCURVE",
"862 73 CURVE SMOOTH",
"779 73 OFFCURVE",
"786 178 OFFCURVE",
"720 178 CURVE SMOOTH",
"659 178 OFFCURVE",
"672 73 OFFCURVE",
"579 73 CURVE SMOOTH",
"520 73 OFFCURVE",
"486 106 OFFCURVE",
"486 235 CURVE SMOOTH",
"486 537 LINE",
"463 537 LINE SMOOTH",
"328 537 OFFCURVE",
"322 430 OFFCURVE",
"322 310 CURVE SMOOTH",
"322 83 LINE",
"310 83 LINE SMOOTH",
"268 83 OFFCURVE",
"238 121 OFFCURVE",
"238 204 CURVE SMOOTH",
"238 319 LINE SMOOTH",
"238 422 OFFCURVE",
"235 546 OFFCURVE",
"140 546 CURVE SMOOTH",
"42 546 OFFCURVE",
"39 405 OFFCURVE",
"39 335 CURVE",
"45 333 OFFCURVE",
"48 332 OFFCURVE",
"57 332 CURVE SMOOTH",
"67 332 OFFCURVE",
"71 334 OFFCURVE",
"78 336 CURVE",
"80 410 OFFCURVE",
"80 463 OFFCURVE",
"141 463 CURVE SMOOTH",
"187 463 OFFCURVE",
"199 424 OFFCURVE",
"199 322 CURVE SMOOTH",
"199 227 LINE SMOOTH",
"199 107 OFFCURVE",
"203 0 OFFCURVE",
"338 0 CURVE SMOOTH",
"361 0 LINE",
"361 306 LINE SMOOTH",
"361 408 OFFCURVE",
"388 454 OFFCURVE",
"434 454 CURVE SMOOTH",
"447 454 LINE",
"447 235 LINE SMOOTH",
"447 62 OFFCURVE",
"481 -10 OFFCURVE",
"569 -10 CURVE SMOOTH",
"656 -10 OFFCURVE",
"643 91 OFFCURVE",
"720 91 CURVE SMOOTH",
"798 91 OFFCURVE",
"785 -10 OFFCURVE",
"872 -10 CURVE SMOOTH",
"960 -10 OFFCURVE",
"994 62 OFFCURVE",
"994 235 CURVE SMOOTH",
"994 273 LINE SMOOTH",
"994 343 OFFCURVE",
"980 405 OFFCURVE",
"919 456 CURVE",
"928 460 OFFCURVE",
"947 463 OFFCURVE",
"958 463 CURVE SMOOTH",
"1012 463 OFFCURVE",
"1065 426 OFFCURVE",
"1065 306 CURVE SMOOTH",
"1065 0 LINE",
"1104 0 LINE",
"1104 310 LINE SMOOTH",
"1104 443 OFFCURVE",
"1062 546 OFFCURVE",
"939 546 CURVE SMOOTH"
);
}
);
width = 1168;
}
);
note = uni1B16;
unicode = 1B16;
},
{
glyphname = uni1B17;
lastChange = "2017-10-19 13:19:07 +0000";
layers = (
{
layerId = "3BC433F7-38BC-4C75-8B4E-78FBECB68114";
paths = (
{
closed = 1;
nodes = (
"361 0 LINE",
"361 301 LINE SMOOTH",
"361 430 OFFCURVE",
"405 463 OFFCURVE",
"474 463 CURVE SMOOTH",
"532 463 OFFCURVE",
"579 411 OFFCURVE",
"579 358 CURVE",
"613 358 LINE",
"619 428 OFFCURVE",
"668 463 OFFCURVE",
"718 463 CURVE SMOOTH",
"787 463 OFFCURVE",
"830 430 OFFCURVE",
"830 301 CURVE SMOOTH",
"830 0 LINE",
"869 0 LINE",
"869 301 LINE SMOOTH",
"869 474 OFFCURVE",
"831 546 OFFCURVE",
"718 546 CURVE SMOOTH",
"655 546 OFFCURVE",
"617 510 OFFCURVE",
"596 445 CURVE",
"575 510 OFFCURVE",
"536 546 OFFCURVE",
"474 546 CURVE SMOOTH",
"361 546 OFFCURVE",
"322 474 OFFCURVE",
"322 301 CURVE SMOOTH",
"322 83 LINE",
"310 83 LINE SMOOTH",
"268 83 OFFCURVE",
"238 121 OFFCURVE",
"238 204 CURVE SMOOTH",
"238 319 LINE SMOOTH",
"238 422 OFFCURVE",
"235 546 OFFCURVE",
"140 546 CURVE SMOOTH",
"42 546 OFFCURVE",
"39 405 OFFCURVE",
"39 335 CURVE",
"45 333 OFFCURVE",
"48 332 OFFCURVE",
"57 332 CURVE SMOOTH",
"67 332 OFFCURVE",
"71 334 OFFCURVE",
"78 336 CURVE",
"80 410 OFFCURVE",
"80 463 OFFCURVE",
"141 463 CURVE SMOOTH",
"187 463 OFFCURVE",
"199 424 OFFCURVE",
"199 322 CURVE SMOOTH",
"199 227 LINE SMOOTH",
"199 107 OFFCURVE",
"203 0 OFFCURVE",
"338 0 CURVE SMOOTH"
);
}
);
width = 933;
}
);
note = uni1B17;
unicode = 1B17;
},
{
glyphname = uni1B18;
lastChange = "2017-10-19 13:19:07 +0000";
layers = (
{
layerId = "3BC433F7-38BC-4C75-8B4E-78FBECB68114";
paths = (
{
closed = 1;
nodes = (
"499 546 OFFCURVE",
"456 508 OFFCURVE",
"431 454 CURVE",
"547 454 OFFCURVE",
"581 337 OFFCURVE",
"581 261 CURVE SMOOTH",
"581 232 LINE SMOOTH",
"581 151 OFFCURVE",
"572 73 OFFCURVE",
"500 73 CURVE SMOOTH",
"443 73 OFFCURVE",
"380 248 OFFCURVE",
"262 275 CURVE",
"262 319 LINE SMOOTH",
"262 422 OFFCURVE",
"255 546 OFFCURVE",
"156 546 CURVE SMOOTH",
"42 546 OFFCURVE",
"39 405 OFFCURVE",
"39 335 CURVE",
"45 333 OFFCURVE",
"48 332 OFFCURVE",
"57 332 CURVE SMOOTH",
"67 332 OFFCURVE",
"71 334 OFFCURVE",
"78 336 CURVE",
"80 410 OFFCURVE",
"87 463 OFFCURVE",
"151 463 CURVE SMOOTH",
"197 463 OFFCURVE",
"223 424 OFFCURVE",
"223 322 CURVE SMOOTH",
"223 278 LINE",
"156 274 OFFCURVE",
"68 224 OFFCURVE",
"68 92 CURVE SMOOTH",
"68 42 OFFCURVE",
"98 -10 OFFCURVE",
"153 -10 CURVE SMOOTH",
"241 -10 OFFCURVE",
"262 79 OFFCURVE",
"262 182 CURVE SMOOTH",
"262 188 LINE",
"357 147 OFFCURVE",
"394 -10 OFFCURVE",
"501 -10 CURVE SMOOTH",
"596 -10 OFFCURVE",
"620 92 OFFCURVE",
"620 205 CURVE SMOOTH",
"620 273 LINE SMOOTH",
"620 343 OFFCURVE",
"607 405 OFFCURVE",
"545 456 CURVE",
"555 460 OFFCURVE",
"574 463 OFFCURVE",
"584 463 CURVE SMOOTH",
"639 463 OFFCURVE",
"692 426 OFFCURVE",
"692 306 CURVE SMOOTH",
"692 0 LINE",
"731 0 LINE",
"731 310 LINE SMOOTH",
"731 443 OFFCURVE",
"689 546 OFFCURVE",
"566 546 CURVE SMOOTH"
);
},
{
closed = 1;
nodes = (
"130 39 OFFCURVE",
"112 56 OFFCURVE",
"112 98 CURVE SMOOTH",
"112 175 OFFCURVE",
"168 194 OFFCURVE",
"223 195 CURVE",
"223 178 LINE SMOOTH",
"223 76 OFFCURVE",
"195 39 OFFCURVE",
"155 39 CURVE SMOOTH"
);
}
);
width = 794;
}
);
note = uni1B18;
unicode = 1B18;
},
{
glyphname = uni1B19;
lastChange = "2017-10-19 13:19:07 +0000";
layers = (
{
layerId = "3BC433F7-38BC-4C75-8B4E-78FBECB68114";
paths = (
{
closed = 1;
nodes = (
"260 -10 OFFCURVE",
"263 146 OFFCURVE",
"263 216 CURVE",
"256 218 OFFCURVE",
"254 219 OFFCURVE",
"245 219 CURVE SMOOTH",
"235 219 OFFCURVE",
"230 217 OFFCURVE",
"224 215 CURVE",
"222 141 OFFCURVE",
"222 73 OFFCURVE",
"161 73 CURVE SMOOTH",
"115 73 OFFCURVE",
"103 112 OFFCURVE",
"103 214 CURVE SMOOTH",
"103 301 LINE SMOOTH",
"103 430 OFFCURVE",
"173 463 OFFCURVE",
"273 463 CURVE SMOOTH",
"401 463 OFFCURVE",
"444 411 OFFCURVE",
"444 299 CURVE SMOOTH",
"444 227 LINE SMOOTH",
"444 66 OFFCURVE",
"521 -10 OFFCURVE",
"655 -10 CURVE SMOOTH",
"782 -10 OFFCURVE",
"864 62 OFFCURVE",
"864 235 CURVE SMOOTH",
"864 454 LINE",
"877 454 LINE SMOOTH",
"923 454 OFFCURVE",
"950 408 OFFCURVE",
"950 306 CURVE SMOOTH",
"950 0 LINE",
"989 0 LINE",
"989 310 LINE SMOOTH",
"989 430 OFFCURVE",
"983 537 OFFCURVE",
"848 537 CURVE SMOOTH",
"825 537 LINE",
"825 235 LINE SMOOTH",
"825 106 OFFCURVE",
"755 73 OFFCURVE",
"654 73 CURVE SMOOTH",
"526 73 OFFCURVE",
"483 125 OFFCURVE",
"483 237 CURVE SMOOTH",
"483 300 LINE SMOOTH",
"483 467 OFFCURVE",
"410 546 OFFCURVE",
"273 546 CURVE SMOOTH",
"146 546 OFFCURVE",
"63 474 OFFCURVE",
"63 301 CURVE SMOOTH",
"63 217 LINE SMOOTH",
"63 114 OFFCURVE",
"67 -10 OFFCURVE",
"162 -10 CURVE SMOOTH"
);
}
);
width = 1052;
}
);
note = uni1B19;
unicode = 1B19;
},
{
glyphname = uni1B1A;
lastChange = "2017-10-19 13:19:07 +0000";
layers = (
{
layerId = "3BC433F7-38BC-4C75-8B4E-78FBECB68114";
paths = (
{
closed = 1;
nodes = (
"790 243 OFFCURVE",
"815 306 OFFCURVE",
"815 351 CURVE SMOOTH",
"815 484 OFFCURVE",
"709 546 OFFCURVE",
"563 546 CURVE SMOOTH",
"428 546 OFFCURVE",
"322 480 OFFCURVE",
"322 301 CURVE SMOOTH",
"322 83 LINE",
"310 83 LINE SMOOTH",
"268 83 OFFCURVE",
"238 121 OFFCURVE",
"238 204 CURVE SMOOTH",
"238 319 LINE SMOOTH",
"238 422 OFFCURVE",
"235 546 OFFCURVE",
"140 546 CURVE SMOOTH",
"42 546 OFFCURVE",
"39 405 OFFCURVE",
"39 335 CURVE",
"45 333 OFFCURVE",
"48 332 OFFCURVE",
"57 332 CURVE SMOOTH",
"67 332 OFFCURVE",
"71 334 OFFCURVE",
"78 336 CURVE",
"80 410 OFFCURVE",
"80 463 OFFCURVE",
"141 463 CURVE SMOOTH",
"187 463 OFFCURVE",
"199 424 OFFCURVE",
"199 322 CURVE SMOOTH",
"199 227 LINE SMOOTH",
"199 107 OFFCURVE",
"203 0 OFFCURVE",
"338 0 CURVE SMOOTH",
"361 0 LINE",
"361 301 LINE SMOOTH",
"361 430 OFFCURVE",
"445 463 OFFCURVE",
"563 463 CURVE SMOOTH",
"701 463 OFFCURVE",
"767 410 OFFCURVE",
"767 344 CURVE SMOOTH",
"767 256 OFFCURVE",
"674 232 OFFCURVE",
"595 232 CURVE SMOOTH",
"546 232 LINE",
"542 193 LINE",
"586 193 LINE SMOOTH",
"633 193 OFFCURVE",
"776 188 OFFCURVE",
"776 58 CURVE SMOOTH",
"776 0 LINE",
"815 0 LINE",
"815 55 LINE SMOOTH",
"815 145 OFFCURVE",
"766 190 OFFCURVE",
"710 212 CURVE"
);
}
);
width = 879;
}
);
note = uni1B1A;
unicode = 1B1A;
},
{
glyphname = uni1B1B;
lastChange = "2017-10-19 13:19:07 +0000";
layers = (
{
layerId = "3BC433F7-38BC-4C75-8B4E-78FBECB68114";
paths = (
{
closed = 1;
nodes = (
"999 583 LINE SMOOTH",
"999 686 OFFCURVE",
"977 767 OFFCURVE",
"890 767 CURVE SMOOTH",
"834 767 OFFCURVE",
"804 723 OFFCURVE",
"804 672 CURVE SMOOTH",
"804 580 OFFCURVE",
"872 517 OFFCURVE",
"959 493 CURVE",
"959 -301 LINE SMOOTH",
"959 -430 OFFCURVE",
"917 -463 OFFCURVE",
"832 -463 CURVE SMOOTH",
"749 -463 OFFCURVE",
"756 -358 OFFCURVE",
"690 -358 CURVE SMOOTH",
"629 -358 OFFCURVE",
"643 -463 OFFCURVE",
"549 -463 CURVE SMOOTH",
"463 -463 OFFCURVE",
"411 -417 OFFCURVE",
"411 -333 CURVE SMOOTH",
"411 -102 OFFCURVE",
"875 -50 OFFCURVE",
"875 349 CURVE SMOOTH",
"875 456 OFFCURVE",
"832 546 OFFCURVE",
"718 546 CURVE SMOOTH",
"655 546 OFFCURVE",
"617 510 OFFCURVE",
"596 445 CURVE",
"575 510 OFFCURVE",
"536 546 OFFCURVE",
"474 546 CURVE SMOOTH",
"361 546 OFFCURVE",
"322 474 OFFCURVE",
"322 301 CURVE SMOOTH",
"322 83 LINE",
"310 83 LINE SMOOTH",
"268 83 OFFCURVE",
"238 121 OFFCURVE",
"238 204 CURVE SMOOTH",
"238 319 LINE SMOOTH",
"238 422 OFFCURVE",
"235 546 OFFCURVE",
"140 546 CURVE SMOOTH",
"42 546 OFFCURVE",
"39 405 OFFCURVE",
"39 335 CURVE",
"45 333 OFFCURVE",
"48 332 OFFCURVE",
"57 332 CURVE SMOOTH",
"67 332 OFFCURVE",
"71 334 OFFCURVE",
"78 336 CURVE",
"80 410 OFFCURVE",
"80 463 OFFCURVE",
"141 463 CURVE SMOOTH",
"187 463 OFFCURVE",
"199 424 OFFCURVE",
"199 322 CURVE SMOOTH",
"199 227 LINE SMOOTH",
"199 107 OFFCURVE",
"203 0 OFFCURVE",
"338 0 CURVE SMOOTH",
"361 0 LINE",
"361 301 LINE SMOOTH",
"361 430 OFFCURVE",
"405 463 OFFCURVE",
"474 463 CURVE SMOOTH",
"532 463 OFFCURVE",
"579 411 OFFCURVE",
"579 358 CURVE",
"613 358 LINE",
"619 428 OFFCURVE",
"668 463 OFFCURVE",
"718 463 CURVE SMOOTH",
"788 463 OFFCURVE",
"827 418 OFFCURVE",
"827 352 CURVE SMOOTH",
"827 51 OFFCURVE",
"362 -29 OFFCURVE",
"362 -331 CURVE SMOOTH",
"362 -445 OFFCURVE",
"416 -546 OFFCURVE",
"540 -546 CURVE SMOOTH",
"626 -546 OFFCURVE",
"613 -445 OFFCURVE",
"690 -445 CURVE SMOOTH",
"768 -445 OFFCURVE",
"755 -546 OFFCURVE",
"842 -546 CURVE SMOOTH",
"950 -546 OFFCURVE",
"999 -474 OFFCURVE",
"999 -301 CURVE SMOOTH",
"999 484 LINE",
"1026 480 LINE SMOOTH",
"1070 473 OFFCURVE",
"1129 466 OFFCURVE",
"1129 363 CURVE SMOOTH",
"1129 345 LINE",
"1168 345 LINE",
"1168 368 LINE SMOOTH",
"1168 488 OFFCURVE",
"1132 549 OFFCURVE",
"999 563 CURVE"
);
},
{
closed = 1;
nodes = (
"848 708 OFFCURVE",
"866 718 OFFCURVE",
"892 718 CURVE SMOOTH",
"931 718 OFFCURVE",
"959 688 OFFCURVE",
"959 586 CURVE SMOOTH",
"959 570 LINE",
"895 584 OFFCURVE",
"848 616 OFFCURVE",
"848 667 CURVE SMOOTH"
);
}
);
width = 1208;
}
);
note = uni1B1B;
unicode = 1B1B;
},
{
glyphname = uni1B1C;
lastChange = "2017-10-19 13:19:07 +0000";
layers = (
{
layerId = "3BC433F7-38BC-4C75-8B4E-78FBECB68114";
paths = (
{
closed = 1;
nodes = (
"1065 546 OFFCURVE",
"953 438 OFFCURVE",
"953 266 CURVE SMOOTH",
"953 204 LINE SMOOTH",
"953 121 OFFCURVE",
"924 83 OFFCURVE",
"882 83 CURVE SMOOTH",
"869 83 LINE",
"869 301 LINE SMOOTH",
"869 474 OFFCURVE",
"831 546 OFFCURVE",
"718 546 CURVE SMOOTH",
"655 546 OFFCURVE",
"617 510 OFFCURVE",
"596 445 CURVE",
"575 510 OFFCURVE",
"536 546 OFFCURVE",
"474 546 CURVE SMOOTH",
"361 546 OFFCURVE",
"322 474 OFFCURVE",
"322 301 CURVE SMOOTH",
"322 83 LINE",
"310 83 LINE SMOOTH",
"268 83 OFFCURVE",
"238 121 OFFCURVE",
"238 204 CURVE SMOOTH",
"238 319 LINE SMOOTH",
"238 422 OFFCURVE",
"235 546 OFFCURVE",
"140 546 CURVE SMOOTH",
"42 546 OFFCURVE",
"39 405 OFFCURVE",
"39 335 CURVE",
"45 333 OFFCURVE",
"48 332 OFFCURVE",
"57 332 CURVE SMOOTH",
"67 332 OFFCURVE",
"71 334 OFFCURVE",
"78 336 CURVE",
"80 410 OFFCURVE",
"80 463 OFFCURVE",
"141 463 CURVE SMOOTH",
"187 463 OFFCURVE",
"199 424 OFFCURVE",
"199 322 CURVE SMOOTH",
"199 227 LINE SMOOTH",
"199 107 OFFCURVE",
"203 0 OFFCURVE",
"338 0 CURVE SMOOTH",
"361 0 LINE",
"361 301 LINE SMOOTH",
"361 430 OFFCURVE",
"405 463 OFFCURVE",
"474 463 CURVE SMOOTH",
"532 463 OFFCURVE",
"579 411 OFFCURVE",
"579 358 CURVE",
"613 358 LINE",
"619 428 OFFCURVE",
"668 463 OFFCURVE",
"718 463 CURVE SMOOTH",
"787 463 OFFCURVE",
"830 430 OFFCURVE",
"830 301 CURVE SMOOTH",
"830 0 LINE",
"853 0 LINE SMOOTH",
"988 0 OFFCURVE",
"992 107 OFFCURVE",
"992 227 CURVE SMOOTH",
"992 265 LINE SMOOTH",
"992 376 OFFCURVE",
"1064 463 OFFCURVE",
"1202 463 CURVE SMOOTH",
"1323 463 OFFCURVE",
"1411 394 OFFCURVE",
"1411 271 CURVE SMOOTH",
"1411 113 OFFCURVE",
"1328 39 OFFCURVE",
"1251 39 CURVE SMOOTH",
"1232 39 OFFCURVE",
"1197 42 OFFCURVE",
"1182 50 CURVE",
"1157 11 LINE",
"1182 -3 OFFCURVE",
"1217 -10 OFFCURVE",
"1246 -10 CURVE SMOOTH",
"1329 -10 OFFCURVE",
"1460 55 OFFCURVE",
"1460 274 CURVE SMOOTH",
"1460 426 OFFCURVE",
"1359 546 OFFCURVE",
"1200 546 CURVE SMOOTH"
);
}
);
width = 1509;
}
);
note = uni1B1C;
unicode = 1B1C;
},
{
glyphname = uni1B1D;
lastChange = "2017-10-19 13:19:07 +0000";
layers = (
{
layerId = "3BC433F7-38BC-4C75-8B4E-78FBECB68114";
paths = (
{
closed = 1;
nodes = (
"647 -293 OFFCURVE",
"728 -240 OFFCURVE",
"744 -103 CURVE",
"712 -93 LINE",
"699 -185 OFFCURVE",
"620 -210 OFFCURVE",
"549 -210 CURVE SMOOTH",
"437 -210 OFFCURVE",
"393 -121 OFFCURVE",
"393 -41 CURVE SMOOTH",
"393 -8 LINE",
"458 0 OFFCURVE",
"548 47 OFFCURVE",
"548 159 CURVE SMOOTH",
"548 210 OFFCURVE",
"521 249 OFFCURVE",
"465 249 CURVE SMOOTH",
"396 249 OFFCURVE",
"356 160 OFFCURVE",
"354 74 CURVE",
"317 74 OFFCURVE",
"242 103 OFFCURVE",
"242 214 CURVE SMOOTH",
"242 318 LINE SMOOTH",
"242 421 OFFCURVE",
"233 546 OFFCURVE",
"151 546 CURVE SMOOTH",
"40 546 OFFCURVE",
"39 405 OFFCURVE",
"39 335 CURVE",
"45 333 OFFCURVE",
"48 332 OFFCURVE",
"57 332 CURVE SMOOTH",
"67 332 OFFCURVE",
"71 334 OFFCURVE",
"78 336 CURVE",
"80 410 OFFCURVE",
"82 463 OFFCURVE",
"146 463 CURVE SMOOTH",
"184 463 OFFCURVE",
"203 424 OFFCURVE",
"203 322 CURVE SMOOTH",
"203 200 LINE SMOOTH",
"203 31 OFFCURVE",
"300 -7 OFFCURVE",
"354 -9 CURVE",
"354 -46 LINE SMOOTH",
"354 -171 OFFCURVE",
"409 -293 OFFCURVE",
"549 -293 CURVE SMOOTH"
);
},
{
closed = 1;
nodes = (
"396 142 OFFCURVE",
"425 200 OFFCURVE",
"463 200 CURVE SMOOTH",
"489 200 OFFCURVE",
"504 188 OFFCURVE",
"504 160 CURVE SMOOTH",
"504 105 OFFCURVE",
"456 79 OFFCURVE",
"393 74 CURVE"
);
},
{
closed = 1;
nodes = (
"986 0 LINE",
"986 301 LINE SMOOTH",
"986 474 OFFCURVE",
"948 546 OFFCURVE",
"835 546 CURVE SMOOTH",
"772 546 OFFCURVE",
"734 510 OFFCURVE",
"713 445 CURVE",
"692 510 OFFCURVE",
"653 546 OFFCURVE",
"591 546 CURVE SMOOTH",
"492 546 OFFCURVE",
"440 489 OFFCURVE",
"427 369 CURVE",
"461 360 LINE",
"474 454 OFFCURVE",
"530 463 OFFCURVE",
"591 463 CURVE SMOOTH",
"649 463 OFFCURVE",
"696 411 OFFCURVE",
"696 358 CURVE",
"730 358 LINE",
"736 428 OFFCURVE",
"786 463 OFFCURVE",
"835 463 CURVE SMOOTH",
"904 463 OFFCURVE",
"947 430 OFFCURVE",
"947 301 CURVE SMOOTH",
"947 0 LINE"
);
}
);
width = 1050;
}
);
note = uni1B1D;
unicode = 1B1D;
},
{
glyphname = uni1B1E;
lastChange = "2017-10-19 13:19:07 +0000";
layers = (
{
layerId = "3BC433F7-38BC-4C75-8B4E-78FBECB68114";
paths = (
{
closed = 1;
nodes = (
"496 -68 OFFCURVE",
"577 -15 OFFCURVE",
"593 122 CURVE",
"561 132 LINE",
"548 40 OFFCURVE",
"468 15 OFFCURVE",
"397 15 CURVE SMOOTH",
"286 15 OFFCURVE",
"242 104 OFFCURVE",
"242 184 CURVE SMOOTH",
"242 318 LINE SMOOTH",
"242 421 OFFCURVE",
"233 546 OFFCURVE",
"151 546 CURVE SMOOTH",
"40 546 OFFCURVE",
"39 405 OFFCURVE",
"39 335 CURVE",
"45 333 OFFCURVE",
"48 332 OFFCURVE",
"57 332 CURVE SMOOTH",
"67 332 OFFCURVE",
"71 334 OFFCURVE",
"78 336 CURVE",
"81 410 OFFCURVE",
"82 463 OFFCURVE",
"146 463 CURVE SMOOTH",
"184 463 OFFCURVE",
"203 424 OFFCURVE",
"203 322 CURVE SMOOTH",
"203 178 LINE SMOOTH",
"203 54 OFFCURVE",
"257 -68 OFFCURVE",
"397 -68 CURVE SMOOTH"
);
},
{
closed = 1;
nodes = (
"947 0 LINE",
"947 301 LINE SMOOTH",
"947 474 OFFCURVE",
"909 546 OFFCURVE",
"796 546 CURVE SMOOTH",
"733 546 OFFCURVE",
"695 510 OFFCURVE",
"674 445 CURVE",
"653 510 OFFCURVE",
"614 546 OFFCURVE",
"552 546 CURVE SMOOTH",
"453 546 OFFCURVE",
"401 489 OFFCURVE",
"388 369 CURVE",
"422 360 LINE",
"435 454 OFFCURVE",
"491 463 OFFCURVE",
"552 463 CURVE SMOOTH",
"610 463 OFFCURVE",
"657 411 OFFCURVE",
"657 358 CURVE",
"691 358 LINE",
"697 428 OFFCURVE",
"747 463 OFFCURVE",
"796 463 CURVE SMOOTH",
"865 463 OFFCURVE",
"908 430 OFFCURVE",
"908 301 CURVE SMOOTH",
"908 0 LINE"
);
}
);
width = 1011;
}
);
note = uni1B1E;
unicode = 1B1E;
},
{
glyphname = uni1B1F;
lastChange = "2017-10-19 13:19:07 +0000";
layers = (
{
layerId = "3BC433F7-38BC-4C75-8B4E-78FBECB68114";
paths = (
{
closed = 1;
nodes = (
"408 -10 OFFCURVE",
"395 91 OFFCURVE",
"473 91 CURVE SMOOTH",
"549 91 OFFCURVE",
"538 -10 OFFCURVE",
"624 -10 CURVE SMOOTH",
"712 -10 OFFCURVE",
"746 62 OFFCURVE",
"746 235 CURVE SMOOTH",
"746 454 LINE",
"759 454 LINE SMOOTH",
"805 454 OFFCURVE",
"832 408 OFFCURVE",
"832 306 CURVE SMOOTH",
"832 0 LINE",
"871 0 LINE",
"871 310 LINE SMOOTH",
"871 430 OFFCURVE",
"865 537 OFFCURVE",
"730 537 CURVE SMOOTH",
"707 537 LINE",
"707 235 LINE SMOOTH",
"707 106 OFFCURVE",
"674 73 OFFCURVE",
"614 73 CURVE SMOOTH",
"533 73 OFFCURVE",
"540 178 OFFCURVE",
"473 178 CURVE SMOOTH",
"413 178 OFFCURVE",
"422 73 OFFCURVE",
"332 73 CURVE SMOOTH",
"272 73 OFFCURVE",
"238 106 OFFCURVE",
"238 235 CURVE SMOOTH",
"238 319 LINE SMOOTH",
"238 422 OFFCURVE",
"235 546 OFFCURVE",
"140 546 CURVE SMOOTH",
"42 546 OFFCURVE",
"39 405 OFFCURVE",
"39 335 CURVE",
"45 333 OFFCURVE",
"48 332 OFFCURVE",
"57 332 CURVE SMOOTH",
"67 332 OFFCURVE",
"71 334 OFFCURVE",
"78 336 CURVE",
"80 410 OFFCURVE",
"80 463 OFFCURVE",
"141 463 CURVE SMOOTH",
"187 463 OFFCURVE",
"199 424 OFFCURVE",
"199 322 CURVE SMOOTH",
"199 235 LINE SMOOTH",
"199 62 OFFCURVE",
"233 -10 OFFCURVE",
"322 -10 CURVE SMOOTH"
);
}
);
width = 934;
}
);
note = uni1B1F;
unicode = 1B1F;
},
{
glyphname = uni1B20;
lastChange = "2017-10-19 13:19:07 +0000";
layers = (
{
layerId = "3BC433F7-38BC-4C75-8B4E-78FBECB68114";
paths = (
{
closed = 1;
nodes = (
"408 -10 OFFCURVE",
"395 91 OFFCURVE",
"473 91 CURVE SMOOTH",
"549 91 OFFCURVE",
"537 -10 OFFCURVE",
"624 -10 CURVE SMOOTH",
"712 -10 OFFCURVE",
"746 62 OFFCURVE",
"746 235 CURVE SMOOTH",
"746 537 LINE",
"707 537 LINE",
"707 235 LINE SMOOTH",
"707 106 OFFCURVE",
"674 73 OFFCURVE",
"614 73 CURVE SMOOTH",
"533 73 OFFCURVE",
"540 178 OFFCURVE",
"473 178 CURVE SMOOTH",
"413 178 OFFCURVE",
"423 73 OFFCURVE",
"332 73 CURVE SMOOTH",
"272 73 OFFCURVE",
"238 106 OFFCURVE",
"238 235 CURVE SMOOTH",
"238 319 LINE SMOOTH",
"238 422 OFFCURVE",
"235 546 OFFCURVE",
"140 546 CURVE SMOOTH",
"42 546 OFFCURVE",
"39 405 OFFCURVE",
"39 335 CURVE",
"45 333 OFFCURVE",
"48 332 OFFCURVE",
"57 332 CURVE SMOOTH",
"67 332 OFFCURVE",
"71 334 OFFCURVE",
"78 336 CURVE",
"80 410 OFFCURVE",
"80 463 OFFCURVE",
"141 463 CURVE SMOOTH",
"187 463 OFFCURVE",
"199 424 OFFCURVE",
"199 322 CURVE SMOOTH",
"199 235 LINE SMOOTH",
"199 62 OFFCURVE",
"233 -10 OFFCURVE",
"322 -10 CURVE SMOOTH"
);
}
);
width = 810;
}
);
note = uni1B20;
unicode = 1B20;
},
{
glyphname = uni1B21;
lastChange = "2017-10-19 13:19:07 +0000";
layers = (
{
layerId = "3BC433F7-38BC-4C75-8B4E-78FBECB68114";
paths = (
{
closed = 1;
nodes = (
"1016 -10 OFFCURVE",
"1033 57 OFFCURVE",
"1033 108 CURVE SMOOTH",
"1033 454 LINE",
"1046 454 LINE SMOOTH",
"1092 454 OFFCURVE",
"1119 408 OFFCURVE",
"1119 306 CURVE SMOOTH",
"1119 0 LINE",
"1158 0 LINE",
"1158 310 LINE SMOOTH",
"1158 430 OFFCURVE",
"1152 537 OFFCURVE",
"1017 537 CURVE SMOOTH",
"994 537 LINE",
"994 138 LINE SMOOTH",
"994 96 OFFCURVE",
"980 63 OFFCURVE",
"955 63 CURVE SMOOTH",
"915 63 OFFCURVE",
"901 88 OFFCURVE",
"901 178 CURVE SMOOTH",
"901 324 LINE SMOOTH",
"901 491 OFFCURVE",
"836 546 OFFCURVE",
"759 546 CURVE SMOOTH",
"641 546 OFFCURVE",
"650 396 OFFCURVE",
"562 396 CURVE SMOOTH",
"473 396 OFFCURVE",
"482 546 OFFCURVE",
"365 546 CURVE SMOOTH",
"187 546 OFFCURVE",
"286 324 OFFCURVE",
"150 324 CURVE SMOOTH",
"80 324 OFFCURVE",
"80 376 OFFCURVE",
"78 451 CURVE",
"71 453 OFFCURVE",
"67 455 OFFCURVE",
"57 455 CURVE SMOOTH",
"48 455 OFFCURVE",
"45 453 OFFCURVE",
"39 452 CURVE",
"39 381 OFFCURVE",
"39 241 OFFCURVE",
"149 241 CURVE SMOOTH",
"293 241 OFFCURVE",
"221 463 OFFCURVE",
"369 463 CURVE SMOOTH",
"483 463 OFFCURVE",
"481 313 OFFCURVE",
"562 313 CURVE SMOOTH",
"643 313 OFFCURVE",
"640 463 OFFCURVE",
"755 463 CURVE SMOOTH",
"811 463 OFFCURVE",
"862 435 OFFCURVE",
"862 323 CURVE SMOOTH",
"862 182 LINE SMOOTH",
"862 79 OFFCURVE",
"872 -10 OFFCURVE",
"953 -10 CURVE SMOOTH"
);
}
);
width = 1221;
}
);
note = uni1B21;
unicode = 1B21;
},
{
glyphname = uni1B22;
lastChange = "2017-10-19 13:19:07 +0000";
layers = (
{
layerId = "3BC433F7-38BC-4C75-8B4E-78FBECB68114";
paths = (
{
closed = 1;
nodes = (
"558 -10 OFFCURVE",
"661 66 OFFCURVE",
"661 178 CURVE SMOOTH",
"661 376 OFFCURVE",
"448 276 OFFCURVE",
"448 371 CURVE SMOOTH",
"448 422 OFFCURVE",
"495 463 OFFCURVE",
"633 463 CURVE SMOOTH",
"751 463 OFFCURVE",
"845 430 OFFCURVE",
"845 301 CURVE SMOOTH",
"845 182 LINE SMOOTH",
"845 79 OFFCURVE",
"854 -10 OFFCURVE",
"936 -10 CURVE SMOOTH",
"998 -10 OFFCURVE",
"1016 57 OFFCURVE",
"1016 108 CURVE SMOOTH",
"1016 454 LINE",
"1028 454 LINE SMOOTH",
"1075 454 OFFCURVE",
"1101 408 OFFCURVE",
"1101 306 CURVE SMOOTH",
"1101 0 LINE",
"1140 0 LINE",
"1140 310 LINE SMOOTH",
"1140 430 OFFCURVE",
"1135 537 OFFCURVE",
"1000 537 CURVE SMOOTH",
"977 537 LINE",
"977 138 LINE SMOOTH",
"977 96 OFFCURVE",
"962 63 OFFCURVE",
"937 63 CURVE SMOOTH",
"897 63 OFFCURVE",
"884 88 OFFCURVE",
"884 178 CURVE SMOOTH",
"884 301 LINE SMOOTH",
"884 480 OFFCURVE",
"768 546 OFFCURVE",
"633 546 CURVE SMOOTH",
"487 546 OFFCURVE",
"399 468 OFFCURVE",
"399 374 CURVE SMOOTH",
"399 175 OFFCURVE",
"612 292 OFFCURVE",
"612 179 CURVE SMOOTH",
"612 113 OFFCURVE",
"540 73 OFFCURVE",
"418 73 CURVE SMOOTH",
"293 73 OFFCURVE",
"242 124 OFFCURVE",
"242 214 CURVE SMOOTH",
"242 318 LINE SMOOTH",
"242 421 OFFCURVE",
"233 546 OFFCURVE",
"151 546 CURVE SMOOTH",
"40 546 OFFCURVE",
"39 405 OFFCURVE",
"39 335 CURVE",
"45 333 OFFCURVE",
"48 332 OFFCURVE",
"57 332 CURVE SMOOTH",
"67 332 OFFCURVE",
"71 334 OFFCURVE",
"78 336 CURVE",
"80 410 OFFCURVE",
"82 463 OFFCURVE",
"146 463 CURVE SMOOTH",
"184 463 OFFCURVE",
"203 424 OFFCURVE",
"203 322 CURVE SMOOTH",
"203 200 LINE SMOOTH",
"203 31 OFFCURVE",
"297 -10 OFFCURVE",
"418 -10 CURVE SMOOTH"
);
}
);
width = 1204;
}
);
note = uni1B22;
unicode = 1B22;
},
{
glyphname = uni1B23;
lastChange = "2017-10-19 13:19:07 +0000";
layers = (
{
layerId = "3BC433F7-38BC-4C75-8B4E-78FBECB68114";
paths = (
{
closed = 1;
nodes = (
"498 546 OFFCURVE",
"455 508 OFFCURVE",
"430 454 CURVE",
"546 454 OFFCURVE",
"580 337 OFFCURVE",
"580 261 CURVE SMOOTH",
"580 235 LINE SMOOTH",
"580 167 OFFCURVE",
"561 126 OFFCURVE",
"527 102 CURVE",
"493 187 LINE SMOOTH",
"458 275 OFFCURVE",
"420 348 OFFCURVE",
"371 348 CURVE SMOOTH",
"316 348 OFFCURVE",
"303 251 OFFCURVE",
"303 212 CURVE",
"335 209 LINE",
"336 238 OFFCURVE",
"349 265 OFFCURVE",
"378 265 CURVE SMOOTH",
"410 265 OFFCURVE",
"435 228 OFFCURVE",
"469 143 CURVE SMOOTH",
"493 84 LINE",
"468 76 OFFCURVE",
"440 73 OFFCURVE",
"409 73 CURVE SMOOTH",
"281 73 OFFCURVE",
"238 125 OFFCURVE",
"238 237 CURVE SMOOTH",
"238 319 LINE SMOOTH",
"238 422 OFFCURVE",
"235 546 OFFCURVE",
"140 546 CURVE SMOOTH",
"42 546 OFFCURVE",
"39 405 OFFCURVE",
"39 335 CURVE",
"45 333 OFFCURVE",
"48 332 OFFCURVE",
"57 332 CURVE SMOOTH",
"67 332 OFFCURVE",
"71 334 OFFCURVE",
"78 336 CURVE",
"80 410 OFFCURVE",
"80 463 OFFCURVE",
"141 463 CURVE SMOOTH",
"187 463 OFFCURVE",
"199 424 OFFCURVE",
"199 322 CURVE SMOOTH",
"199 227 LINE SMOOTH",
"199 66 OFFCURVE",
"275 -10 OFFCURVE",
"410 -10 CURVE SMOOTH",
"452 -10 OFFCURVE",
"490 -2 OFFCURVE",
"521 15 CURVE",
"552 -63 LINE",
"587 -45 LINE",
"553 39 LINE",
"595 78 OFFCURVE",
"619 142 OFFCURVE",
"619 235 CURVE SMOOTH",
"619 273 LINE SMOOTH",
"619 343 OFFCURVE",
"606 405 OFFCURVE",
"544 456 CURVE",
"554 460 OFFCURVE",
"573 463 OFFCURVE",
"583 463 CURVE SMOOTH",
"638 463 OFFCURVE",
"691 426 OFFCURVE",
"691 306 CURVE SMOOTH",
"691 0 LINE",
"730 0 LINE",
"730 310 LINE SMOOTH",
"730 443 OFFCURVE",
"688 546 OFFCURVE",
"565 546 CURVE SMOOTH"
);
}
);
width = 793;
}
);
note = uni1B23;
unicode = 1B23;
},
{
glyphname = uni1B24;
lastChange = "2017-10-19 13:19:07 +0000";
layers = (
{
layerId = "3BC433F7-38BC-4C75-8B4E-78FBECB68114";
paths = (
{
closed = 1;
nodes = (
"641 546 OFFCURVE",
"549 474 OFFCURVE",
"549 301 CURVE SMOOTH",
"549 231 LINE",
"463 186 OFFCURVE",
"394 73 OFFCURVE",
"340 73 CURVE SMOOTH",
"270 73 OFFCURVE",
"259 151 OFFCURVE",
"259 232 CURVE SMOOTH",
"259 319 LINE SMOOTH",
"259 422 OFFCURVE",
"255 546 OFFCURVE",
"156 546 CURVE SMOOTH",
"42 546 OFFCURVE",
"39 405 OFFCURVE",
"39 335 CURVE",
"45 333 OFFCURVE",
"48 332 OFFCURVE",
"57 332 CURVE SMOOTH",
"67 332 OFFCURVE",
"71 334 OFFCURVE",
"78 336 CURVE",
"80 410 OFFCURVE",
"87 463 OFFCURVE",
"151 463 CURVE SMOOTH",
"197 463 OFFCURVE",
"220 424 OFFCURVE",
"220 322 CURVE SMOOTH",
"220 217 LINE SMOOTH",
"220 102 OFFCURVE",
"241 -10 OFFCURVE",
"337 -10 CURVE SMOOTH",
"428 -10 OFFCURVE",
"482 90 OFFCURVE",
"550 140 CURVE",
"558 53 OFFCURVE",
"598 -10 OFFCURVE",
"677 -10 CURVE SMOOTH",
"732 -10 OFFCURVE",
"762 42 OFFCURVE",
"762 92 CURVE SMOOTH",
"762 205 OFFCURVE",
"685 249 OFFCURVE",
"616 249 CURVE SMOOTH",
"606 249 OFFCURVE",
"597 248 OFFCURVE",
"588 246 CURVE",
"588 301 LINE SMOOTH",
"588 430 OFFCURVE",
"668 463 OFFCURVE",
"779 463 CURVE SMOOTH",
"917 463 OFFCURVE",
"969 411 OFFCURVE",
"969 299 CURVE SMOOTH",
"969 0 LINE",
"1008 0 LINE",
"1008 300 LINE SMOOTH",
"1008 467 OFFCURVE",
"925 546 OFFCURVE",
"778 546 CURVE SMOOTH"
);
},
{
closed = 1;
nodes = (
"669 166 OFFCURVE",
"718 146 OFFCURVE",
"718 85 CURVE SMOOTH",
"718 63 OFFCURVE",
"700 39 OFFCURVE",
"675 39 CURVE SMOOTH",
"636 39 OFFCURVE",
"591 65 OFFCURVE",
"588 160 CURVE",
"599 164 OFFCURVE",
"611 166 OFFCURVE",
"624 166 CURVE SMOOTH"
);
}
);
width = 1072;
}
);
note = uni1B24;
unicode = 1B24;
},
{
glyphname = uni1B25;
lastChange = "2017-10-19 13:19:07 +0000";
layers = (
{
layerId = "3BC433F7-38BC-4C75-8B4E-78FBECB68114";
paths = (
{
closed = 1;
nodes = (
"625 546 OFFCURVE",
"582 508 OFFCURVE",
"557 454 CURVE",
"673 454 OFFCURVE",
"707 337 OFFCURVE",
"707 261 CURVE SMOOTH",
"707 235 LINE SMOOTH",
"707 106 OFFCURVE",
"674 73 OFFCURVE",
"614 73 CURVE SMOOTH",
"531 73 OFFCURVE",
"540 178 OFFCURVE",
"473 178 CURVE SMOOTH",
"412 178 OFFCURVE",
"425 73 OFFCURVE",
"332 73 CURVE SMOOTH",
"272 73 OFFCURVE",
"238 106 OFFCURVE",
"238 235 CURVE SMOOTH",
"238 319 LINE SMOOTH",
"238 422 OFFCURVE",
"235 546 OFFCURVE",
"140 546 CURVE SMOOTH",
"42 546 OFFCURVE",
"39 405 OFFCURVE",
"39 335 CURVE",
"45 333 OFFCURVE",
"48 332 OFFCURVE",
"57 332 CURVE SMOOTH",
"67 332 OFFCURVE",
"71 334 OFFCURVE",
"78 336 CURVE",
"80 410 OFFCURVE",
"80 463 OFFCURVE",
"141 463 CURVE SMOOTH",
"187 463 OFFCURVE",
"199 424 OFFCURVE",
"199 322 CURVE SMOOTH",
"199 235 LINE SMOOTH",
"199 62 OFFCURVE",
"233 -10 OFFCURVE",
"322 -10 CURVE SMOOTH",
"408 -10 OFFCURVE",
"395 91 OFFCURVE",
"473 91 CURVE SMOOTH",
"550 91 OFFCURVE",
"537 -10 OFFCURVE",
"624 -10 CURVE SMOOTH",
"712 -10 OFFCURVE",
"746 62 OFFCURVE",
"746 235 CURVE SMOOTH",
"746 273 LINE SMOOTH",
"746 343 OFFCURVE",
"733 405 OFFCURVE",
"671 456 CURVE",
"681 460 OFFCURVE",
"700 463 OFFCURVE",
"710 463 CURVE SMOOTH",
"765 463 OFFCURVE",
"818 426 OFFCURVE",
"818 306 CURVE SMOOTH",
"818 0 LINE",
"857 0 LINE",
"857 310 LINE SMOOTH",
"857 443 OFFCURVE",
"815 546 OFFCURVE",
"692 546 CURVE SMOOTH"
);
}
);
width = 920;
}
);
note = uni1B25;
unicode = 1B25;
},
{
glyphname = uni1B26;
lastChange = "2017-10-19 13:19:07 +0000";
layers = (
{
layerId = "3BC433F7-38BC-4C75-8B4E-78FBECB68114";
paths = (
{
closed = 1;
nodes = (
"241 -10 OFFCURVE",
"262 79 OFFCURVE",
"262 182 CURVE SMOOTH",
"262 212 LINE",
"282 214 OFFCURVE",
"299 214 OFFCURVE",
"317 214 CURVE",
"317 202 LINE SMOOTH",
"317 69 OFFCURVE",
"431 -10 OFFCURVE",
"522 -10 CURVE SMOOTH",
"584 -10 OFFCURVE",
"655 19 OFFCURVE",
"655 99 CURVE SMOOTH",
"655 239 OFFCURVE",
"502 289 OFFCURVE",
"356 297 CURVE",
"356 311 LINE SMOOTH",
"356 448 OFFCURVE",
"465 463 OFFCURVE",
"557 463 CURVE SMOOTH",
"695 463 OFFCURVE",
"752 411 OFFCURVE",
"752 299 CURVE SMOOTH",
"752 0 LINE",
"791 0 LINE",
"791 300 LINE SMOOTH",
"791 467 OFFCURVE",
"703 546 OFFCURVE",
"556 546 CURVE SMOOTH",
"418 546 OFFCURVE",
"317 473 OFFCURVE",
"317 319 CURVE SMOOTH",
"317 298 LINE",
"292 298 OFFCURVE",
"277 297 OFFCURVE",
"262 294 CURVE",
"262 319 LINE SMOOTH",
"262 422 OFFCURVE",
"255 546 OFFCURVE",
"156 546 CURVE SMOOTH",
"42 546 OFFCURVE",
"39 405 OFFCURVE",
"39 335 CURVE",
"45 333 OFFCURVE",
"48 332 OFFCURVE",
"57 332 CURVE SMOOTH",
"67 332 OFFCURVE",
"71 334 OFFCURVE",
"78 336 CURVE",
"80 410 OFFCURVE",
"87 463 OFFCURVE",
"151 463 CURVE SMOOTH",
"197 463 OFFCURVE",
"223 424 OFFCURVE",
"223 322 CURVE SMOOTH",
"223 286 LINE",
"137 261 OFFCURVE",
"68 196 OFFCURVE",
"68 92 CURVE SMOOTH",
"68 42 OFFCURVE",
"98 -10 OFFCURVE",
"153 -10 CURVE SMOOTH"
);
},
{
closed = 1;
nodes = (
"130 39 OFFCURVE",
"112 56 OFFCURVE",
"112 98 CURVE SMOOTH",
"112 155 OFFCURVE",
"158 190 OFFCURVE",
"223 206 CURVE",
"223 178 LINE SMOOTH",
"223 76 OFFCURVE",
"195 39 OFFCURVE",
"155 39 CURVE SMOOTH"
);
},
{
closed = 1;
nodes = (
"462 39 OFFCURVE",
"356 83 OFFCURVE",
"356 199 CURVE SMOOTH",
"356 213 LINE",
"476 206 OFFCURVE",
"606 165 OFFCURVE",
"606 85 CURVE SMOOTH",
"606 52 OFFCURVE",
"564 39 OFFCURVE",
"527 39 CURVE SMOOTH"
);
}
);
width = 854;
}
);
note = uni1B26;
unicode = 1B26;
},
{
glyphname = uni1B27;
lastChange = "2017-10-19 13:19:07 +0000";
layers = (
{
layerId = "3BC433F7-38BC-4C75-8B4E-78FBECB68114";
paths = (
{
closed = 1;
nodes = (
"537 -10 OFFCURVE",
"619 62 OFFCURVE",
"619 235 CURVE SMOOTH",
"619 454 LINE",
"632 454 LINE SMOOTH",
"678 454 OFFCURVE",
"705 408 OFFCURVE",
"705 306 CURVE SMOOTH",
"705 0 LINE",
"744 0 LINE",
"744 310 LINE SMOOTH",
"744 430 OFFCURVE",
"738 537 OFFCURVE",
"603 537 CURVE SMOOTH",
"580 537 LINE",
"580 235 LINE SMOOTH",
"580 106 OFFCURVE",
"510 73 OFFCURVE",
"409 73 CURVE SMOOTH",
"281 73 OFFCURVE",
"238 125 OFFCURVE",
"238 237 CURVE SMOOTH",
"238 319 LINE SMOOTH",
"238 422 OFFCURVE",
"235 546 OFFCURVE",
"140 546 CURVE SMOOTH",
"42 546 OFFCURVE",
"39 405 OFFCURVE",
"39 335 CURVE",
"45 333 OFFCURVE",
"48 332 OFFCURVE",
"57 332 CURVE SMOOTH",
"67 332 OFFCURVE",
"71 334 OFFCURVE",
"78 336 CURVE",
"80 410 OFFCURVE",
"80 463 OFFCURVE",
"141 463 CURVE SMOOTH",
"187 463 OFFCURVE",
"199 424 OFFCURVE",
"199 322 CURVE SMOOTH",
"199 227 LINE SMOOTH",
"199 66 OFFCURVE",
"275 -10 OFFCURVE",
"410 -10 CURVE SMOOTH"
);
}
);
width = 807;
}
);
note = uni1B27;
unicode = 1B27;
},
{
glyphname = uni1B28;
lastChange = "2017-10-19 13:19:07 +0000";
layers = (
{
layerId = "3BC433F7-38BC-4C75-8B4E-78FBECB68114";
paths = (
{
closed = 1;
nodes = (
"724 549 OFFCURVE",
"654 523 OFFCURVE",
"619 523 CURVE",
"617 609 OFFCURVE",
"578 698 OFFCURVE",
"508 698 CURVE SMOOTH",
"453 698 OFFCURVE",
"425 659 OFFCURVE",
"425 608 CURVE SMOOTH",
"425 496 OFFCURVE",
"515 450 OFFCURVE",
"580 441 CURVE",
"580 235 LINE SMOOTH",
"580 106 OFFCURVE",
"510 73 OFFCURVE",
"409 73 CURVE SMOOTH",
"281 73 OFFCURVE",
"238 125 OFFCURVE",
"238 237 CURVE SMOOTH",
"238 319 LINE SMOOTH",
"238 422 OFFCURVE",
"235 546 OFFCURVE",
"140 546 CURVE SMOOTH",
"42 546 OFFCURVE",
"39 405 OFFCURVE",
"39 335 CURVE",
"45 333 OFFCURVE",
"48 332 OFFCURVE",
"57 332 CURVE SMOOTH",
"67 332 OFFCURVE",
"71 334 OFFCURVE",
"78 336 CURVE",
"80 410 OFFCURVE",
"80 463 OFFCURVE",
"141 463 CURVE SMOOTH",
"187 463 OFFCURVE",
"199 424 OFFCURVE",
"199 322 CURVE SMOOTH",
"199 227 LINE SMOOTH",
"199 66 OFFCURVE",
"275 -10 OFFCURVE",
"410 -10 CURVE SMOOTH",
"537 -10 OFFCURVE",
"619 62 OFFCURVE",
"619 235 CURVE SMOOTH",
"619 440 LINE",
"670 442 OFFCURVE",
"754 480 OFFCURVE",
"765 625 CURVE",
"731 646 LINE"
);
},
{
closed = 1;
nodes = (
"469 637 OFFCURVE",
"484 649 OFFCURVE",
"510 649 CURVE SMOOTH",
"548 649 OFFCURVE",
"578 591 OFFCURVE",
"580 523 CURVE",
"518 528 OFFCURVE",
"469 555 OFFCURVE",
"469 609 CURVE SMOOTH"
);
}
);
width = 765;
}
);
note = uni1B28;
unicode = 1B28;
},
{
glyphname = uni1B29;
lastChange = "2017-10-19 13:19:07 +0000";
layers = (
{
layerId = "3BC433F7-38BC-4C75-8B4E-78FBECB68114";
paths = (
{
closed = 1;
nodes = (
"361 0 LINE",
"361 301 LINE SMOOTH",
"361 430 OFFCURVE",
"405 463 OFFCURVE",
"474 463 CURVE SMOOTH",
"532 463 OFFCURVE",
"579 411 OFFCURVE",
"579 358 CURVE",
"613 358 LINE",
"619 428 OFFCURVE",
"668 463 OFFCURVE",
"718 463 CURVE SMOOTH",
"787 463 OFFCURVE",
"830 430 OFFCURVE",
"830 301 CURVE SMOOTH",
"830 0 LINE",
"853 0 LINE SMOOTH",
"988 0 OFFCURVE",
"992 107 OFFCURVE",
"992 227 CURVE SMOOTH",
"992 454 LINE",
"1005 454 LINE SMOOTH",
"1051 454 OFFCURVE",
"1078 408 OFFCURVE",
"1078 306 CURVE SMOOTH",
"1078 0 LINE",
"1117 0 LINE",
"1117 310 LINE SMOOTH",
"1117 430 OFFCURVE",
"1111 537 OFFCURVE",
"976 537 CURVE SMOOTH",
"953 537 LINE",
"953 204 LINE SMOOTH",
"953 121 OFFCURVE",
"924 83 OFFCURVE",
"882 83 CURVE SMOOTH",
"869 83 LINE",
"869 301 LINE SMOOTH",
"869 474 OFFCURVE",
"831 546 OFFCURVE",
"718 546 CURVE SMOOTH",
"655 546 OFFCURVE",
"617 510 OFFCURVE",
"596 445 CURVE",
"575 510 OFFCURVE",
"536 546 OFFCURVE",
"474 546 CURVE SMOOTH",
"361 546 OFFCURVE",
"322 474 OFFCURVE",
"322 301 CURVE SMOOTH",
"322 83 LINE",
"310 83 LINE SMOOTH",
"268 83 OFFCURVE",
"238 121 OFFCURVE",
"238 204 CURVE SMOOTH",
"238 319 LINE SMOOTH",
"238 422 OFFCURVE",
"235 546 OFFCURVE",
"140 546 CURVE SMOOTH",
"42 546 OFFCURVE",
"39 405 OFFCURVE",
"39 335 CURVE",
"45 333 OFFCURVE",
"48 332 OFFCURVE",
"57 332 CURVE SMOOTH",
"67 332 OFFCURVE",
"71 334 OFFCURVE",
"78 336 CURVE",
"80 410 OFFCURVE",
"80 463 OFFCURVE",
"141 463 CURVE SMOOTH",
"187 463 OFFCURVE",
"199 424 OFFCURVE",
"199 322 CURVE SMOOTH",
"199 227 LINE SMOOTH",
"199 107 OFFCURVE",
"203 0 OFFCURVE",
"338 0 CURVE SMOOTH"
);
}
);
width = 1180;
}
);
note = uni1B29;
unicode = 1B29;
},
{
glyphname = uni1B2A;
lastChange = "2017-10-19 13:19:07 +0000";
layers = (
{
layerId = "3BC433F7-38BC-4C75-8B4E-78FBECB68114";
paths = (
{
closed = 1;
nodes = (
"259 -10 OFFCURVE",
"335 91 OFFCURVE",
"404 140 CURVE",
"412 53 OFFCURVE",
"452 -10 OFFCURVE",
"530 -10 CURVE SMOOTH",
"585 -10 OFFCURVE",
"616 42 OFFCURVE",
"616 92 CURVE SMOOTH",
"616 205 OFFCURVE",
"539 249 OFFCURVE",
"470 249 CURVE SMOOTH",
"460 249 OFFCURVE",
"451 248 OFFCURVE",
"442 246 CURVE",
"442 301 LINE SMOOTH",
"442 430 OFFCURVE",
"522 463 OFFCURVE",
"632 463 CURVE SMOOTH",
"770 463 OFFCURVE",
"823 411 OFFCURVE",
"823 299 CURVE SMOOTH",
"823 0 LINE",
"862 0 LINE",
"862 300 LINE SMOOTH",
"862 467 OFFCURVE",
"779 546 OFFCURVE",
"632 546 CURVE SMOOTH",
"495 546 OFFCURVE",
"403 474 OFFCURVE",
"403 301 CURVE SMOOTH",
"403 231 LINE",
"316 187 OFFCURVE",
"257 73 OFFCURVE",
"162 73 CURVE SMOOTH",
"124 73 OFFCURVE",
"103 94 OFFCURVE",
"103 125 CURVE SMOOTH",
"103 144 OFFCURVE",
"115 162 OFFCURVE",
"125 176 CURVE",
"95 198 LINE",
"74 173 OFFCURVE",
"59 142 OFFCURVE",
"59 110 CURVE SMOOTH",
"59 43 OFFCURVE",
"110 -10 OFFCURVE",
"178 -10 CURVE SMOOTH"
);
},
{
closed = 1;
nodes = (
"246 276 LINE",
"242 318 LINE SMOOTH",
"232 421 OFFCURVE",
"233 546 OFFCURVE",
"151 546 CURVE SMOOTH",
"40 546 OFFCURVE",
"39 405 OFFCURVE",
"39 335 CURVE",
"45 333 OFFCURVE",
"48 332 OFFCURVE",
"57 332 CURVE SMOOTH",
"67 332 OFFCURVE",
"71 334 OFFCURVE",
"78 336 CURVE",
"80 410 OFFCURVE",
"82 463 OFFCURVE",
"146 463 CURVE SMOOTH",
"184 463 OFFCURVE",
"194 423 OFFCURVE",
"203 322 CURVE SMOOTH",
"207 273 LINE"
);
},
{
closed = 1;
nodes = (
"490 39 OFFCURVE",
"444 64 OFFCURVE",
"442 159 CURVE",
"453 163 OFFCURVE",
"464 166 OFFCURVE",
"477 166 CURVE SMOOTH",
"522 166 OFFCURVE",
"572 146 OFFCURVE",
"572 85 CURVE SMOOTH",
"572 63 OFFCURVE",
"554 39 OFFCURVE",
"528 39 CURVE SMOOTH"
);
}
);
width = 925;
}
);
note = uni1B2A;
unicode = 1B2A;
},
{
glyphname = uni1B2B;
lastChange = "2017-10-19 13:19:07 +0000";
layers = (
{
layerId = "3BC433F7-38BC-4C75-8B4E-78FBECB68114";
paths = (
{
closed = 1;
nodes = (
"556 -10 OFFCURVE",
"666 49 OFFCURVE",
"666 235 CURVE SMOOTH",
"666 454 LINE",
"679 454 LINE SMOOTH",
"725 454 OFFCURVE",
"751 408 OFFCURVE",
"751 306 CURVE SMOOTH",
"751 0 LINE",
"791 0 LINE",
"791 310 LINE SMOOTH",
"791 430 OFFCURVE",
"785 537 OFFCURVE",
"650 537 CURVE SMOOTH",
"627 537 LINE",
"627 235 LINE SMOOTH",
"627 88 OFFCURVE",
"525 73 OFFCURVE",
"406 73 CURVE SMOOTH",
"299 73 OFFCURVE",
"217 102 OFFCURVE",
"217 166 CURVE SMOOTH",
"217 227 OFFCURVE",
"299 257 OFFCURVE",
"378 257 CURVE SMOOTH",
"434 257 LINE",
"434 295 LINE",
"378 295 LINE SMOOTH",
"299 295 OFFCURVE",
"217 323 OFFCURVE",
"217 384 CURVE SMOOTH",
"217 442 OFFCURVE",
"299 463 OFFCURVE",
"392 463 CURVE SMOOTH",
"432 463 OFFCURVE",
"472 462 OFFCURVE",
"506 456 CURVE",
"514 531 LINE",
"477 542 OFFCURVE",
"434 546 OFFCURVE",
"392 546 CURVE SMOOTH",
"258 546 OFFCURVE",
"49 516 OFFCURVE",
"49 343 CURVE SMOOTH",
"49 305 OFFCURVE",
"55 267 OFFCURVE",
"67 230 CURVE",
"112 249 LINE",
"102 279 OFFCURVE",
"98 312 OFFCURVE",
"98 347 CURVE SMOOTH",
"98 416 OFFCURVE",
"146 456 OFFCURVE",
"203 479 CURVE",
"180 453 OFFCURVE",
"168 422 OFFCURVE",
"168 391 CURVE SMOOTH",
"168 344 OFFCURVE",
"189 302 OFFCURVE",
"253 277 CURVE",
"189 253 OFFCURVE",
"168 206 OFFCURVE",
"168 159 CURVE SMOOTH",
"168 71 OFFCURVE",
"236 -10 OFFCURVE",
"408 -10 CURVE SMOOTH"
);
}
);
width = 854;
}
);
note = uni1B2B;
unicode = 1B2B;
},
{
glyphname = uni1B2C;
lastChange = "2017-10-19 13:19:07 +0000";
layers = (
{
layerId = "3BC433F7-38BC-4C75-8B4E-78FBECB68114";
paths = (
{
closed = 1;
nodes = (
"414 -10 OFFCURVE",
"458 70 OFFCURVE",
"479 189 CURVE",
"501 70 OFFCURVE",
"544 -10 OFFCURVE",
"626 -10 CURVE SMOOTH",
"694 -10 OFFCURVE",
"756 41 OFFCURVE",
"756 200 CURVE SMOOTH",
"756 454 LINE",
"779 454 LINE SMOOTH",
"825 454 OFFCURVE",
"856 408 OFFCURVE",
"856 306 CURVE SMOOTH",
"856 0 LINE",
"896 0 LINE",
"896 310 LINE SMOOTH",
"896 430 OFFCURVE",
"885 537 OFFCURVE",
"750 537 CURVE SMOOTH",
"717 537 LINE",
"717 214 LINE SMOOTH",
"717 124 OFFCURVE",
"691 73 OFFCURVE",
"624 73 CURVE SMOOTH",
"506 73 OFFCURVE",
"501 354 OFFCURVE",
"500 493 CURVE",
"459 493 LINE",
"458 368 OFFCURVE",
"456 73 OFFCURVE",
"335 73 CURVE SMOOTH",
"268 73 OFFCURVE",
"242 124 OFFCURVE",
"242 214 CURVE SMOOTH",
"242 318 LINE SMOOTH",
"242 421 OFFCURVE",
"233 546 OFFCURVE",
"151 546 CURVE SMOOTH",
"40 546 OFFCURVE",
"39 405 OFFCURVE",
"39 335 CURVE",
"45 333 OFFCURVE",
"48 332 OFFCURVE",
"57 332 CURVE SMOOTH",
"67 332 OFFCURVE",
"71 334 OFFCURVE",
"78 336 CURVE",
"80 410 OFFCURVE",
"82 463 OFFCURVE",
"146 463 CURVE SMOOTH",
"184 463 OFFCURVE",
"203 424 OFFCURVE",
"203 322 CURVE SMOOTH",
"203 200 LINE SMOOTH",
"203 41 OFFCURVE",
"265 -10 OFFCURVE",
"333 -10 CURVE SMOOTH"
);
}
);
width = 959;
}
);
note = uni1B2C;
unicode = 1B2C;
},
{
glyphname = uni1B2D;
lastChange = "2017-10-19 13:19:07 +0000";
layers = (
{
layerId = "3BC433F7-38BC-4C75-8B4E-78FBECB68114";
paths = (
{
closed = 1;
nodes = (
"222 0 LINE SMOOTH",
"357 0 OFFCURVE",
"361 107 OFFCURVE",
"361 227 CURVE SMOOTH",
"361 301 LINE SMOOTH",
"361 430 OFFCURVE",
"441 463 OFFCURVE",
"552 463 CURVE SMOOTH",
"689 463 OFFCURVE",
"742 411 OFFCURVE",
"742 299 CURVE SMOOTH",
"742 0 LINE",
"781 0 LINE",
"781 300 LINE SMOOTH",
"781 467 OFFCURVE",
"698 546 OFFCURVE",
"551 546 CURVE SMOOTH",
"414 546 OFFCURVE",
"322 474 OFFCURVE",
"322 301 CURVE SMOOTH",
"322 204 LINE SMOOTH",
"322 121 OFFCURVE",
"293 83 OFFCURVE",
"251 83 CURVE SMOOTH",
"238 83 LINE",
"238 319 LINE SMOOTH",
"238 422 OFFCURVE",
"235 546 OFFCURVE",
"140 546 CURVE SMOOTH",
"42 546 OFFCURVE",
"39 405 OFFCURVE",
"39 335 CURVE",
"45 333 OFFCURVE",
"48 332 OFFCURVE",
"57 332 CURVE SMOOTH",
"67 332 OFFCURVE",
"71 334 OFFCURVE",
"78 336 CURVE",
"80 410 OFFCURVE",
"80 463 OFFCURVE",
"141 463 CURVE SMOOTH",
"187 463 OFFCURVE",
"199 424 OFFCURVE",
"199 322 CURVE SMOOTH",
"199 0 LINE"
);
}
);
width = 845;
}
);
note = uni1B2D;
unicode = 1B2D;
},
{
glyphname = uni1B2E;
lastChange = "2017-10-19 13:19:07 +0000";
layers = (
{
layerId = "3BC433F7-38BC-4C75-8B4E-78FBECB68114";
paths = (
{
closed = 1;
nodes = (
"348 -10 OFFCURVE",
"361 59 OFFCURVE",
"361 166 CURVE SMOOTH",
"361 301 LINE SMOOTH",
"361 430 OFFCURVE",
"388 463 OFFCURVE",
"488 463 CURVE SMOOTH",
"592 463 OFFCURVE",
"615 411 OFFCURVE",
"615 299 CURVE SMOOTH",
"615 227 LINE SMOOTH",
"615 66 OFFCURVE",
"691 -10 OFFCURVE",
"826 -10 CURVE SMOOTH",
"953 -10 OFFCURVE",
"1035 62 OFFCURVE",
"1035 235 CURVE SMOOTH",
"1035 454 LINE",
"1048 454 LINE SMOOTH",
"1094 454 OFFCURVE",
"1121 408 OFFCURVE",
"1121 306 CURVE SMOOTH",
"1121 0 LINE",
"1160 0 LINE",
"1160 310 LINE SMOOTH",
"1160 430 OFFCURVE",
"1154 537 OFFCURVE",
"1019 537 CURVE SMOOTH",
"996 537 LINE",
"996 235 LINE SMOOTH",
"996 106 OFFCURVE",
"926 73 OFFCURVE",
"825 73 CURVE SMOOTH",
"697 73 OFFCURVE",
"654 125 OFFCURVE",
"654 237 CURVE SMOOTH",
"654 300 LINE SMOOTH",
"654 467 OFFCURVE",
"615 546 OFFCURVE",
"488 546 CURVE SMOOTH",
"365 546 OFFCURVE",
"322 474 OFFCURVE",
"322 301 CURVE SMOOTH",
"322 167 LINE SMOOTH",
"322 101 OFFCURVE",
"312 63 OFFCURVE",
"287 63 CURVE SMOOTH",
"247 63 OFFCURVE",
"238 88 OFFCURVE",
"238 178 CURVE SMOOTH",
"238 319 LINE SMOOTH",
"238 422 OFFCURVE",
"235 546 OFFCURVE",
"140 546 CURVE SMOOTH",
"42 546 OFFCURVE",
"39 405 OFFCURVE",
"39 335 CURVE",
"45 333 OFFCURVE",
"48 332 OFFCURVE",
"57 332 CURVE SMOOTH",
"67 332 OFFCURVE",
"71 334 OFFCURVE",
"78 336 CURVE",
"80 410 OFFCURVE",
"80 463 OFFCURVE",
"141 463 CURVE SMOOTH",
"187 463 OFFCURVE",
"199 424 OFFCURVE",
"199 322 CURVE SMOOTH",
"199 158 LINE SMOOTH",
"199 77 OFFCURVE",
"204 -10 OFFCURVE",
"285 -10 CURVE SMOOTH"
);
}
);
width = 1223;
}
);
note = uni1B2E;
unicode = 1B2E;
},
{
glyphname = uni1B2F;
lastChange = "2017-10-19 13:19:07 +0000";
layers = (
{
layerId = "3BC433F7-38BC-4C75-8B4E-78FBECB68114";
paths = (
{
closed = 1;
nodes = (
"537 -10 OFFCURVE",
"619 62 OFFCURVE",
"619 235 CURVE SMOOTH",
"619 273 LINE SMOOTH",
"619 343 OFFCURVE",
"606 405 OFFCURVE",
"544 456 CURVE",
"554 460 OFFCURVE",
"573 463 OFFCURVE",
"583 463 CURVE SMOOTH",
"638 463 OFFCURVE",
"691 426 OFFCURVE",
"691 306 CURVE SMOOTH",
"691 0 LINE",
"730 0 LINE",
"730 310 LINE SMOOTH",
"730 443 OFFCURVE",
"688 546 OFFCURVE",
"565 546 CURVE SMOOTH",
"498 546 OFFCURVE",
"455 508 OFFCURVE",
"430 454 CURVE",
"546 454 OFFCURVE",
"580 337 OFFCURVE",
"580 261 CURVE SMOOTH",
"580 235 LINE SMOOTH",
"580 106 OFFCURVE",
"510 73 OFFCURVE",
"409 73 CURVE SMOOTH",
"281 73 OFFCURVE",
"238 125 OFFCURVE",
"238 237 CURVE SMOOTH",
"238 319 LINE SMOOTH",
"238 422 OFFCURVE",
"235 546 OFFCURVE",
"140 546 CURVE SMOOTH",
"42 546 OFFCURVE",
"39 405 OFFCURVE",
"39 335 CURVE",
"45 333 OFFCURVE",
"48 332 OFFCURVE",
"57 332 CURVE SMOOTH",
"67 332 OFFCURVE",
"71 334 OFFCURVE",
"78 336 CURVE",
"80 410 OFFCURVE",
"80 463 OFFCURVE",
"141 463 CURVE SMOOTH",
"187 463 OFFCURVE",
"199 424 OFFCURVE",
"199 322 CURVE SMOOTH",
"199 227 LINE SMOOTH",
"199 66 OFFCURVE",
"275 -10 OFFCURVE",
"410 -10 CURVE SMOOTH"
);
}
);
width = 793;
}
);
note = uni1B2F;
unicode = 1B2F;
},
{
glyphname = uni1B30;
lastChange = "2017-10-19 13:19:07 +0000";
layers = (
{
layerId = "3BC433F7-38BC-4C75-8B4E-78FBECB68114";
paths = (
{
closed = 1;
nodes = (
"865 537 LINE",
"865 204 LINE SMOOTH",
"865 121 OFFCURVE",
"836 83 OFFCURVE",
"794 83 CURVE SMOOTH",
"781 83 LINE",
"781 300 LINE SMOOTH",
"781 467 OFFCURVE",
"698 546 OFFCURVE",
"551 546 CURVE SMOOTH",
"414 546 OFFCURVE",
"322 474 OFFCURVE",
"322 301 CURVE SMOOTH",
"322 83 LINE",
"310 83 LINE SMOOTH",
"268 83 OFFCURVE",
"238 121 OFFCURVE",
"238 204 CURVE SMOOTH",
"238 319 LINE SMOOTH",
"238 422 OFFCURVE",
"235 546 OFFCURVE",
"140 546 CURVE SMOOTH",
"42 546 OFFCURVE",
"39 405 OFFCURVE",
"39 335 CURVE",
"45 333 OFFCURVE",
"48 332 OFFCURVE",
"57 332 CURVE SMOOTH",
"67 332 OFFCURVE",
"71 334 OFFCURVE",
"78 336 CURVE",
"80 410 OFFCURVE",
"80 463 OFFCURVE",
"141 463 CURVE SMOOTH",
"187 463 OFFCURVE",
"199 424 OFFCURVE",
"199 322 CURVE SMOOTH",
"199 227 LINE SMOOTH",
"199 107 OFFCURVE",
"203 0 OFFCURVE",
"338 0 CURVE SMOOTH",
"361 0 LINE",
"361 301 LINE SMOOTH",
"361 430 OFFCURVE",
"441 463 OFFCURVE",
"552 463 CURVE SMOOTH",
"689 463 OFFCURVE",
"742 411 OFFCURVE",
"742 299 CURVE SMOOTH",
"742 0 LINE",
"765 0 LINE SMOOTH",
"900 0 OFFCURVE",
"904 107 OFFCURVE",
"904 227 CURVE SMOOTH",
"904 454 LINE",
"917 454 LINE SMOOTH",
"963 454 OFFCURVE",
"990 408 OFFCURVE",
"990 306 CURVE SMOOTH",
"990 0 LINE",
"1029 0 LINE",
"1029 310 LINE SMOOTH",
"1029 430 OFFCURVE",
"1023 537 OFFCURVE",
"888 537 CURVE SMOOTH"
);
},
{
closed = 1;
nodes = (
"480 332 OFFCURVE",
"446 274 OFFCURVE",
"437 214 CURVE",
"468 204 LINE",
"475 232 OFFCURVE",
"491 249 OFFCURVE",
"512 249 CURVE SMOOTH",
"551 249 OFFCURVE",
"568 209 OFFCURVE",
"583 108 CURVE SMOOTH",
"603 -25 LINE",
"642 -15 LINE",
"616 145 LINE SMOOTH",
"599 247 OFFCURVE",
"580 332 OFFCURVE",
"523 332 CURVE SMOOTH"
);
}
);
width = 1092;
}
);
note = uni1B30;
unicode = 1B30;
},
{
glyphname = uni1B31;
lastChange = "2017-10-19 13:19:07 +0000";
layers = (
{
layerId = "3BC433F7-38BC-4C75-8B4E-78FBECB68114";
paths = (
{
closed = 1;
nodes = (
"580 537 LINE",
"580 235 LINE SMOOTH",
"580 167 OFFCURVE",
"561 126 OFFCURVE",
"527 102 CURVE",
"493 187 LINE SMOOTH",
"458 275 OFFCURVE",
"420 348 OFFCURVE",
"371 348 CURVE SMOOTH",
"316 348 OFFCURVE",
"303 251 OFFCURVE",
"303 212 CURVE",
"335 209 LINE",
"336 238 OFFCURVE",
"349 265 OFFCURVE",
"378 265 CURVE SMOOTH",
"410 265 OFFCURVE",
"435 228 OFFCURVE",
"469 143 CURVE SMOOTH",
"493 84 LINE",
"468 76 OFFCURVE",
"440 73 OFFCURVE",
"409 73 CURVE SMOOTH",
"281 73 OFFCURVE",
"238 125 OFFCURVE",
"238 237 CURVE SMOOTH",
"238 319 LINE SMOOTH",
"238 422 OFFCURVE",
"235 546 OFFCURVE",
"140 546 CURVE SMOOTH",
"42 546 OFFCURVE",
"39 405 OFFCURVE",
"39 335 CURVE",
"45 333 OFFCURVE",
"48 332 OFFCURVE",
"57 332 CURVE SMOOTH",
"67 332 OFFCURVE",
"71 334 OFFCURVE",
"78 336 CURVE",
"80 410 OFFCURVE",
"80 463 OFFCURVE",
"141 463 CURVE SMOOTH",
"187 463 OFFCURVE",
"199 424 OFFCURVE",
"199 322 CURVE SMOOTH",
"199 227 LINE SMOOTH",
"199 66 OFFCURVE",
"275 -10 OFFCURVE",
"410 -10 CURVE SMOOTH",
"452 -10 OFFCURVE",
"490 -2 OFFCURVE",
"521 15 CURVE",
"552 -63 LINE",
"587 -45 LINE",
"553 39 LINE",
"595 78 OFFCURVE",
"619 142 OFFCURVE",
"619 235 CURVE SMOOTH",
"619 454 LINE",
"632 454 LINE SMOOTH",
"678 454 OFFCURVE",
"705 408 OFFCURVE",
"705 306 CURVE SMOOTH",
"705 0 LINE",
"744 0 LINE",
"744 310 LINE SMOOTH",
"744 430 OFFCURVE",
"738 537 OFFCURVE",
"603 537 CURVE SMOOTH"
);
}
);
width = 807;
}
);
note = uni1B31;
unicode = 1B31;
},
{
glyphname = uni1B32;
lastChange = "2017-10-19 13:19:07 +0000";
layers = (
{
layerId = "3BC433F7-38BC-4C75-8B4E-78FBECB68114";
paths = (
{
closed = 1;
nodes = (
"581 537 LINE",
"581 232 LINE SMOOTH",
"581 151 OFFCURVE",
"572 73 OFFCURVE",
"500 73 CURVE SMOOTH",
"443 73 OFFCURVE",
"380 248 OFFCURVE",
"262 275 CURVE",
"262 319 LINE SMOOTH",
"262 422 OFFCURVE",
"255 546 OFFCURVE",
"156 546 CURVE SMOOTH",
"42 546 OFFCURVE",
"39 405 OFFCURVE",
"39 335 CURVE",
"45 333 OFFCURVE",
"48 332 OFFCURVE",
"57 332 CURVE SMOOTH",
"67 332 OFFCURVE",
"71 334 OFFCURVE",
"78 336 CURVE",
"80 410 OFFCURVE",
"87 463 OFFCURVE",
"151 463 CURVE SMOOTH",
"197 463 OFFCURVE",
"223 424 OFFCURVE",
"223 322 CURVE SMOOTH",
"223 278 LINE",
"156 274 OFFCURVE",
"68 224 OFFCURVE",
"68 92 CURVE SMOOTH",
"68 42 OFFCURVE",
"98 -10 OFFCURVE",
"153 -10 CURVE SMOOTH",
"241 -10 OFFCURVE",
"262 79 OFFCURVE",
"262 182 CURVE SMOOTH",
"262 189 LINE",
"359 146 OFFCURVE",
"395 -10 OFFCURVE",
"501 -10 CURVE SMOOTH",
"597 -10 OFFCURVE",
"620 93 OFFCURVE",
"620 208 CURVE SMOOTH",
"620 454 LINE",
"633 454 LINE SMOOTH",
"679 454 OFFCURVE",
"706 408 OFFCURVE",
"706 306 CURVE SMOOTH",
"706 0 LINE",
"745 0 LINE",
"745 310 LINE SMOOTH",
"745 430 OFFCURVE",
"739 537 OFFCURVE",
"604 537 CURVE SMOOTH"
);
},
{
closed = 1;
nodes = (
"130 39 OFFCURVE",
"112 56 OFFCURVE",
"112 98 CURVE SMOOTH",
"112 175 OFFCURVE",
"168 194 OFFCURVE",
"223 195 CURVE",
"223 178 LINE SMOOTH",
"223 76 OFFCURVE",
"195 39 OFFCURVE",
"155 39 CURVE SMOOTH"
);
}
);
width = 808;
}
);
note = uni1B32;
unicode = 1B32;
},
{
glyphname = uni1B33;
lastChange = "2017-10-19 13:19:07 +0000";
layers = (
{
layerId = "3BC433F7-38BC-4C75-8B4E-78FBECB68114";
paths = (
{
closed = 1;
nodes = (
"543 -10 OFFCURVE",
"619 66 OFFCURVE",
"619 227 CURVE SMOOTH",
"619 299 LINE SMOOTH",
"619 411 OFFCURVE",
"643 463 OFFCURVE",
"746 463 CURVE SMOOTH",
"847 463 OFFCURVE",
"873 430 OFFCURVE",
"873 301 CURVE SMOOTH",
"873 162 LINE SMOOTH",
"873 81 OFFCURVE",
"877 -10 OFFCURVE",
"959 -10 CURVE SMOOTH",
"1021 -10 OFFCURVE",
"1035 59 OFFCURVE",
"1035 166 CURVE SMOOTH",
"1035 454 LINE",
"1048 454 LINE SMOOTH",
"1094 454 OFFCURVE",
"1121 408 OFFCURVE",
"1121 306 CURVE SMOOTH",
"1121 0 LINE",
"1160 0 LINE",
"1160 310 LINE SMOOTH",
"1160 430 OFFCURVE",
"1154 537 OFFCURVE",
"1019 537 CURVE SMOOTH",
"996 537 LINE",
"996 167 LINE SMOOTH",
"996 101 OFFCURVE",
"986 63 OFFCURVE",
"960 63 CURVE SMOOTH",
"921 63 OFFCURVE",
"912 88 OFFCURVE",
"912 178 CURVE SMOOTH",
"912 301 LINE SMOOTH",
"912 474 OFFCURVE",
"869 546 OFFCURVE",
"747 546 CURVE SMOOTH",
"619 546 OFFCURVE",
"580 467 OFFCURVE",
"580 300 CURVE SMOOTH",
"580 237 LINE SMOOTH",
"580 125 OFFCURVE",
"537 73 OFFCURVE",
"409 73 CURVE SMOOTH",
"309 73 OFFCURVE",
"238 106 OFFCURVE",
"238 235 CURVE SMOOTH",
"238 319 LINE SMOOTH",
"238 422 OFFCURVE",
"235 546 OFFCURVE",
"140 546 CURVE SMOOTH",
"42 546 OFFCURVE",
"39 405 OFFCURVE",
"39 335 CURVE",
"45 333 OFFCURVE",
"48 332 OFFCURVE",
"57 332 CURVE SMOOTH",
"67 332 OFFCURVE",
"71 334 OFFCURVE",
"78 336 CURVE",
"80 410 OFFCURVE",
"80 463 OFFCURVE",
"141 463 CURVE SMOOTH",
"187 463 OFFCURVE",
"199 424 OFFCURVE",
"199 322 CURVE SMOOTH",
"199 235 LINE SMOOTH",
"199 62 OFFCURVE",
"281 -10 OFFCURVE",
"409 -10 CURVE SMOOTH"
);
}
);
width = 1223;
}
);
note = uni1B33;
unicode = 1B33;
},
{
glyphname = uni1B34;
lastChange = "2017-10-19 13:19:44 +0000";
layers = (
{
layerId = "3BC433F7-38BC-4C75-8B4E-78FBECB68114";
paths = (
{
closed = 1;
nodes = (
"-193 780 OFFCURVE",
"-166 809 OFFCURVE",
"-166 842 CURVE SMOOTH",
"-166 876 OFFCURVE",
"-193 905 OFFCURVE",
"-228 905 CURVE SMOOTH",
"-262 905 OFFCURVE",
"-290 876 OFFCURVE",
"-290 842 CURVE SMOOTH",
"-290 809 OFFCURVE",
"-262 780 OFFCURVE",
"-228 780 CURVE SMOOTH"
);
},
{
closed = 1;
nodes = (
"-310 620 OFFCURVE",
"-282 648 OFFCURVE",
"-282 683 CURVE SMOOTH",
"-282 717 OFFCURVE",
"-310 745 OFFCURVE",
"-344 745 CURVE SMOOTH",
"-378 745 OFFCURVE",
"-406 717 OFFCURVE",
"-406 683 CURVE SMOOTH",
"-406 648 OFFCURVE",
"-378 620 OFFCURVE",
"-344 620 CURVE SMOOTH"
);
},
{
closed = 1;
nodes = (
"-77 620 OFFCURVE",
"-49 648 OFFCURVE",
"-49 683 CURVE SMOOTH",
"-49 717 OFFCURVE",
"-77 745 OFFCURVE",
"-111 745 CURVE SMOOTH",
"-145 745 OFFCURVE",
"-173 717 OFFCURVE",
"-173 683 CURVE SMOOTH",
"-173 648 OFFCURVE",
"-145 620 OFFCURVE",
"-111 620 CURVE SMOOTH"
);
}
);
width = 0;
}
);
note = uni1B34;
unicode = 1B34;
},
{
glyphname = uni1B35;
lastChange = "2017-10-19 13:12:48 +0000";
layers = (
{
layerId = "3BC433F7-38BC-4C75-8B4E-78FBECB68114";
paths = (
{
closed = 1;
nodes = (
"347 87 OFFCURVE",
"398 207 OFFCURVE",
"398 321 CURVE SMOOTH",
"398 443 OFFCURVE",
"325 546 OFFCURVE",
"189 546 CURVE SMOOTH",
"111 546 OFFCURVE",
"40 497 OFFCURVE",
"0 415 CURVE",
"36 393 LINE",
"62 440 OFFCURVE",
"119 468 OFFCURVE",
"191 468 CURVE SMOOTH",
"294 468 OFFCURVE",
"350 404 OFFCURVE",
"350 318 CURVE SMOOTH",
"350 219 OFFCURVE",
"300 142 OFFCURVE",
"241 142 CURVE SMOOTH",
"215 142 OFFCURVE",
"196 156 OFFCURVE",
"196 184 CURVE SMOOTH",
"196 202 OFFCURVE",
"204 217 OFFCURVE",
"217 230 CURVE",
"184 255 LINE",
"146 223 OFFCURVE",
"131 184 OFFCURVE",
"131 150 CURVE SMOOTH",
"131 107 OFFCURVE",
"181 87 OFFCURVE",
"213 87 CURVE SMOOTH"
);
}
);
width = 447;
}
);
note = uni1B35;
unicode = 1B35;
},
{
glyphname = uni1B36;
lastChange = "2017-10-19 13:19:44 +0000";
layers = (
{
layerId = "3BC433F7-38BC-4C75-8B4E-78FBECB68114";
paths = (
{
closed = 1;
nodes = (
"-104 673 OFFCURVE",
"-83 727 OFFCURVE",
"-83 782 CURVE SMOOTH",
"-83 903 OFFCURVE",
"-152 972 OFFCURVE",
"-273 972 CURVE SMOOTH",
"-398 972 OFFCURVE",
"-467 905 OFFCURVE",
"-467 782 CURVE SMOOTH",
"-467 726 OFFCURVE",
"-446 672 OFFCURVE",
"-404 620 CURVE",
"-379 645 LINE",
"-422 706 OFFCURVE",
"-428 729 OFFCURVE",
"-428 778 CURVE SMOOTH",
"-428 854 OFFCURVE",
"-370 898 OFFCURVE",
"-270 898 CURVE SMOOTH",
"-177 898 OFFCURVE",
"-122 856 OFFCURVE",
"-122 778 CURVE SMOOTH",
"-122 729 OFFCURVE",
"-128 707 OFFCURVE",
"-171 645 CURVE",
"-146 620 LINE"
);
}
);
width = 0;
}
);
note = uni1B36;
unicode = 1B36;
},
{
glyphname = uni1B37;
lastChange = "2017-10-19 13:19:44 +0000";
layers = (
{
layerId = "3BC433F7-38BC-4C75-8B4E-78FBECB68114";
paths = (
{
closed = 1;
nodes = (
"-223 723 OFFCURVE",
"-265 847 OFFCURVE",
"-309 847 CURVE SMOOTH",
"-341 847 OFFCURVE",
"-365 794 OFFCURVE",
"-367 742 CURVE",
"-341 738 LINE",
"-338 767 OFFCURVE",
"-326 781 OFFCURVE",
"-306 781 CURVE SMOOTH",
"-295 781 OFFCURVE",
"-287 776 OFFCURVE",
"-281 768 CURVE SMOOTH",
"-274 759 OFFCURVE",
"-263 733 OFFCURVE",
"-249 693 CURVE",
"-226 642 LINE",
"-195 657 LINE"
);
},
{
closed = 1;
nodes = (
"-104 673 OFFCURVE",
"-83 727 OFFCURVE",
"-83 782 CURVE SMOOTH",
"-83 903 OFFCURVE",
"-152 972 OFFCURVE",
"-273 972 CURVE SMOOTH",
"-398 972 OFFCURVE",
"-467 905 OFFCURVE",
"-467 782 CURVE SMOOTH",
"-467 726 OFFCURVE",
"-446 672 OFFCURVE",
"-404 620 CURVE",
"-379 645 LINE",
"-422 706 OFFCURVE",
"-428 729 OFFCURVE",
"-428 778 CURVE SMOOTH",
"-428 854 OFFCURVE",
"-370 898 OFFCURVE",
"-270 898 CURVE SMOOTH",
"-177 898 OFFCURVE",
"-122 856 OFFCURVE",
"-122 778 CURVE SMOOTH",
"-122 729 OFFCURVE",
"-128 707 OFFCURVE",
"-171 645 CURVE",
"-146 620 LINE"
);
}
);
width = 0;
}
);
note = uni1B37;
unicode = 1B37;
},
{
glyphname = uni1B38;
lastChange = "2017-10-19 13:19:47 +0000";
layers = (
{
layerId = "3BC433F7-38BC-4C75-8B4E-78FBECB68114";
paths = (
{
closed = 1;
nodes = (
"-195 -125 OFFCURVE",
"-226 -195 OFFCURVE",
"-314 -292 CURVE SMOOTH",
"-359 -341 OFFCURVE",
"-381 -386 OFFCURVE",
"-381 -426 CURVE SMOOTH",
"-381 -500 OFFCURVE",
"-339 -546 OFFCURVE",
"-270 -546 CURVE SMOOTH",
"-147 -546 OFFCURVE",
"-63 -375 OFFCURVE",
"-63 -109 CURVE SMOOTH",
"-63 15 LINE",
"-103 15 LINE",
"-103 -109 LINE SMOOTH",
"-103 -175 OFFCURVE",
"-111 -236 OFFCURVE",
"-127 -291 CURVE SMOOTH",
"-160 -401 OFFCURVE",
"-219 -468 OFFCURVE",
"-280 -468 CURVE SMOOTH",
"-318 -468 OFFCURVE",
"-337 -450 OFFCURVE",
"-337 -414 CURVE SMOOTH",
"-337 -386 OFFCURVE",
"-317 -351 OFFCURVE",
"-278 -307 CURVE SMOOTH",
"-200 -220 OFFCURVE",
"-164 -146 OFFCURVE",
"-154 -59 CURVE",
"-182 -46 LINE"
);
}
);
width = 0;
}
);
note = uni1B38;
unicode = 1B38;
},
{
glyphname = uni1B39;
lastChange = "2017-10-19 13:19:47 +0000";
layers = (
{
layerId = "3BC433F7-38BC-4C75-8B4E-78FBECB68114";
paths = (
{
closed = 1;
nodes = (
"-132 -64 OFFCURVE",
"-148 -123 OFFCURVE",
"-148 -164 CURVE SMOOTH",
"-148 -188 OFFCURVE",
"-132 -206 OFFCURVE",
"-86 -229 CURVE SMOOTH",
"-40 -252 OFFCURVE",
"-16 -280 OFFCURVE",
"-16 -315 CURVE SMOOTH",
"-16 -378 OFFCURVE",
"-65 -454 OFFCURVE",
"-153 -524 CURVE",
"-135 -546 LINE",
"-15 -451 OFFCURVE",
"38 -366 OFFCURVE",
"38 -278 CURVE SMOOTH",
"38 -238 OFFCURVE",
"18 -203 OFFCURVE",
"-17 -185 CURVE SMOOTH",
"-52 -167 OFFCURVE",
"-95 -149 OFFCURVE",
"-95 -110 CURVE SMOOTH",
"-95 -82 OFFCURVE",
"-85 -43 OFFCURVE",
"-66 5 CURVE",
"-100 14 LINE"
);
}
);
width = 0;
}
);
note = uni1B39;
unicode = 1B39;
},
{
glyphname = uni1B3A;
lastChange = "2017-10-19 13:19:47 +0000";
layers = (
{
layerId = "3BC433F7-38BC-4C75-8B4E-78FBECB68114";
paths = (
{
closed = 1;
nodes = (
"-103 -300 LINE SMOOTH",
"-103 -363 OFFCURVE",
"-130 -404 OFFCURVE",
"-175 -430 CURVE SMOOTH",
"-188 -438 OFFCURVE",
"-203 -444 OFFCURVE",
"-219 -449 CURVE",
"-250 -383 LINE SMOOTH",
"-285 -307 OFFCURVE",
"-323 -219 OFFCURVE",
"-372 -219 CURVE SMOOTH",
"-419 -219 OFFCURVE",
"-440 -297 OFFCURVE",
"-440 -355 CURVE",
"-408 -358 LINE",
"-408 -332 OFFCURVE",
"-395 -303 OFFCURVE",
"-365 -303 CURVE SMOOTH",
"-328 -303 OFFCURVE",
"-301 -366 OFFCURVE",
"-270 -433 CURVE SMOOTH",
"-258 -459 LINE",
"-287 -464 OFFCURVE",
"-318 -466 OFFCURVE",
"-351 -466 CURVE SMOOTH",
"-445 -466 OFFCURVE",
"-509 -444 OFFCURVE",
"-549 -408 CURVE SMOOTH",
"-589 -372 OFFCURVE",
"-606 -322 OFFCURVE",
"-606 -265 CURVE SMOOTH",
"-606 -213 OFFCURVE",
"-593 -156 OFFCURVE",
"-569 -98 CURVE",
"-603 -82 LINE",
"-634 -146 OFFCURVE",
"-647 -216 OFFCURVE",
"-647 -277 CURVE SMOOTH",
"-647 -353 OFFCURVE",
"-623 -420 OFFCURVE",
"-574 -468 CURVE SMOOTH",
"-524 -517 OFFCURVE",
"-450 -546 OFFCURVE",
"-350 -546 CURVE SMOOTH",
"-304 -546 OFFCURVE",
"-262 -540 OFFCURVE",
"-225 -529 CURVE",
"-195 -595 LINE",
"-160 -576 LINE",
"-188 -515 LINE",
"-171 -507 OFFCURVE",
"-155 -497 OFFCURVE",
"-141 -486 CURVE SMOOTH",
"-91 -446 OFFCURVE",
"-63 -384 OFFCURVE",
"-63 -300 CURVE SMOOTH",
"-63 49 LINE",
"-103 49 LINE"
);
}
);
width = 0;
}
);
note = uni1B3A;
unicode = 1B3A;
},
{
glyphname = uni1B3E;
lastChange = "2017-10-19 13:12:48 +0000";
layers = (
{
layerId = "3BC433F7-38BC-4C75-8B4E-78FBECB68114";
paths = (
{
closed = 1;
nodes = (
"52 332 OFFCURVE",
"59 333 OFFCURVE",
"68 336 CURVE",
"70 413 OFFCURVE",
"132 463 OFFCURVE",
"228 463 CURVE SMOOTH",
"333 463 OFFCURVE",
"386 396 OFFCURVE",
"386 264 CURVE SMOOTH",
"386 152 OFFCURVE",
"369 48 OFFCURVE",
"291 -143 CURVE SMOOTH",
"252 -238 OFFCURVE",
"232 -321 OFFCURVE",
"232 -392 CURVE SMOOTH",
"232 -434 OFFCURVE",
"250 -519 OFFCURVE",
"270 -546 CURVE",
"303 -527 LINE",
"287 -480 OFFCURVE",
"281 -443 OFFCURVE",
"281 -397 CURVE SMOOTH",
"281 -321 OFFCURVE",
"307 -223 OFFCURVE",
"358 -103 CURVE SMOOTH",
"409 18 OFFCURVE",
"435 139 OFFCURVE",
"435 260 CURVE SMOOTH",
"435 444 OFFCURVE",
"360 546 OFFCURVE",
"226 546 CURVE SMOOTH",
"103 546 OFFCURVE",
"29 448 OFFCURVE",
"29 335 CURVE",
"35 334 OFFCURVE",
"41 332 OFFCURVE",
"47 332 CURVE SMOOTH"
);
}
);
width = 483;
}
);
note = uni1B3E;
unicode = 1B3E;
},
{
glyphname = uni1B3F;
lastChange = "2017-10-19 13:12:48 +0000";
layers = (
{
layerId = "3BC433F7-38BC-4C75-8B4E-78FBECB68114";
paths = (
{
closed = 1;
nodes = (
"269 623 OFFCURVE",
"350 679 OFFCURVE",
"350 763 CURVE SMOOTH",
"350 828 OFFCURVE",
"313 855 OFFCURVE",
"247 868 CURVE SMOOTH",
"196 878 OFFCURVE",
"182 889 OFFCURVE",
"182 914 CURVE SMOOTH",
"182 955 OFFCURVE",
"250 998 OFFCURVE",
"320 1007 CURVE",
"324 1056 LINE",
"210 1042 OFFCURVE",
"133 978 OFFCURVE",
"133 900 CURVE SMOOTH",
"133 824 OFFCURVE",
"177 796 OFFCURVE",
"264 782 CURVE SMOOTH",
"288 778 OFFCURVE",
"301 767 OFFCURVE",
"301 751 CURVE SMOOTH",
"301 702 OFFCURVE",
"238 666 OFFCURVE",
"133 660 CURVE",
"142 612 LINE"
);
},
{
closed = 1;
nodes = (
"52 332 OFFCURVE",
"59 333 OFFCURVE",
"68 336 CURVE",
"70 413 OFFCURVE",
"132 463 OFFCURVE",
"228 463 CURVE SMOOTH",
"333 463 OFFCURVE",
"386 396 OFFCURVE",
"386 264 CURVE SMOOTH",
"386 152 OFFCURVE",
"369 48 OFFCURVE",
"291 -143 CURVE SMOOTH",
"252 -238 OFFCURVE",
"232 -321 OFFCURVE",
"232 -392 CURVE SMOOTH",
"232 -434 OFFCURVE",
"250 -519 OFFCURVE",
"270 -546 CURVE",
"303 -527 LINE",
"287 -480 OFFCURVE",
"281 -443 OFFCURVE",
"281 -397 CURVE SMOOTH",
"281 -321 OFFCURVE",
"307 -223 OFFCURVE",
"358 -103 CURVE SMOOTH",
"409 18 OFFCURVE",
"435 139 OFFCURVE",
"435 260 CURVE SMOOTH",
"435 444 OFFCURVE",
"360 546 OFFCURVE",
"226 546 CURVE SMOOTH",
"103 546 OFFCURVE",
"29 448 OFFCURVE",
"29 335 CURVE",
"35 334 OFFCURVE",
"41 332 OFFCURVE",
"47 332 CURVE SMOOTH"
);
}
);
width = 483;
}
);
note = uni1B3F;
unicode = 1B3F;
},
{
glyphname = uni1B42;
lastChange = "2017-10-19 13:19:44 +0000";
layers = (
{
layerId = "3BC433F7-38BC-4C75-8B4E-78FBECB68114";
paths = (
{
closed = 1;
nodes = (
"-495 931 OFFCURVE",
"-397 991 OFFCURVE",
"-287 991 CURVE SMOOTH",
"-245 991 OFFCURVE",
"-216 982 OFFCURVE",
"-181 953 CURVE",
"-479 826 LINE",
"-461 795 LINE",
"-73 956 LINE",
"-121 1027 OFFCURVE",
"-193 1069 OFFCURVE",
"-266 1069 CURVE SMOOTH",
"-417 1069 OFFCURVE",
"-514 1002 OFFCURVE",
"-635 809 CURVE",
"-613 792 LINE"
);
},
{
closed = 1;
nodes = (
"-662 734 OFFCURVE",
"-722 806 OFFCURVE",
"-765 861 CURVE",
"-808 816 LINE",
"-763 760 OFFCURVE",
"-696 694 OFFCURVE",
"-607 620 CURVE",
"-586 646 LINE"
);
}
);
width = 0;
}
);
note = uni1B42;
unicode = 1B42;
},
{
glyphname = uni1B44;
lastChange = "2017-10-19 13:12:48 +0000";
layers = (
{
layerId = "3BC433F7-38BC-4C75-8B4E-78FBECB68114";
paths = (
{
closed = 1;
nodes = (
"115 -381 OFFCURVE",
"104 -310 OFFCURVE",
"104 -231 CURVE SMOOTH",
"104 -101 OFFCURVE",
"119 11 OFFCURVE",
"188 215 CURVE SMOOTH",
"257 418 OFFCURVE",
"274 539 OFFCURVE",
"274 693 CURVE SMOOTH",
"274 935 OFFCURVE",
"157 1069 OFFCURVE",
"-23 1069 CURVE SMOOTH",
"-193 1069 OFFCURVE",
"-307 934 OFFCURVE",
"-313 741 CURVE",
"-307 740 OFFCURVE",
"-301 738 OFFCURVE",
"-295 738 CURVE SMOOTH",
"-290 738 OFFCURVE",
"-283 739 OFFCURVE",
"-273 742 CURVE",
"-246 908 OFFCURVE",
"-173 986 OFFCURVE",
"-21 986 CURVE SMOOTH",
"123 986 OFFCURVE",
"216 878 OFFCURVE",
"216 719 CURVE SMOOTH",
"216 603 OFFCURVE",
"186 463 OFFCURVE",
"125 299 CURVE SMOOTH",
"64 136 OFFCURVE",
"35 -9 OFFCURVE",
"35 -137 CURVE SMOOTH",
"35 -285 OFFCURVE",
"69 -421 OFFCURVE",
"137 -546 CURVE",
"174 -514 LINE"
);
}
);
width = 348;
}
);
note = uni1B44;
unicode = 1B44;
},
{
glyphname = uni1B45;
lastChange = "2017-10-19 13:19:07 +0000";
layers = (
{
layerId = "3BC433F7-38BC-4C75-8B4E-78FBECB68114";
paths = (
{
closed = 1;
nodes = (
"986 537 LINE",
"986 138 LINE SMOOTH",
"986 96 OFFCURVE",
"972 63 OFFCURVE",
"947 63 CURVE SMOOTH",
"907 63 OFFCURVE",
"894 88 OFFCURVE",
"894 178 CURVE SMOOTH",
"894 300 LINE SMOOTH",
"894 467 OFFCURVE",
"805 546 OFFCURVE",
"658 546 CURVE SMOOTH",
"521 546 OFFCURVE",
"419 473 OFFCURVE",
"419 319 CURVE SMOOTH",
"419 298 LINE",
"402 299 OFFCURVE",
"381 300 OFFCURVE",
"360 300 CURVE",
"360 376 LINE",
"321 376 LINE",
"321 299 LINE",
"298 298 OFFCURVE",
"272 295 OFFCURVE",
"262 294 CURVE",
"262 319 LINE SMOOTH",
"262 422 OFFCURVE",
"255 546 OFFCURVE",
"156 546 CURVE SMOOTH",
"42 546 OFFCURVE",
"39 405 OFFCURVE",
"39 335 CURVE",
"45 333 OFFCURVE",
"48 332 OFFCURVE",
"57 332 CURVE SMOOTH",
"67 332 OFFCURVE",
"71 334 OFFCURVE",
"78 336 CURVE",
"80 410 OFFCURVE",
"87 463 OFFCURVE",
"151 463 CURVE SMOOTH",
"197 463 OFFCURVE",
"223 424 OFFCURVE",
"223 322 CURVE SMOOTH",
"223 286 LINE",
"137 261 OFFCURVE",
"68 196 OFFCURVE",
"68 92 CURVE SMOOTH",
"68 42 OFFCURVE",
"98 -10 OFFCURVE",
"153 -10 CURVE SMOOTH",
"241 -10 OFFCURVE",
"262 79 OFFCURVE",
"262 182 CURVE SMOOTH",
"262 212 LINE",
"273 213 OFFCURVE",
"300 215 OFFCURVE",
"321 216 CURVE",
"321 -7 LINE SMOOTH",
"321 -132 OFFCURVE",
"376 -254 OFFCURVE",
"516 -254 CURVE SMOOTH",
"615 -254 OFFCURVE",
"695 -201 OFFCURVE",
"711 -63 CURVE",
"679 -54 LINE",
"667 -146 OFFCURVE",
"587 -171 OFFCURVE",
"516 -171 CURVE SMOOTH",
"404 -171 OFFCURVE",
"360 -82 OFFCURVE",
"360 -2 CURVE SMOOTH",
"360 217 LINE",
"386 217 OFFCURVE",
"402 217 OFFCURVE",
"419 216 CURVE",
"419 202 LINE SMOOTH",
"419 51 OFFCURVE",
"553 -10 OFFCURVE",
"625 -10 CURVE SMOOTH",
"687 -10 OFFCURVE",
"757 19 OFFCURVE",
"757 99 CURVE SMOOTH",
"757 241 OFFCURVE",
"611 280 OFFCURVE",
"458 294 CURVE",
"458 433 OFFCURVE",
"567 463 OFFCURVE",
"660 463 CURVE SMOOTH",
"797 463 OFFCURVE",
"854 411 OFFCURVE",
"854 299 CURVE SMOOTH",
"854 182 LINE SMOOTH",
"854 79 OFFCURVE",
"864 -10 OFFCURVE",
"945 -10 CURVE SMOOTH",
"1008 -10 OFFCURVE",
"1025 57 OFFCURVE",
"1025 108 CURVE SMOOTH",
"1025 454 LINE",
"1038 454 LINE SMOOTH",
"1084 454 OFFCURVE",
"1111 408 OFFCURVE",
"1111 306 CURVE SMOOTH",
"1111 0 LINE",
"1150 0 LINE",
"1150 310 LINE SMOOTH",
"1150 430 OFFCURVE",
"1145 537 OFFCURVE",
"1009 537 CURVE SMOOTH"
);
},
{
closed = 1;
nodes = (
"708 52 OFFCURVE",
"667 39 OFFCURVE",
"630 39 CURVE SMOOTH",
"583 39 OFFCURVE",
"458 68 OFFCURVE",
"458 199 CURVE SMOOTH",
"458 213 LINE",
"579 206 OFFCURVE",
"708 165 OFFCURVE",
"708 85 CURVE SMOOTH"
);
},
{
closed = 1;
nodes = (
"223 76 OFFCURVE",
"195 39 OFFCURVE",
"155 39 CURVE SMOOTH",
"130 39 OFFCURVE",
"112 56 OFFCURVE",
"112 98 CURVE SMOOTH",
"112 155 OFFCURVE",
"158 190 OFFCURVE",
"223 206 CURVE",
"223 178 LINE SMOOTH"
);
}
);
width = 1213;
}
);
note = uni1B45;
unicode = 1B45;
},
{
glyphname = uni1B46;
lastChange = "2017-10-19 13:19:07 +0000";
layers = (
{
layerId = "3BC433F7-38BC-4C75-8B4E-78FBECB68114";
paths = (
{
closed = 1;
nodes = (
"241 -10 OFFCURVE",
"262 79 OFFCURVE",
"262 182 CURVE SMOOTH",
"262 212 LINE",
"282 214 OFFCURVE",
"299 214 OFFCURVE",
"317 214 CURVE",
"317 202 LINE SMOOTH",
"317 51 OFFCURVE",
"450 -10 OFFCURVE",
"522 -10 CURVE SMOOTH",
"584 -10 OFFCURVE",
"655 19 OFFCURVE",
"655 99 CURVE SMOOTH",
"655 239 OFFCURVE",
"502 289 OFFCURVE",
"356 297 CURVE",
"356 311 LINE SMOOTH",
"356 448 OFFCURVE",
"465 463 OFFCURVE",
"557 463 CURVE SMOOTH",
"695 463 OFFCURVE",
"767 411 OFFCURVE",
"767 299 CURVE SMOOTH",
"767 235 LINE SMOOTH",
"767 62 OFFCURVE",
"854 -10 OFFCURVE",
"990 -10 CURVE SMOOTH",
"1124 -10 OFFCURVE",
"1205 66 OFFCURVE",
"1205 227 CURVE SMOOTH",
"1205 299 LINE SMOOTH",
"1205 411 OFFCURVE",
"1229 463 OFFCURVE",
"1332 463 CURVE SMOOTH",
"1433 463 OFFCURVE",
"1459 430 OFFCURVE",
"1459 301 CURVE SMOOTH",
"1459 158 LINE SMOOTH",
"1459 77 OFFCURVE",
"1463 -10 OFFCURVE",
"1545 -10 CURVE SMOOTH",
"1607 -10 OFFCURVE",
"1621 59 OFFCURVE",
"1621 166 CURVE SMOOTH",
"1621 454 LINE",
"1634 454 LINE SMOOTH",
"1680 454 OFFCURVE",
"1707 408 OFFCURVE",
"1707 306 CURVE SMOOTH",
"1707 0 LINE",
"1746 0 LINE",
"1746 310 LINE SMOOTH",
"1746 430 OFFCURVE",
"1740 537 OFFCURVE",
"1605 537 CURVE SMOOTH",
"1582 537 LINE",
"1582 167 LINE SMOOTH",
"1582 101 OFFCURVE",
"1572 63 OFFCURVE",
"1546 63 CURVE SMOOTH",
"1507 63 OFFCURVE",
"1498 88 OFFCURVE",
"1498 178 CURVE SMOOTH",
"1498 301 LINE SMOOTH",
"1498 474 OFFCURVE",
"1455 546 OFFCURVE",
"1333 546 CURVE SMOOTH",
"1205 546 OFFCURVE",
"1166 467 OFFCURVE",
"1166 300 CURVE SMOOTH",
"1166 237 LINE SMOOTH",
"1166 125 OFFCURVE",
"1118 73 OFFCURVE",
"990 73 CURVE SMOOTH",
"884 73 OFFCURVE",
"806 106 OFFCURVE",
"806 235 CURVE SMOOTH",
"806 300 LINE SMOOTH",
"806 467 OFFCURVE",
"703 546 OFFCURVE",
"556 546 CURVE SMOOTH",
"418 546 OFFCURVE",
"317 473 OFFCURVE",
"317 319 CURVE SMOOTH",
"317 298 LINE",
"292 298 OFFCURVE",
"277 297 OFFCURVE",
"262 294 CURVE",
"262 319 LINE SMOOTH",
"262 422 OFFCURVE",
"255 546 OFFCURVE",
"156 546 CURVE SMOOTH",
"42 546 OFFCURVE",
"39 405 OFFCURVE",
"39 335 CURVE",
"45 333 OFFCURVE",
"48 332 OFFCURVE",
"57 332 CURVE SMOOTH",
"67 332 OFFCURVE",
"71 334 OFFCURVE",
"78 336 CURVE",
"80 410 OFFCURVE",
"87 463 OFFCURVE",
"151 463 CURVE SMOOTH",
"197 463 OFFCURVE",
"223 424 OFFCURVE",
"223 322 CURVE SMOOTH",
"223 286 LINE",
"137 261 OFFCURVE",
"68 196 OFFCURVE",
"68 92 CURVE SMOOTH",
"68 42 OFFCURVE",
"98 -10 OFFCURVE",
"153 -10 CURVE SMOOTH"
);
},
{
closed = 1;
nodes = (
"130 39 OFFCURVE",
"112 56 OFFCURVE",
"112 98 CURVE SMOOTH",
"112 155 OFFCURVE",
"158 190 OFFCURVE",
"223 206 CURVE",
"223 178 LINE SMOOTH",
"223 76 OFFCURVE",
"195 39 OFFCURVE",
"155 39 CURVE SMOOTH"
);
},
{
closed = 1;
nodes = (
"481 39 OFFCURVE",
"356 68 OFFCURVE",
"356 199 CURVE SMOOTH",
"356 213 LINE",
"476 206 OFFCURVE",
"606 165 OFFCURVE",
"606 85 CURVE SMOOTH",
"606 52 OFFCURVE",
"564 39 OFFCURVE",
"527 39 CURVE SMOOTH"
);
}
);
width = 1809;
}
);
note = uni1B46;
unicode = 1B46;
},
{
glyphname = uni1B47;
lastChange = "2017-10-19 13:19:07 +0000";
layers = (
{
layerId = "3BC433F7-38BC-4C75-8B4E-78FBECB68114";
paths = (
{
closed = 1;
nodes = (
"977 537 LINE",
"977 138 LINE SMOOTH",
"977 96 OFFCURVE",
"962 63 OFFCURVE",
"937 63 CURVE SMOOTH",
"897 63 OFFCURVE",
"884 88 OFFCURVE",
"884 178 CURVE SMOOTH",
"884 301 LINE SMOOTH",
"884 480 OFFCURVE",
"768 546 OFFCURVE",
"633 546 CURVE SMOOTH",
"487 546 OFFCURVE",
"399 468 OFFCURVE",
"399 374 CURVE SMOOTH",
"399 175 OFFCURVE",
"612 292 OFFCURVE",
"612 179 CURVE SMOOTH",
"612 113 OFFCURVE",
"540 73 OFFCURVE",
"418 73 CURVE SMOOTH",
"390 73 OFFCURVE",
"367 75 OFFCURVE",
"346 80 CURVE",
"346 376 LINE",
"307 376 LINE",
"307 94 LINE",
"262 117 OFFCURVE",
"242 158 OFFCURVE",
"242 214 CURVE SMOOTH",
"242 318 LINE SMOOTH",
"242 421 OFFCURVE",
"233 546 OFFCURVE",
"151 546 CURVE SMOOTH",
"40 546 OFFCURVE",
"39 405 OFFCURVE",
"39 335 CURVE",
"45 333 OFFCURVE",
"48 332 OFFCURVE",
"57 332 CURVE SMOOTH",
"67 332 OFFCURVE",
"71 334 OFFCURVE",
"78 336 CURVE",
"80 410 OFFCURVE",
"82 463 OFFCURVE",
"146 463 CURVE SMOOTH",
"184 463 OFFCURVE",
"203 424 OFFCURVE",
"203 322 CURVE SMOOTH",
"203 200 LINE SMOOTH",
"203 88 OFFCURVE",
"244 32 OFFCURVE",
"307 7 CURVE",
"307 -7 LINE SMOOTH",
"307 -132 OFFCURVE",
"361 -254 OFFCURVE",
"501 -254 CURVE SMOOTH",
"600 -254 OFFCURVE",
"681 -201 OFFCURVE",
"697 -63 CURVE",
"665 -54 LINE",
"652 -146 OFFCURVE",
"572 -171 OFFCURVE",
"501 -171 CURVE SMOOTH",
"391 -171 OFFCURVE",
"347 -83 OFFCURVE",
"346 -4 CURVE",
"368 -8 OFFCURVE",
"393 -10 OFFCURVE",
"418 -10 CURVE SMOOTH",
"558 -10 OFFCURVE",
"661 66 OFFCURVE",
"661 178 CURVE SMOOTH",
"661 376 OFFCURVE",
"448 276 OFFCURVE",
"448 371 CURVE SMOOTH",
"448 422 OFFCURVE",
"495 463 OFFCURVE",
"633 463 CURVE SMOOTH",
"751 463 OFFCURVE",
"845 430 OFFCURVE",
"845 301 CURVE SMOOTH",
"845 182 LINE SMOOTH",
"845 79 OFFCURVE",
"854 -10 OFFCURVE",
"936 -10 CURVE SMOOTH",
"998 -10 OFFCURVE",
"1016 57 OFFCURVE",
"1016 108 CURVE SMOOTH",
"1016 454 LINE",
"1028 454 LINE SMOOTH",
"1075 454 OFFCURVE",
"1101 408 OFFCURVE",
"1101 306 CURVE SMOOTH",
"1101 0 LINE",
"1140 0 LINE",
"1140 310 LINE SMOOTH",
"1140 430 OFFCURVE",
"1135 537 OFFCURVE",
"1000 537 CURVE SMOOTH"
);
}
);
width = 1204;
}
);
note = uni1B47;
unicode = 1B47;
},
{
glyphname = uni1B48;
lastChange = "2017-10-19 13:19:07 +0000";
layers = (
{
layerId = "3BC433F7-38BC-4C75-8B4E-78FBECB68114";
paths = (
{
closed = 1;
nodes = (
"744 310 LINE SMOOTH",
"744 430 OFFCURVE",
"738 537 OFFCURVE",
"603 537 CURVE SMOOTH",
"580 537 LINE",
"580 235 LINE SMOOTH",
"580 106 OFFCURVE",
"510 73 OFFCURVE",
"409 73 CURVE SMOOTH",
"397 73 OFFCURVE",
"386 73 OFFCURVE",
"375 74 CURVE",
"375 376 LINE",
"336 376 LINE",
"336 81 LINE",
"264 99 OFFCURVE",
"238 150 OFFCURVE",
"238 237 CURVE SMOOTH",
"238 319 LINE SMOOTH",
"238 422 OFFCURVE",
"235 546 OFFCURVE",
"140 546 CURVE SMOOTH",
"42 546 OFFCURVE",
"39 405 OFFCURVE",
"39 335 CURVE",
"45 333 OFFCURVE",
"48 332 OFFCURVE",
"57 332 CURVE SMOOTH",
"67 332 OFFCURVE",
"71 334 OFFCURVE",
"78 336 CURVE",
"80 410 OFFCURVE",
"80 463 OFFCURVE",
"141 463 CURVE SMOOTH",
"187 463 OFFCURVE",
"199 424 OFFCURVE",
"199 322 CURVE SMOOTH",
"199 227 LINE SMOOTH",
"199 98 OFFCURVE",
"248 24 OFFCURVE",
"336 -1 CURVE",
"336 -7 LINE SMOOTH",
"336 -132 OFFCURVE",
"391 -254 OFFCURVE",
"531 -254 CURVE SMOOTH",
"629 -254 OFFCURVE",
"710 -201 OFFCURVE",
"726 -63 CURVE",
"694 -54 LINE",
"681 -146 OFFCURVE",
"602 -171 OFFCURVE",
"531 -171 CURVE SMOOTH",
"422 -171 OFFCURVE",
"377 -86 OFFCURVE",
"375 -8 CURVE",
"386 -9 OFFCURVE",
"398 -10 OFFCURVE",
"410 -10 CURVE SMOOTH",
"537 -10 OFFCURVE",
"619 62 OFFCURVE",
"619 235 CURVE SMOOTH",
"619 454 LINE",
"632 454 LINE SMOOTH",
"678 454 OFFCURVE",
"705 408 OFFCURVE",
"705 306 CURVE SMOOTH",
"705 0 LINE",
"744 0 LINE"
);
}
);
width = 807;
}
);
note = uni1B48;
unicode = 1B48;
},
{
glyphname = uni1B49;
lastChange = "2017-10-19 13:19:07 +0000";
layers = (
{
layerId = "3BC433F7-38BC-4C75-8B4E-78FBECB68114";
paths = (
{
closed = 1;
nodes = (
"730 310 LINE SMOOTH",
"730 443 OFFCURVE",
"688 546 OFFCURVE",
"565 546 CURVE SMOOTH",
"498 546 OFFCURVE",
"455 508 OFFCURVE",
"430 454 CURVE",
"546 454 OFFCURVE",
"580 337 OFFCURVE",
"580 261 CURVE SMOOTH",
"580 235 LINE SMOOTH",
"580 106 OFFCURVE",
"510 73 OFFCURVE",
"409 73 CURVE SMOOTH",
"397 73 OFFCURVE",
"386 73 OFFCURVE",
"375 74 CURVE",
"375 376 LINE",
"336 376 LINE",
"336 81 LINE",
"264 99 OFFCURVE",
"238 150 OFFCURVE",
"238 237 CURVE SMOOTH",
"238 319 LINE SMOOTH",
"238 422 OFFCURVE",
"235 546 OFFCURVE",
"140 546 CURVE SMOOTH",
"42 546 OFFCURVE",
"39 405 OFFCURVE",
"39 335 CURVE",
"45 333 OFFCURVE",
"48 332 OFFCURVE",
"57 332 CURVE SMOOTH",
"67 332 OFFCURVE",
"71 334 OFFCURVE",
"78 336 CURVE",
"80 410 OFFCURVE",
"80 463 OFFCURVE",
"141 463 CURVE SMOOTH",
"187 463 OFFCURVE",
"199 424 OFFCURVE",
"199 322 CURVE SMOOTH",
"199 227 LINE SMOOTH",
"199 98 OFFCURVE",
"248 24 OFFCURVE",
"336 -1 CURVE",
"336 -7 LINE SMOOTH",
"336 -132 OFFCURVE",
"391 -254 OFFCURVE",
"531 -254 CURVE SMOOTH",
"629 -254 OFFCURVE",
"710 -201 OFFCURVE",
"726 -63 CURVE",
"694 -54 LINE",
"681 -146 OFFCURVE",
"602 -171 OFFCURVE",
"531 -171 CURVE SMOOTH",
"422 -171 OFFCURVE",
"377 -86 OFFCURVE",
"375 -8 CURVE",
"386 -9 OFFCURVE",
"398 -10 OFFCURVE",
"410 -10 CURVE SMOOTH",
"537 -10 OFFCURVE",
"619 62 OFFCURVE",
"619 235 CURVE SMOOTH",
"619 273 LINE SMOOTH",
"619 343 OFFCURVE",
"606 405 OFFCURVE",
"544 456 CURVE",
"554 460 OFFCURVE",
"573 463 OFFCURVE",
"583 463 CURVE SMOOTH",
"638 463 OFFCURVE",
"691 426 OFFCURVE",
"691 306 CURVE SMOOTH",
"691 0 LINE",
"730 0 LINE"
);
}
);
width = 793;
}
);
note = uni1B49;
unicode = 1B49;
},
{
glyphname = uni1B4A;
lastChange = "2017-10-19 13:19:07 +0000";
layers = (
{
layerId = "3BC433F7-38BC-4C75-8B4E-78FBECB68114";
paths = (
{
closed = 1;
nodes = (
"745 310 LINE SMOOTH",
"745 430 OFFCURVE",
"739 537 OFFCURVE",
"604 537 CURVE SMOOTH",
"581 537 LINE",
"581 232 LINE SMOOTH",
"581 151 OFFCURVE",
"572 73 OFFCURVE",
"500 73 CURVE SMOOTH",
"467 73 OFFCURVE",
"432 132 OFFCURVE",
"385 187 CURVE",
"385 376 LINE",
"346 376 LINE",
"346 228 LINE",
"321 250 OFFCURVE",
"294 268 OFFCURVE",
"262 275 CURVE",
"262 319 LINE SMOOTH",
"262 422 OFFCURVE",
"255 546 OFFCURVE",
"156 546 CURVE SMOOTH",
"42 546 OFFCURVE",
"39 405 OFFCURVE",
"39 335 CURVE",
"45 333 OFFCURVE",
"48 332 OFFCURVE",
"57 332 CURVE SMOOTH",
"67 332 OFFCURVE",
"71 334 OFFCURVE",
"78 336 CURVE",
"80 410 OFFCURVE",
"87 463 OFFCURVE",
"151 463 CURVE SMOOTH",
"197 463 OFFCURVE",
"223 424 OFFCURVE",
"223 322 CURVE SMOOTH",
"223 278 LINE",
"155 274 OFFCURVE",
"68 223 OFFCURVE",
"68 92 CURVE SMOOTH",
"68 42 OFFCURVE",
"98 -10 OFFCURVE",
"153 -10 CURVE SMOOTH",
"241 -10 OFFCURVE",
"262 79 OFFCURVE",
"262 182 CURVE SMOOTH",
"262 188 LINE",
"294 176 OFFCURVE",
"320 146 OFFCURVE",
"346 113 CURVE",
"346 -7 LINE SMOOTH",
"346 -132 OFFCURVE",
"400 -254 OFFCURVE",
"541 -254 CURVE SMOOTH",
"639 -254 OFFCURVE",
"720 -201 OFFCURVE",
"736 -63 CURVE",
"704 -54 LINE",
"691 -146 OFFCURVE",
"611 -171 OFFCURVE",
"541 -171 CURVE SMOOTH",
"429 -171 OFFCURVE",
"385 -82 OFFCURVE",
"385 -2 CURVE SMOOTH",
"385 62 LINE",
"417 23 OFFCURVE",
"453 -10 OFFCURVE",
"501 -10 CURVE SMOOTH",
"597 -10 OFFCURVE",
"620 93 OFFCURVE",
"620 208 CURVE SMOOTH",
"620 454 LINE",
"633 454 LINE SMOOTH",
"679 454 OFFCURVE",
"706 408 OFFCURVE",
"706 306 CURVE SMOOTH",
"706 0 LINE",
"745 0 LINE"
);
},
{
closed = 1;
nodes = (
"223 76 OFFCURVE",
"195 39 OFFCURVE",
"155 39 CURVE SMOOTH",
"130 39 OFFCURVE",
"112 56 OFFCURVE",
"112 98 CURVE SMOOTH",
"112 175 OFFCURVE",
"167 193 OFFCURVE",
"223 195 CURVE",
"223 178 LINE SMOOTH"
);
}
);
width = 808;
}
);
note = uni1B4A;
unicode = 1B4A;
},
{
glyphname = uni1B4B;
lastChange = "2017-10-19 13:19:07 +0000";
layers = (
{
layerId = "3BC433F7-38BC-4C75-8B4E-78FBECB68114";
paths = (
{
closed = 1;
nodes = (
"241 -10 OFFCURVE",
"262 79 OFFCURVE",
"262 182 CURVE SMOOTH",
"262 188 LINE",
"350 154 OFFCURVE",
"393 -10 OFFCURVE",
"501 -10 CURVE SMOOTH",
"597 -10 OFFCURVE",
"620 93 OFFCURVE",
"620 208 CURVE SMOOTH",
"620 454 LINE",
"633 454 LINE SMOOTH",
"679 454 OFFCURVE",
"706 408 OFFCURVE",
"706 306 CURVE SMOOTH",
"706 200 LINE SMOOTH",
"706 41 OFFCURVE",
"768 -10 OFFCURVE",
"835 -10 CURVE SMOOTH",
"917 -10 OFFCURVE",
"960 70 OFFCURVE",
"982 189 CURVE",
"1004 70 OFFCURVE",
"1047 -10 OFFCURVE",
"1129 -10 CURVE SMOOTH",
"1197 -10 OFFCURVE",
"1259 41 OFFCURVE",
"1259 200 CURVE SMOOTH",
"1259 454 LINE",
"1282 454 LINE SMOOTH",
"1328 454 OFFCURVE",
"1359 408 OFFCURVE",
"1359 306 CURVE SMOOTH",
"1359 0 LINE",
"1398 0 LINE",
"1398 310 LINE SMOOTH",
"1398 430 OFFCURVE",
"1388 537 OFFCURVE",
"1253 537 CURVE SMOOTH",
"1220 537 LINE",
"1220 214 LINE SMOOTH",
"1220 124 OFFCURVE",
"1194 73 OFFCURVE",
"1126 73 CURVE SMOOTH",
"1009 73 OFFCURVE",
"1004 354 OFFCURVE",
"1003 493 CURVE",
"962 493 LINE",
"961 368 OFFCURVE",
"958 73 OFFCURVE",
"838 73 CURVE SMOOTH",
"771 73 OFFCURVE",
"745 124 OFFCURVE",
"745 214 CURVE SMOOTH",
"745 310 LINE SMOOTH",
"745 430 OFFCURVE",
"739 537 OFFCURVE",
"604 537 CURVE SMOOTH",
"581 537 LINE",
"581 232 LINE SMOOTH",
"581 151 OFFCURVE",
"572 73 OFFCURVE",
"500 73 CURVE SMOOTH",
"443 73 OFFCURVE",
"380 248 OFFCURVE",
"262 275 CURVE",
"262 319 LINE SMOOTH",
"262 422 OFFCURVE",
"255 546 OFFCURVE",
"156 546 CURVE SMOOTH",
"42 546 OFFCURVE",
"39 405 OFFCURVE",
"39 335 CURVE",
"45 333 OFFCURVE",
"48 332 OFFCURVE",
"57 332 CURVE SMOOTH",
"67 332 OFFCURVE",
"71 334 OFFCURVE",
"78 336 CURVE",
"80 410 OFFCURVE",
"87 463 OFFCURVE",
"151 463 CURVE SMOOTH",
"197 463 OFFCURVE",
"223 424 OFFCURVE",
"223 322 CURVE SMOOTH",
"223 278 LINE",
"155 274 OFFCURVE",
"68 223 OFFCURVE",
"68 92 CURVE SMOOTH",
"68 42 OFFCURVE",
"98 -10 OFFCURVE",
"153 -10 CURVE SMOOTH"
);
},
{
closed = 1;
nodes = (
"130 39 OFFCURVE",
"112 56 OFFCURVE",
"112 98 CURVE SMOOTH",
"112 175 OFFCURVE",
"167 193 OFFCURVE",
"223 195 CURVE",
"223 178 LINE SMOOTH",
"223 76 OFFCURVE",
"195 39 OFFCURVE",
"155 39 CURVE SMOOTH"
);
}
);
width = 1462;
}
);
note = uni1B4B;
unicode = 1B4B;
},
{
glyphname = uni1B50;
lastChange = "2017-10-19 13:12:48 +0000";
layers = (
{
layerId = "3BC433F7-38BC-4C75-8B4E-78FBECB68114";
paths = (
{
closed = 1;
nodes = (
"132 469 OFFCURVE",
"59 376 OFFCURVE",
"59 246 CURVE SMOOTH",
"59 115 OFFCURVE",
"132 27 OFFCURVE",
"238 27 CURVE SMOOTH",
"343 27 OFFCURVE",
"413 113 OFFCURVE",
"413 246 CURVE SMOOTH",
"413 378 OFFCURVE",
"343 469 OFFCURVE",
"238 469 CURVE SMOOTH"
);
},
{
closed = 1;
nodes = (
"158 110 OFFCURVE",
"107 162 OFFCURVE",
"107 248 CURVE SMOOTH",
"107 334 OFFCURVE",
"158 386 OFFCURVE",
"236 386 CURVE SMOOTH",
"314 386 OFFCURVE",
"364 334 OFFCURVE",
"364 248 CURVE SMOOTH",
"364 162 OFFCURVE",
"313 110 OFFCURVE",
"236 110 CURVE SMOOTH"
);
}
);
width = 472;
}
);
note = uni1B50;
unicode = 1B50;
},
{
glyphname = uni1B51;
lastChange = "2017-10-19 13:12:48 +0000";
layers = (
{
layerId = "3BC433F7-38BC-4C75-8B4E-78FBECB68114";
paths = (
{
closed = 1;
nodes = (
"361 0 LINE",
"361 301 LINE SMOOTH",
"361 430 OFFCURVE",
"405 463 OFFCURVE",
"474 463 CURVE SMOOTH",
"532 463 OFFCURVE",
"579 411 OFFCURVE",
"579 358 CURVE",
"613 358 LINE",
"619 428 OFFCURVE",
"668 463 OFFCURVE",
"718 463 CURVE SMOOTH",
"787 463 OFFCURVE",
"830 430 OFFCURVE",
"830 301 CURVE SMOOTH",
"830 0 LINE",
"897 0 LINE SMOOTH",
"1032 0 OFFCURVE",
"1036 107 OFFCURVE",
"1036 227 CURVE SMOOTH",
"1036 440 LINE",
"1087 442 OFFCURVE",
"1171 480 OFFCURVE",
"1182 625 CURVE",
"1148 646 LINE",
"1141 549 OFFCURVE",
"1071 523 OFFCURVE",
"1036 523 CURVE",
"1034 609 OFFCURVE",
"995 698 OFFCURVE",
"925 698 CURVE SMOOTH",
"870 698 OFFCURVE",
"842 659 OFFCURVE",
"842 608 CURVE SMOOTH",
"842 496 OFFCURVE",
"932 450 OFFCURVE",
"997 441 CURVE",
"997 204 LINE SMOOTH",
"997 121 OFFCURVE",
"968 83 OFFCURVE",
"926 83 CURVE SMOOTH",
"869 83 LINE",
"869 301 LINE SMOOTH",
"869 474 OFFCURVE",
"831 546 OFFCURVE",
"718 546 CURVE SMOOTH",
"655 546 OFFCURVE",
"617 510 OFFCURVE",
"596 445 CURVE",
"575 510 OFFCURVE",
"536 546 OFFCURVE",
"474 546 CURVE SMOOTH",
"361 546 OFFCURVE",
"322 474 OFFCURVE",
"322 301 CURVE SMOOTH",
"322 83 LINE",
"310 83 LINE SMOOTH",
"268 83 OFFCURVE",
"238 121 OFFCURVE",
"238 204 CURVE SMOOTH",
"238 319 LINE SMOOTH",
"238 422 OFFCURVE",
"235 546 OFFCURVE",
"140 546 CURVE SMOOTH",
"42 546 OFFCURVE",
"39 405 OFFCURVE",
"39 335 CURVE",
"45 333 OFFCURVE",
"48 332 OFFCURVE",
"57 332 CURVE SMOOTH",
"67 332 OFFCURVE",
"71 334 OFFCURVE",
"78 336 CURVE",
"80 410 OFFCURVE",
"80 463 OFFCURVE",
"141 463 CURVE SMOOTH",
"187 463 OFFCURVE",
"199 424 OFFCURVE",
"199 322 CURVE SMOOTH",
"199 227 LINE SMOOTH",
"199 107 OFFCURVE",
"203 0 OFFCURVE",
"338 0 CURVE SMOOTH"
);
},
{
closed = 1;
nodes = (
"935 528 OFFCURVE",
"886 555 OFFCURVE",
"886 609 CURVE SMOOTH",
"886 637 OFFCURVE",
"901 649 OFFCURVE",
"927 649 CURVE SMOOTH",
"965 649 OFFCURVE",
"995 591 OFFCURVE",
"997 523 CURVE"
);
}
);
width = 1182;
}
);
note = uni1B51;
unicode = 1B51;
},
{
glyphname = uni1B52;
lastChange = "2017-10-19 13:12:48 +0000";
layers = (
{
layerId = "3BC433F7-38BC-4C75-8B4E-78FBECB68114";
paths = (
{
closed = 1;
nodes = (
"801 -466 OFFCURVE",
"833 -364 OFFCURVE",
"858 -248 CURVE",
"866 -248 OFFCURVE",
"875 -248 OFFCURVE",
"883 -248 CURVE SMOOTH",
"926 -248 OFFCURVE",
"981 -237 OFFCURVE",
"1021 -211 CURVE",
"1004 -176 LINE",
"976 -192 OFFCURVE",
"937 -199 OFFCURVE",
"878 -199 CURVE SMOOTH",
"875 -199 OFFCURVE",
"871 -199 OFFCURVE",
"868 -199 CURVE",
"886 -98 OFFCURVE",
"898 14 OFFCURVE",
"898 131 CURVE SMOOTH",
"898 354 OFFCURVE",
"853 546 OFFCURVE",
"718 546 CURVE SMOOTH",
"655 546 OFFCURVE",
"617 510 OFFCURVE",
"596 445 CURVE",
"575 510 OFFCURVE",
"536 546 OFFCURVE",
"474 546 CURVE SMOOTH",
"361 546 OFFCURVE",
"322 474 OFFCURVE",
"322 301 CURVE SMOOTH",
"322 83 LINE",
"310 83 LINE SMOOTH",
"268 83 OFFCURVE",
"238 121 OFFCURVE",
"238 204 CURVE SMOOTH",
"238 319 LINE SMOOTH",
"238 422 OFFCURVE",
"235 546 OFFCURVE",
"140 546 CURVE SMOOTH",
"42 546 OFFCURVE",
"39 405 OFFCURVE",
"39 335 CURVE",
"45 333 OFFCURVE",
"48 332 OFFCURVE",
"57 332 CURVE SMOOTH",
"67 332 OFFCURVE",
"71 334 OFFCURVE",
"78 336 CURVE",
"80 410 OFFCURVE",
"80 463 OFFCURVE",
"141 463 CURVE SMOOTH",
"187 463 OFFCURVE",
"199 424 OFFCURVE",
"199 322 CURVE SMOOTH",
"199 227 LINE SMOOTH",
"199 107 OFFCURVE",
"203 0 OFFCURVE",
"338 0 CURVE SMOOTH",
"361 0 LINE",
"361 301 LINE SMOOTH",
"361 430 OFFCURVE",
"405 463 OFFCURVE",
"474 463 CURVE SMOOTH",
"532 463 OFFCURVE",
"579 411 OFFCURVE",
"579 358 CURVE",
"613 358 LINE",
"619 428 OFFCURVE",
"668 463 OFFCURVE",
"718 463 CURVE SMOOTH",
"817 463 OFFCURVE",
"850 321 OFFCURVE",
"850 126 CURVE SMOOTH",
"850 17 OFFCURVE",
"837 -93 OFFCURVE",
"819 -194 CURVE",
"667 -171 OFFCURVE",
"530 -68 OFFCURVE",
"363 -68 CURVE SMOOTH",
"249 -68 OFFCURVE",
"186 -139 OFFCURVE",
"186 -209 CURVE SMOOTH",
"186 -429 OFFCURVE",
"731 -390 OFFCURVE",
"737 -521 CURVE",
"732 -537 LINE",
"771 -547 LINE"
);
},
{
closed = 1;
nodes = (
"677 -361 OFFCURVE",
"234 -360 OFFCURVE",
"234 -211 CURVE SMOOTH",
"234 -168 OFFCURVE",
"263 -142 OFFCURVE",
"333 -142 CURVE SMOOTH",
"472 -142 OFFCURVE",
"635 -224 OFFCURVE",
"810 -244 CURVE",
"794 -322 OFFCURVE",
"775 -394 OFFCURVE",
"757 -457 CURVE"
);
}
);
width = 947;
}
);
note = uni1B52;
unicode = 1B52;
},
{
glyphname = uni1B53;
lastChange = "2017-10-19 13:12:48 +0000";
layers = (
{
layerId = "3BC433F7-38BC-4C75-8B4E-78FBECB68114";
paths = (
{
closed = 1;
nodes = (
"563 -546 LINE",
"563 -401 LINE SMOOTH",
"563 -272 OFFCURVE",
"644 -238 OFFCURVE",
"754 -238 CURVE SMOOTH",
"892 -238 OFFCURVE",
"944 -292 OFFCURVE",
"944 -403 CURVE SMOOTH",
"944 -546 LINE",
"983 -546 LINE",
"983 -402 LINE SMOOTH",
"983 -235 OFFCURVE",
"900 -155 OFFCURVE",
"753 -155 CURVE SMOOTH",
"616 -155 OFFCURVE",
"524 -228 OFFCURVE",
"524 -401 CURVE SMOOTH",
"524 -463 LINE",
"512 -463 LINE SMOOTH",
"448 -463 OFFCURVE",
"411 -386 OFFCURVE",
"411 -333 CURVE SMOOTH",
"411 -102 OFFCURVE",
"875 -50 OFFCURVE",
"875 349 CURVE SMOOTH",
"875 456 OFFCURVE",
"832 546 OFFCURVE",
"718 546 CURVE SMOOTH",
"655 546 OFFCURVE",
"617 510 OFFCURVE",
"596 445 CURVE",
"575 510 OFFCURVE",
"536 546 OFFCURVE",
"474 546 CURVE SMOOTH",
"361 546 OFFCURVE",
"322 474 OFFCURVE",
"322 301 CURVE SMOOTH",
"322 83 LINE",
"310 83 LINE SMOOTH",
"268 83 OFFCURVE",
"238 121 OFFCURVE",
"238 204 CURVE SMOOTH",
"238 319 LINE SMOOTH",
"238 422 OFFCURVE",
"235 546 OFFCURVE",
"140 546 CURVE SMOOTH",
"42 546 OFFCURVE",
"39 405 OFFCURVE",
"39 335 CURVE",
"45 333 OFFCURVE",
"48 332 OFFCURVE",
"57 332 CURVE SMOOTH",
"67 332 OFFCURVE",
"71 334 OFFCURVE",
"78 336 CURVE",
"80 410 OFFCURVE",
"80 463 OFFCURVE",
"141 463 CURVE SMOOTH",
"187 463 OFFCURVE",
"199 424 OFFCURVE",
"199 322 CURVE SMOOTH",
"199 227 LINE SMOOTH",
"199 107 OFFCURVE",
"203 0 OFFCURVE",
"338 0 CURVE SMOOTH",
"361 0 LINE",
"361 301 LINE SMOOTH",
"361 430 OFFCURVE",
"405 463 OFFCURVE",
"474 463 CURVE SMOOTH",
"532 463 OFFCURVE",
"579 411 OFFCURVE",
"579 358 CURVE",
"613 358 LINE",
"619 428 OFFCURVE",
"668 463 OFFCURVE",
"718 463 CURVE SMOOTH",
"788 463 OFFCURVE",
"827 418 OFFCURVE",
"827 352 CURVE SMOOTH",
"827 51 OFFCURVE",
"362 -28 OFFCURVE",
"362 -330 CURVE SMOOTH",
"362 -435 OFFCURVE",
"405 -546 OFFCURVE",
"541 -546 CURVE SMOOTH"
);
}
);
width = 983;
}
);
note = uni1B53;
unicode = 1B53;
},
{
glyphname = uni1B54;
lastChange = "2017-10-19 13:12:48 +0000";
layers = (
{
layerId = "3BC433F7-38BC-4C75-8B4E-78FBECB68114";
paths = (
{
closed = 1;
nodes = (
"251 373 OFFCURVE",
"279 386 OFFCURVE",
"325 386 CURVE SMOOTH",
"359 386 OFFCURVE",
"387 367 OFFCURVE",
"387 337 CURVE SMOOTH",
"387 308 OFFCURVE",
"350 276 OFFCURVE",
"303 271 CURVE",
"265 271 LINE",
"260 232 LINE",
"305 232 LINE SMOOTH",
"374 232 OFFCURVE",
"410 205 OFFCURVE",
"410 162 CURVE SMOOTH",
"410 104 OFFCURVE",
"374 73 OFFCURVE",
"283 73 CURVE SMOOTH",
"164 73 OFFCURVE",
"98 151 OFFCURVE",
"98 295 CURVE SMOOTH",
"98 379 OFFCURVE",
"126 450 OFFCURVE",
"171 500 CURVE",
"134 521 LINE",
"78 463 OFFCURVE",
"49 382 OFFCURVE",
"49 292 CURVE SMOOTH",
"49 122 OFFCURVE",
"150 -10 OFFCURVE",
"283 -10 CURVE SMOOTH",
"389 -10 OFFCURVE",
"459 58 OFFCURVE",
"459 157 CURVE SMOOTH",
"459 206 OFFCURVE",
"430 246 OFFCURVE",
"377 262 CURVE",
"416 287 OFFCURVE",
"436 324 OFFCURVE",
"436 373 CURVE SMOOTH",
"436 428 OFFCURVE",
"391 469 OFFCURVE",
"334 469 CURVE SMOOTH",
"283 469 OFFCURVE",
"237 423 OFFCURVE",
"215 354 CURVE",
"232 342 LINE"
);
}
);
width = 508;
}
);
note = uni1B54;
unicode = 1B54;
},
{
glyphname = uni1B55;
lastChange = "2017-10-19 13:12:48 +0000";
layers = (
{
layerId = "3BC433F7-38BC-4C75-8B4E-78FBECB68114";
paths = (
{
closed = 1;
nodes = (
"564 -428 OFFCURVE",
"540 -332 OFFCURVE",
"540 -250 CURVE SMOOTH",
"540 -180 OFFCURVE",
"550 -90 OFFCURVE",
"570 19 CURVE SMOOTH",
"590 127 OFFCURVE",
"601 213 OFFCURVE",
"601 277 CURVE SMOOTH",
"601 478 OFFCURVE",
"503 591 OFFCURVE",
"336 591 CURVE SMOOTH",
"189 591 OFFCURVE",
"49 480 OFFCURVE",
"49 292 CURVE SMOOTH",
"49 122 OFFCURVE",
"150 -10 OFFCURVE",
"283 -10 CURVE SMOOTH",
"389 -10 OFFCURVE",
"459 58 OFFCURVE",
"459 157 CURVE SMOOTH",
"459 206 OFFCURVE",
"430 246 OFFCURVE",
"377 262 CURVE",
"416 287 OFFCURVE",
"436 324 OFFCURVE",
"436 373 CURVE SMOOTH",
"436 428 OFFCURVE",
"391 469 OFFCURVE",
"334 469 CURVE SMOOTH",
"283 469 OFFCURVE",
"237 423 OFFCURVE",
"215 354 CURVE",
"232 342 LINE",
"251 373 OFFCURVE",
"279 386 OFFCURVE",
"325 386 CURVE SMOOTH",
"359 386 OFFCURVE",
"387 367 OFFCURVE",
"387 337 CURVE SMOOTH",
"387 308 OFFCURVE",
"350 276 OFFCURVE",
"303 271 CURVE",
"265 271 LINE",
"260 232 LINE",
"305 232 LINE SMOOTH",
"374 232 OFFCURVE",
"410 205 OFFCURVE",
"410 162 CURVE SMOOTH",
"410 104 OFFCURVE",
"374 73 OFFCURVE",
"283 73 CURVE SMOOTH",
"164 73 OFFCURVE",
"98 151 OFFCURVE",
"98 295 CURVE SMOOTH",
"98 442 OFFCURVE",
"203 542 OFFCURVE",
"337 542 CURVE SMOOTH",
"478 542 OFFCURVE",
"552 448 OFFCURVE",
"552 283 CURVE SMOOTH",
"552 195 OFFCURVE",
"541 105 OFFCURVE",
"521 13 CURVE SMOOTH",
"501 -79 OFFCURVE",
"491 -165 OFFCURVE",
"491 -246 CURVE SMOOTH",
"491 -353 OFFCURVE",
"545 -511 OFFCURVE",
"573 -546 CURVE",
"605 -527 LINE"
);
}
);
width = 654;
}
);
note = uni1B55;
unicode = 1B55;
},
{
glyphname = uni1B56;
lastChange = "2017-10-19 13:12:48 +0000";
layers = (
{
layerId = "3BC433F7-38BC-4C75-8B4E-78FBECB68114";
paths = (
{
closed = 1;
nodes = (
"192 12 LINE SMOOTH",
"192 124 OFFCURVE",
"264 210 OFFCURVE",
"401 210 CURVE SMOOTH",
"522 210 OFFCURVE",
"611 145 OFFCURVE",
"611 21 CURVE SMOOTH",
"611 11 OFFCURVE",
"611 0 OFFCURVE",
"610 -10 CURVE",
"659 0 LINE",
"660 9 OFFCURVE",
"660 17 OFFCURVE",
"660 25 CURVE SMOOTH",
"660 177 OFFCURVE",
"559 293 OFFCURVE",
"400 293 CURVE SMOOTH",
"286 293 OFFCURVE",
"188 217 OFFCURVE",
"161 90 CURVE",
"124 131 OFFCURVE",
"107 195 OFFCURVE",
"107 266 CURVE SMOOTH",
"107 423 OFFCURVE",
"222 513 OFFCURVE",
"347 513 CURVE SMOOTH",
"365 513 OFFCURVE",
"381 511 OFFCURVE",
"397 509 CURVE",
"408 556 LINE",
"389 560 OFFCURVE",
"368 562 OFFCURVE",
"346 562 CURVE SMOOTH",
"224 562 OFFCURVE",
"59 474 OFFCURVE",
"59 262 CURVE SMOOTH",
"59 143 OFFCURVE",
"107 39 OFFCURVE",
"192 -12 CURVE"
);
}
);
width = 718;
}
);
note = uni1B56;
unicode = 1B56;
},
{
glyphname = uni1B57;
lastChange = "2017-10-19 13:12:48 +0000";
layers = (
{
layerId = "3BC433F7-38BC-4C75-8B4E-78FBECB68114";
paths = (
{
closed = 1;
nodes = (
"908 -10 OFFCURVE",
"947 69 OFFCURVE",
"947 236 CURVE SMOOTH",
"947 440 LINE",
"998 442 OFFCURVE",
"1082 480 OFFCURVE",
"1093 625 CURVE",
"1059 646 LINE",
"1052 549 OFFCURVE",
"982 523 OFFCURVE",
"947 523 CURVE",
"945 609 OFFCURVE",
"906 698 OFFCURVE",
"836 698 CURVE SMOOTH",
"781 698 OFFCURVE",
"753 659 OFFCURVE",
"753 608 CURVE SMOOTH",
"753 496 OFFCURVE",
"843 450 OFFCURVE",
"908 441 CURVE",
"908 237 LINE SMOOTH",
"908 125 OFFCURVE",
"885 73 OFFCURVE",
"781 73 CURVE SMOOTH",
"681 73 OFFCURVE",
"654 106 OFFCURVE",
"654 235 CURVE SMOOTH",
"654 300 LINE SMOOTH",
"654 467 OFFCURVE",
"615 546 OFFCURVE",
"488 546 CURVE SMOOTH",
"365 546 OFFCURVE",
"322 474 OFFCURVE",
"322 301 CURVE SMOOTH",
"322 83 LINE",
"310 83 LINE SMOOTH",
"268 83 OFFCURVE",
"238 121 OFFCURVE",
"238 204 CURVE SMOOTH",
"238 319 LINE SMOOTH",
"238 422 OFFCURVE",
"235 546 OFFCURVE",
"140 546 CURVE SMOOTH",
"42 546 OFFCURVE",
"39 405 OFFCURVE",
"39 335 CURVE",
"45 333 OFFCURVE",
"48 332 OFFCURVE",
"57 332 CURVE SMOOTH",
"67 332 OFFCURVE",
"71 334 OFFCURVE",
"78 336 CURVE",
"80 410 OFFCURVE",
"80 463 OFFCURVE",
"141 463 CURVE SMOOTH",
"187 463 OFFCURVE",
"199 424 OFFCURVE",
"199 322 CURVE SMOOTH",
"199 227 LINE SMOOTH",
"199 107 OFFCURVE",
"203 0 OFFCURVE",
"338 0 CURVE SMOOTH",
"361 0 LINE",
"361 301 LINE SMOOTH",
"361 430 OFFCURVE",
"388 463 OFFCURVE",
"488 463 CURVE SMOOTH",
"592 463 OFFCURVE",
"615 411 OFFCURVE",
"615 299 CURVE SMOOTH",
"615 235 LINE SMOOTH",
"615 62 OFFCURVE",
"658 -10 OFFCURVE",
"781 -10 CURVE SMOOTH"
);
},
{
closed = 1;
nodes = (
"846 528 OFFCURVE",
"797 555 OFFCURVE",
"797 609 CURVE SMOOTH",
"797 637 OFFCURVE",
"812 649 OFFCURVE",
"838 649 CURVE SMOOTH",
"876 649 OFFCURVE",
"906 591 OFFCURVE",
"908 523 CURVE"
);
}
);
width = 1093;
}
);
note = uni1B57;
unicode = 1B57;
},
{
glyphname = uni1B58;
lastChange = "2017-10-19 13:12:48 +0000";
layers = (
{
layerId = "3BC433F7-38BC-4C75-8B4E-78FBECB68114";
paths = (
{
closed = 1;
nodes = (
"537 -10 OFFCURVE",
"619 62 OFFCURVE",
"619 235 CURVE SMOOTH",
"619 440 LINE",
"670 442 OFFCURVE",
"754 480 OFFCURVE",
"765 625 CURVE",
"731 646 LINE",
"724 549 OFFCURVE",
"654 523 OFFCURVE",
"619 523 CURVE",
"617 609 OFFCURVE",
"578 698 OFFCURVE",
"508 698 CURVE SMOOTH",
"453 698 OFFCURVE",
"425 659 OFFCURVE",
"425 608 CURVE SMOOTH",
"425 496 OFFCURVE",
"515 450 OFFCURVE",
"580 441 CURVE",
"580 235 LINE SMOOTH",
"580 106 OFFCURVE",
"510 73 OFFCURVE",
"409 73 CURVE SMOOTH",
"281 73 OFFCURVE",
"238 125 OFFCURVE",
"238 237 CURVE SMOOTH",
"238 319 LINE SMOOTH",
"238 422 OFFCURVE",
"235 546 OFFCURVE",
"140 546 CURVE SMOOTH",
"42 546 OFFCURVE",
"39 405 OFFCURVE",
"39 335 CURVE",
"45 333 OFFCURVE",
"48 332 OFFCURVE",
"57 332 CURVE SMOOTH",
"67 332 OFFCURVE",
"71 334 OFFCURVE",
"78 336 CURVE",
"80 410 OFFCURVE",
"80 463 OFFCURVE",
"141 463 CURVE SMOOTH",
"187 463 OFFCURVE",
"199 424 OFFCURVE",
"199 322 CURVE SMOOTH",
"199 227 LINE SMOOTH",
"199 66 OFFCURVE",
"275 -10 OFFCURVE",
"410 -10 CURVE SMOOTH"
);
},
{
closed = 1;
nodes = (
"518 528 OFFCURVE",
"469 555 OFFCURVE",
"469 609 CURVE SMOOTH",
"469 637 OFFCURVE",
"484 649 OFFCURVE",
"510 649 CURVE SMOOTH",
"548 649 OFFCURVE",
"578 591 OFFCURVE",
"580 523 CURVE"
);
}
);
width = 765;
}
);
note = uni1B58;
unicode = 1B58;
},
{
glyphname = uni1B59;
lastChange = "2017-10-19 13:12:48 +0000";
layers = (
{
layerId = "3BC433F7-38BC-4C75-8B4E-78FBECB68114";
paths = (
{
closed = 1;
nodes = (
"414 -10 OFFCURVE",
"458 70 OFFCURVE",
"479 189 CURVE",
"501 70 OFFCURVE",
"544 -10 OFFCURVE",
"626 -10 CURVE SMOOTH",
"694 -10 OFFCURVE",
"756 41 OFFCURVE",
"756 200 CURVE SMOOTH",
"756 440 LINE",
"807 442 OFFCURVE",
"891 480 OFFCURVE",
"902 625 CURVE",
"868 646 LINE",
"861 549 OFFCURVE",
"792 523 OFFCURVE",
"756 523 CURVE",
"754 609 OFFCURVE",
"715 698 OFFCURVE",
"645 698 CURVE SMOOTH",
"590 698 OFFCURVE",
"562 659 OFFCURVE",
"562 608 CURVE SMOOTH",
"562 496 OFFCURVE",
"652 450 OFFCURVE",
"717 441 CURVE",
"717 214 LINE SMOOTH",
"717 124 OFFCURVE",
"691 73 OFFCURVE",
"624 73 CURVE SMOOTH",
"506 73 OFFCURVE",
"501 354 OFFCURVE",
"500 493 CURVE",
"459 493 LINE",
"458 368 OFFCURVE",
"456 73 OFFCURVE",
"335 73 CURVE SMOOTH",
"268 73 OFFCURVE",
"242 124 OFFCURVE",
"242 214 CURVE SMOOTH",
"242 318 LINE SMOOTH",
"242 421 OFFCURVE",
"233 546 OFFCURVE",
"151 546 CURVE SMOOTH",
"40 546 OFFCURVE",
"39 405 OFFCURVE",
"39 335 CURVE",
"45 333 OFFCURVE",
"48 332 OFFCURVE",
"57 332 CURVE SMOOTH",
"67 332 OFFCURVE",
"71 334 OFFCURVE",
"78 336 CURVE",
"80 410 OFFCURVE",
"82 463 OFFCURVE",
"146 463 CURVE SMOOTH",
"184 463 OFFCURVE",
"203 424 OFFCURVE",
"203 322 CURVE SMOOTH",
"203 200 LINE SMOOTH",
"203 41 OFFCURVE",
"265 -10 OFFCURVE",
"333 -10 CURVE SMOOTH"
);
},
{
closed = 1;
nodes = (
"655 528 OFFCURVE",
"606 555 OFFCURVE",
"606 609 CURVE SMOOTH",
"606 637 OFFCURVE",
"622 649 OFFCURVE",
"647 649 CURVE SMOOTH",
"685 649 OFFCURVE",
"715 591 OFFCURVE",
"717 523 CURVE"
);
}
);
width = 902;
}
);
note = uni1B59;
unicode = 1B59;
},
{
glyphname = uni1B5A;
lastChange = "2017-10-19 13:12:48 +0000";
layers = (
{
layerId = "3BC433F7-38BC-4C75-8B4E-78FBECB68114";
paths = (
{
closed = 1;
nodes = (
"1128 -156 OFFCURVE",
"1131 -1 OFFCURVE",
"1131 69 CURVE",
"1125 71 OFFCURVE",
"1122 72 OFFCURVE",
"1113 72 CURVE SMOOTH",
"1103 72 OFFCURVE",
"1099 70 OFFCURVE",
"1092 68 CURVE",
"1090 -6 OFFCURVE",
"1090 -73 OFFCURVE",
"1029 -73 CURVE SMOOTH",
"983 -73 OFFCURVE",
"971 -35 OFFCURVE",
"971 67 CURVE SMOOTH",
"971 301 LINE SMOOTH",
"971 474 OFFCURVE",
"937 546 OFFCURVE",
"830 546 CURVE SMOOTH",
"717 546 OFFCURVE",
"687 467 OFFCURVE",
"687 300 CURVE SMOOTH",
"687 237 LINE SMOOTH",
"687 125 OFFCURVE",
"669 73 OFFCURVE",
"585 73 CURVE SMOOTH",
"504 73 OFFCURVE",
"482 106 OFFCURVE",
"482 235 CURVE SMOOTH",
"482 300 LINE SMOOTH",
"482 467 OFFCURVE",
"453 546 OFFCURVE",
"340 546 CURVE SMOOTH",
"232 546 OFFCURVE",
"199 474 OFFCURVE",
"199 301 CURVE SMOOTH",
"199 214 LINE SMOOTH",
"199 112 OFFCURVE",
"187 73 OFFCURVE",
"141 73 CURVE SMOOTH",
"80 73 OFFCURVE",
"80 141 OFFCURVE",
"78 215 CURVE",
"71 217 OFFCURVE",
"67 219 OFFCURVE",
"57 219 CURVE SMOOTH",
"48 219 OFFCURVE",
"45 217 OFFCURVE",
"39 216 CURVE",
"39 146 OFFCURVE",
"42 -10 OFFCURVE",
"140 -10 CURVE SMOOTH",
"235 -10 OFFCURVE",
"238 114 OFFCURVE",
"238 217 CURVE SMOOTH",
"238 301 LINE SMOOTH",
"238 430 OFFCURVE",
"260 463 OFFCURVE",
"341 463 CURVE SMOOTH",
"425 463 OFFCURVE",
"443 411 OFFCURVE",
"443 299 CURVE SMOOTH",
"443 235 LINE SMOOTH",
"443 62 OFFCURVE",
"477 -10 OFFCURVE",
"584 -10 CURVE SMOOTH",
"697 -10 OFFCURVE",
"727 69 OFFCURVE",
"727 236 CURVE SMOOTH",
"727 299 LINE SMOOTH",
"727 411 OFFCURVE",
"745 463 OFFCURVE",
"829 463 CURVE SMOOTH",
"910 463 OFFCURVE",
"932 430 OFFCURVE",
"932 301 CURVE SMOOTH",
"932 71 LINE SMOOTH",
"932 -32 OFFCURVE",
"935 -156 OFFCURVE",
"1030 -156 CURVE SMOOTH"
);
}
);
width = 1170;
}
);
note = uni1B5A;
unicode = 1B5A;
},
{
glyphname = uni1B5B;
lastChange = "2017-10-19 13:12:48 +0000";
layers = (
{
layerId = "3BC433F7-38BC-4C75-8B4E-78FBECB68114";
paths = (
{
closed = 1;
nodes = (
"361 301 LINE SMOOTH",
"361 430 OFFCURVE",
"405 463 OFFCURVE",
"474 463 CURVE SMOOTH",
"532 463 OFFCURVE",
"579 411 OFFCURVE",
"579 358 CURVE",
"613 358 LINE",
"619 428 OFFCURVE",
"668 463 OFFCURVE",
"718 463 CURVE SMOOTH",
"787 463 OFFCURVE",
"830 430 OFFCURVE",
"830 301 CURVE SMOOTH",
"830 49 LINE",
"869 49 LINE",
"869 301 LINE SMOOTH",
"869 474 OFFCURVE",
"831 546 OFFCURVE",
"718 546 CURVE SMOOTH",
"655 546 OFFCURVE",
"617 510 OFFCURVE",
"596 445 CURVE",
"575 510 OFFCURVE",
"536 546 OFFCURVE",
"474 546 CURVE SMOOTH",
"361 546 OFFCURVE",
"322 474 OFFCURVE",
"322 301 CURVE SMOOTH",
"322 132 LINE",
"310 132 LINE SMOOTH",
"268 132 OFFCURVE",
"238 160 OFFCURVE",
"238 243 CURVE SMOOTH",
"238 319 LINE SMOOTH",
"238 422 OFFCURVE",
"235 546 OFFCURVE",
"140 546 CURVE SMOOTH",
"42 546 OFFCURVE",
"39 405 OFFCURVE",
"39 335 CURVE",
"45 333 OFFCURVE",
"48 332 OFFCURVE",
"57 332 CURVE SMOOTH",
"67 332 OFFCURVE",
"71 334 OFFCURVE",
"78 336 CURVE",
"80 410 OFFCURVE",
"80 463 OFFCURVE",
"141 463 CURVE SMOOTH",
"187 463 OFFCURVE",
"199 424 OFFCURVE",
"199 322 CURVE SMOOTH",
"199 266 LINE SMOOTH",
"199 146 OFFCURVE",
"203 49 OFFCURVE",
"338 49 CURVE SMOOTH",
"361 49 LINE"
);
},
{
closed = 1;
nodes = (
"1222 -268 OFFCURVE",
"1188 -151 OFFCURVE",
"1115 -69 CURVE",
"1115 310 LINE SMOOTH",
"1115 430 OFFCURVE",
"1109 537 OFFCURVE",
"974 537 CURVE SMOOTH",
"951 537 LINE",
"951 19 LINE",
"942 20 OFFCURVE",
"933 20 OFFCURVE",
"924 20 CURVE SMOOTH",
"864 20 OFFCURVE",
"815 -9 OFFCURVE",
"815 -68 CURVE SMOOTH",
"815 -111 OFFCURVE",
"853 -140 OFFCURVE",
"853 -175 CURVE SMOOTH",
"853 -204 OFFCURVE",
"829 -230 OFFCURVE",
"782 -230 CURVE SMOOTH",
"724 -230 OFFCURVE",
"676 -198 OFFCURVE",
"657 -118 CURVE",
"639 -130 LINE",
"647 -214 OFFCURVE",
"708 -303 OFFCURVE",
"781 -303 CURVE SMOOTH",
"853 -303 OFFCURVE",
"895 -253 OFFCURVE",
"895 -198 CURVE SMOOTH",
"895 -145 OFFCURVE",
"856 -112 OFFCURVE",
"856 -83 CURVE SMOOTH",
"856 -63 OFFCURVE",
"875 -53 OFFCURVE",
"912 -53 CURVE SMOOTH",
"926 -53 OFFCURVE",
"939 -54 OFFCURVE",
"951 -55 CURVE",
"951 -323 LINE SMOOTH",
"951 -435 OFFCURVE",
"900 -463 OFFCURVE",
"844 -463 CURVE SMOOTH",
"729 -463 OFFCURVE",
"732 -313 OFFCURVE",
"651 -313 CURVE SMOOTH",
"569 -313 OFFCURVE",
"572 -463 OFFCURVE",
"458 -463 CURVE SMOOTH",
"368 -463 OFFCURVE",
"332 -396 OFFCURVE",
"332 -312 CURVE SMOOTH",
"332 -232 OFFCURVE",
"355 -137 OFFCURVE",
"400 -69 CURVE",
"359 -61 LINE",
"315 -141 OFFCURVE",
"283 -230 OFFCURVE",
"283 -339 CURVE SMOOTH",
"283 -448 OFFCURVE",
"324 -546 OFFCURVE",
"454 -546 CURVE SMOOTH",
"571 -546 OFFCURVE",
"562 -396 OFFCURVE",
"650 -396 CURVE SMOOTH",
"739 -396 OFFCURVE",
"730 -546 OFFCURVE",
"848 -546 CURVE SMOOTH",
"925 -546 OFFCURVE",
"990 -491 OFFCURVE",
"990 -324 CURVE SMOOTH",
"990 -62 LINE",
"1023 -70 OFFCURVE",
"1052 -84 OFFCURVE",
"1076 -102 CURVE",
"1076 -531 LINE",
"1115 -531 LINE",
"1115 -140 LINE",
"1158 -192 OFFCURVE",
"1187 -263 OFFCURVE",
"1212 -347 CURVE",
"1243 -335 LINE"
);
},
{
closed = 1;
nodes = (
"990 454 LINE",
"1003 454 LINE SMOOTH",
"1049 454 OFFCURVE",
"1076 408 OFFCURVE",
"1076 306 CURVE SMOOTH",
"1076 -32 LINE",
"1051 -13 OFFCURVE",
"1023 3 OFFCURVE",
"990 11 CURVE"
);
}
);
width = 1292;
}
);
note = uni1B5B;
unicode = 1B5B;
},
{
glyphname = uni1B5C;
lastChange = "2017-10-19 13:12:48 +0000";
layers = (
{
layerId = "3BC433F7-38BC-4C75-8B4E-78FBECB68114";
paths = (
{
closed = 1;
nodes = (
"81 605 OFFCURVE",
"24 532 OFFCURVE",
"24 418 CURVE SMOOTH",
"24 306 OFFCURVE",
"79 235 OFFCURVE",
"167 235 CURVE SMOOTH",
"253 235 OFFCURVE",
"306 306 OFFCURVE",
"306 418 CURVE SMOOTH",
"306 533 OFFCURVE",
"252 605 OFFCURVE",
"167 605 CURVE SMOOTH"
);
},
{
closed = 1;
nodes = (
"101 318 OFFCURVE",
"63 356 OFFCURVE",
"63 420 CURVE SMOOTH",
"63 485 OFFCURVE",
"101 522 OFFCURVE",
"165 522 CURVE SMOOTH",
"229 522 OFFCURVE",
"267 485 OFFCURVE",
"267 420 CURVE SMOOTH",
"267 356 OFFCURVE",
"229 318 OFFCURVE",
"165 318 CURVE SMOOTH"
);
}
);
width = 370;
}
);
note = uni1B5C;
unicode = 1B5C;
},
{
glyphname = uni1B5D;
lastChange = "2017-10-19 13:12:48 +0000";
layers = (
{
layerId = "3BC433F7-38BC-4C75-8B4E-78FBECB68114";
paths = (
{
closed = 1;
nodes = (
"316 364 OFFCURVE",
"269 347 OFFCURVE",
"194 347 CURVE SMOOTH",
"166 347 OFFCURVE",
"143 350 OFFCURVE",
"127 357 CURVE SMOOTH",
"111 364 OFFCURVE",
"103 374 OFFCURVE",
"103 386 CURVE SMOOTH",
"103 402 OFFCURVE",
"114 411 OFFCURVE",
"129 411 CURVE SMOOTH",
"146 411 OFFCURVE",
"159 406 OFFCURVE",
"169 397 CURVE",
"196 435 LINE",
"184 455 OFFCURVE",
"162 470 OFFCURVE",
"137 470 CURVE SMOOTH",
"92 470 OFFCURVE",
"63 438 OFFCURVE",
"63 389 CURVE SMOOTH",
"63 327 OFFCURVE",
"121 283 OFFCURVE",
"195 283 CURVE SMOOTH",
"279 283 OFFCURVE",
"361 347 OFFCURVE",
"394 432 CURVE",
"375 444 LINE"
);
},
{
closed = 1;
nodes = (
"316 135 OFFCURVE",
"269 117 OFFCURVE",
"194 117 CURVE SMOOTH",
"166 117 OFFCURVE",
"143 121 OFFCURVE",
"127 128 CURVE SMOOTH",
"111 135 OFFCURVE",
"103 145 OFFCURVE",
"103 157 CURVE SMOOTH",
"103 173 OFFCURVE",
"114 182 OFFCURVE",
"129 182 CURVE SMOOTH",
"146 182 OFFCURVE",
"159 177 OFFCURVE",
"169 167 CURVE",
"196 206 LINE",
"184 226 OFFCURVE",
"162 240 OFFCURVE",
"137 240 CURVE SMOOTH",
"92 240 OFFCURVE",
"63 208 OFFCURVE",
"63 159 CURVE SMOOTH",
"63 97 OFFCURVE",
"121 54 OFFCURVE",
"195 54 CURVE SMOOTH",
"279 54 OFFCURVE",
"361 117 OFFCURVE",
"394 203 CURVE",
"375 215 LINE"
);
}
);
width = 458;
}
);
note = uni1B5D;
unicode = 1B5D;
},
{
glyphname = uni1B5E;
lastChange = "2017-10-19 13:12:48 +0000";
layers = (
{
layerId = "3BC433F7-38BC-4C75-8B4E-78FBECB68114";
paths = (
{
closed = 1;
nodes = (
"393 -235 LINE",
"372 -91 OFFCURVE",
"250 415 OFFCURVE",
"189 520 CURVE SMOOTH",
"158 574 OFFCURVE",
"150 586 OFFCURVE",
"116 586 CURVE SMOOTH",
"91 586 OFFCURVE",
"57 490 OFFCURVE",
"39 428 CURVE",
"63 406 LINE",
"85 456 OFFCURVE",
"100 474 OFFCURVE",
"115 478 CURVE",
"187 412 OFFCURVE",
"284 117 OFFCURVE",
"357 -242 CURVE"
);
}
);
width = 393;
}
);
note = uni1B5E;
unicode = 1B5E;
},
{
glyphname = uni1B5F;
lastChange = "2017-10-19 13:12:48 +0000";
layers = (
{
layerId = "3BC433F7-38BC-4C75-8B4E-78FBECB68114";
paths = (
{
closed = 1;
nodes = (
"642 -235 LINE",
"621 -91 OFFCURVE",
"500 415 OFFCURVE",
"438 520 CURVE SMOOTH",
"406 574 OFFCURVE",
"399 586 OFFCURVE",
"365 586 CURVE SMOOTH",
"340 586 OFFCURVE",
"306 490 OFFCURVE",
"288 428 CURVE",
"312 406 LINE",
"334 456 OFFCURVE",
"349 474 OFFCURVE",
"364 478 CURVE",
"436 412 OFFCURVE",
"533 117 OFFCURVE",
"606 -242 CURVE"
);
},
{
closed = 1;
nodes = (
"393 -235 LINE",
"372 -91 OFFCURVE",
"250 415 OFFCURVE",
"189 520 CURVE SMOOTH",
"158 574 OFFCURVE",
"150 586 OFFCURVE",
"116 586 CURVE SMOOTH",
"91 586 OFFCURVE",
"57 490 OFFCURVE",
"39 428 CURVE",
"63 406 LINE",
"85 456 OFFCURVE",
"100 474 OFFCURVE",
"115 478 CURVE",
"187 412 OFFCURVE",
"284 117 OFFCURVE",
"357 -242 CURVE"
);
}
);
width = 642;
}
);
note = uni1B5F;
unicode = 1B5F;
},
{
glyphname = uni1B60;
lastChange = "2017-10-19 13:12:48 +0000";
layers = (
{
layerId = "3BC433F7-38BC-4C75-8B4E-78FBECB68114";
paths = (
{
closed = 1;
nodes = (
"55 67 OFFCURVE",
"115 -10 OFFCURVE",
"216 -10 CURVE SMOOTH",
"313 -10 OFFCURVE",
"382 65 OFFCURVE",
"382 159 CURVE SMOOTH",
"382 229 OFFCURVE",
"347 279 OFFCURVE",
"286 293 CURVE",
"324 314 OFFCURVE",
"344 351 OFFCURVE",
"344 402 CURVE SMOOTH",
"344 488 OFFCURVE",
"295 546 OFFCURVE",
"227 546 CURVE SMOOTH",
"168 546 OFFCURVE",
"119 501 OFFCURVE",
"90 415 CURVE",
"110 402 LINE",
"145 449 OFFCURVE",
"176 463 OFFCURVE",
"217 463 CURVE SMOOTH",
"268 463 OFFCURVE",
"295 437 OFFCURVE",
"295 394 CURVE SMOOTH",
"295 333 OFFCURVE",
"265 305 OFFCURVE",
"187 305 CURVE SMOOTH",
"165 305 LINE",
"155 267 LINE",
"201 267 LINE SMOOTH",
"284 267 OFFCURVE",
"333 229 OFFCURVE",
"333 170 CURVE SMOOTH",
"333 108 OFFCURVE",
"291 73 OFFCURVE",
"218 73 CURVE SMOOTH",
"124 73 OFFCURVE",
"83 118 OFFCURVE",
"79 212 CURVE",
"49 206 LINE"
);
}
);
width = 431;
}
);
note = uni1B60;
unicode = 1B60;
},
{
glyphname = uni1B61;
lastChange = "2017-10-19 13:18:55 +0000";
layers = (
{
layerId = "3BC433F7-38BC-4C75-8B4E-78FBECB68114";
paths = (
{
closed = 1;
nodes = (
"91 430 OFFCURVE",
"162 463 OFFCURVE",
"254 463 CURVE SMOOTH",
"379 463 OFFCURVE",
"458 390 OFFCURVE",
"458 271 CURVE SMOOTH",
"458 144 OFFCURVE",
"399 46 OFFCURVE",
"322 46 CURVE SMOOTH",
"286 46 OFFCURVE",
"260 64 OFFCURVE",
"260 102 CURVE SMOOTH",
"260 124 OFFCURVE",
"269 143 OFFCURVE",
"285 160 CURVE",
"255 185 LINE",
"211 147 OFFCURVE",
"189 108 OFFCURVE",
"189 65 CURVE SMOOTH",
"189 21 OFFCURVE",
"234 -10 OFFCURVE",
"282 -10 CURVE SMOOTH",
"422 -10 OFFCURVE",
"507 105 OFFCURVE",
"507 274 CURVE SMOOTH",
"507 435 OFFCURVE",
"403 546 OFFCURVE",
"252 546 CURVE SMOOTH",
"155 546 OFFCURVE",
"71 491 OFFCURVE",
"24 394 CURVE",
"59 372 LINE"
);
}
);
width = 556;
}
);
note = uni1B61;
unicode = 1B61;
},
{
glyphname = uni1B62;
lastChange = "2017-10-19 13:18:55 +0000";
layers = (
{
layerId = "3BC433F7-38BC-4C75-8B4E-78FBECB68114";
paths = (
{
closed = 1;
nodes = (
"52 332 OFFCURVE",
"59 333 OFFCURVE",
"68 336 CURVE",
"70 413 OFFCURVE",
"132 463 OFFCURVE",
"228 463 CURVE SMOOTH",
"333 463 OFFCURVE",
"386 396 OFFCURVE",
"386 264 CURVE SMOOTH",
"386 152 OFFCURVE",
"368 49 OFFCURVE",
"291 -143 CURVE SMOOTH",
"253 -238 OFFCURVE",
"232 -321 OFFCURVE",
"232 -392 CURVE SMOOTH",
"232 -434 OFFCURVE",
"250 -519 OFFCURVE",
"270 -546 CURVE",
"303 -527 LINE",
"287 -480 OFFCURVE",
"281 -443 OFFCURVE",
"281 -397 CURVE SMOOTH",
"281 -321 OFFCURVE",
"307 -223 OFFCURVE",
"358 -103 CURVE SMOOTH",
"409 18 OFFCURVE",
"435 139 OFFCURVE",
"435 260 CURVE SMOOTH",
"435 444 OFFCURVE",
"360 546 OFFCURVE",
"226 546 CURVE SMOOTH",
"103 546 OFFCURVE",
"29 448 OFFCURVE",
"29 335 CURVE",
"35 333 OFFCURVE",
"41 332 OFFCURVE",
"47 332 CURVE SMOOTH"
);
}
);
width = 483;
}
);
note = uni1B62;
unicode = 1B62;
},
{
glyphname = uni1B63;
lastChange = "2017-10-19 13:18:55 +0000";
layers = (
{
layerId = "3BC433F7-38BC-4C75-8B4E-78FBECB68114";
paths = (
{
closed = 1;
nodes = (
"276 -29 OFFCURVE",
"356 149 OFFCURVE",
"356 407 CURVE SMOOTH",
"356 551 LINE",
"317 551 LINE",
"317 407 LINE SMOOTH",
"317 186 OFFCURVE",
"225 49 OFFCURVE",
"140 49 CURVE SMOOTH",
"103 49 OFFCURVE",
"83 67 OFFCURVE",
"83 103 CURVE SMOOTH",
"83 193 OFFCURVE",
"242 274 OFFCURVE",
"266 477 CURVE",
"238 490 LINE",
"200 274 OFFCURVE",
"39 214 OFFCURVE",
"39 90 CURVE SMOOTH",
"39 19 OFFCURVE",
"79 -29 OFFCURVE",
"150 -29 CURVE SMOOTH"
);
}
);
width = 420;
}
);
note = uni1B63;
unicode = 1B63;
},
{
glyphname = uni1B64;
lastChange = "2017-10-19 13:18:55 +0000";
layers = (
{
layerId = "3BC433F7-38BC-4C75-8B4E-78FBECB68114";
paths = (
{
closed = 1;
nodes = (
"440 9 LINE",
"320 310 LINE SMOOTH",
"270 435 OFFCURVE",
"216 546 OFFCURVE",
"146 546 CURVE SMOOTH",
"67 546 OFFCURVE",
"49 408 OFFCURVE",
"49 352 CURVE",
"88 349 LINE",
"90 389 OFFCURVE",
"107 443 OFFCURVE",
"157 443 CURVE SMOOTH",
"202 443 OFFCURVE",
"245 374 OFFCURVE",
"293 254 CURVE SMOOTH",
"399 -10 LINE"
);
}
);
width = 479;
}
);
note = uni1B64;
unicode = 1B64;
},
{
glyphname = uni1B65;
lastChange = "2017-10-19 13:18:55 +0000";
layers = (
{
layerId = "3BC433F7-38BC-4C75-8B4E-78FBECB68114";
paths = (
{
closed = 1;
nodes = (
"579 20 LINE",
"292 43 OFFCURVE",
"164 321 OFFCURVE",
"135 532 CURVE",
"39 554 LINE",
"54 315 OFFCURVE",
"275 -4 OFFCURVE",
"567 -10 CURVE"
);
}
);
width = 608;
}
);
note = uni1B65;
unicode = 1B65;
},
{
glyphname = uni1B66;
lastChange = "2017-10-19 13:18:55 +0000";
layers = (
{
layerId = "3BC433F7-38BC-4C75-8B4E-78FBECB68114";
paths = (
{
closed = 1;
nodes = (
"163 64 OFFCURVE",
"112 150 OFFCURVE",
"112 267 CURVE SMOOTH",
"112 388 OFFCURVE",
"198 463 OFFCURVE",
"330 463 CURVE SMOOTH",
"470 463 OFFCURVE",
"551 390 OFFCURVE",
"551 267 CURVE SMOOTH",
"551 152 OFFCURVE",
"503 67 OFFCURVE",
"421 34 CURVE",
"439 -10 LINE",
"539 29 OFFCURVE",
"600 135 OFFCURVE",
"600 266 CURVE SMOOTH",
"600 432 OFFCURVE",
"494 546 OFFCURVE",
"333 546 CURVE SMOOTH",
"171 546 OFFCURVE",
"63 434 OFFCURVE",
"63 266 CURVE SMOOTH",
"63 129 OFFCURVE",
"125 28 OFFCURVE",
"226 -10 CURVE",
"243 35 LINE"
);
}
);
width = 664;
}
);
note = uni1B66;
unicode = 1B66;
},
{
glyphname = uni1B67;
lastChange = "2017-10-19 13:18:55 +0000";
layers = (
{
layerId = "3BC433F7-38BC-4C75-8B4E-78FBECB68114";
paths = (
{
closed = 1;
nodes = (
"443 424 OFFCURVE",
"575 463 OFFCURVE",
"674 463 CURVE SMOOTH",
"729 463 OFFCURVE",
"755 446 OFFCURVE",
"780 425 CURVE",
"397 237 LINE",
"416 203 LINE",
"901 436 LINE",
"864 490 OFFCURVE",
"789 546 OFFCURVE",
"700 546 CURVE SMOOTH",
"478 546 OFFCURVE",
"354 392 OFFCURVE",
"234 202 CURVE",
"257 186 LINE"
);
},
{
closed = 1;
nodes = (
"290 22 LINE",
"234 86 OFFCURVE",
"138 198 OFFCURVE",
"83 273 CURVE",
"39 228 LINE",
"89 153 OFFCURVE",
"199 45 OFFCURVE",
"269 -3 CURVE"
);
}
);
width = 940;
}
);
note = uni1B67;
unicode = 1B67;
},
{
glyphname = uni1B68;
lastChange = "2017-10-19 13:18:55 +0000";
layers = (
{
layerId = "3BC433F7-38BC-4C75-8B4E-78FBECB68114";
paths = (
{
closed = 1;
nodes = (
"103 417 OFFCURVE",
"80 308 OFFCURVE",
"80 238 CURVE SMOOTH",
"80 191 OFFCURVE",
"106 157 OFFCURVE",
"169 114 CURVE SMOOTH",
"232 71 OFFCURVE",
"264 23 OFFCURVE",
"264 -41 CURVE SMOOTH",
"264 -160 OFFCURVE",
"188 -302 OFFCURVE",
"63 -435 CURVE",
"84 -464 LINE",
"246 -296 OFFCURVE",
"323 -138 OFFCURVE",
"323 28 CURVE SMOOTH",
"323 108 OFFCURVE",
"302 162 OFFCURVE",
"232 209 CURVE SMOOTH",
"198 232 LINE SMOOTH",
"158 259 OFFCURVE",
"140 292 OFFCURVE",
"140 335 CURVE SMOOTH",
"140 384 OFFCURVE",
"159 482 OFFCURVE",
"181 555 CURVE",
"147 564 LINE"
);
}
);
width = 387;
}
);
note = uni1B68;
unicode = 1B68;
},
{
glyphname = uni1B69;
lastChange = "2017-10-19 13:18:55 +0000";
layers = (
{
layerId = "3BC433F7-38BC-4C75-8B4E-78FBECB68114";
paths = (
{
closed = 1;
nodes = (
"563 -546 LINE",
"563 -396 LINE SMOOTH",
"563 -275 OFFCURVE",
"605 -244 OFFCURVE",
"686 -244 CURVE SMOOTH",
"765 -244 OFFCURVE",
"784 -292 OFFCURVE",
"799 -347 CURVE SMOOTH",
"836 -485 OFFCURVE",
"864 -546 OFFCURVE",
"962 -546 CURVE SMOOTH",
"1046 -546 OFFCURVE",
"1115 -490 OFFCURVE",
"1115 -316 CURVE SMOOTH",
"1115 454 LINE",
"1128 454 LINE SMOOTH",
"1174 454 OFFCURVE",
"1201 408 OFFCURVE",
"1201 306 CURVE SMOOTH",
"1201 -531 LINE",
"1240 -531 LINE",
"1240 310 LINE SMOOTH",
"1240 430 OFFCURVE",
"1234 537 OFFCURVE",
"1099 537 CURVE SMOOTH",
"1076 537 LINE",
"1076 -316 LINE SMOOTH",
"1076 -446 OFFCURVE",
"1026 -463 OFFCURVE",
"963 -463 CURVE SMOOTH",
"887 -463 OFFCURVE",
"855 -428 OFFCURVE",
"837 -332 CURVE SMOOTH",
"821 -249 OFFCURVE",
"797 -161 OFFCURVE",
"685 -161 CURVE SMOOTH",
"584 -161 OFFCURVE",
"524 -228 OFFCURVE",
"524 -392 CURVE SMOOTH",
"524 -463 LINE",
"512 -463 LINE SMOOTH",
"448 -463 OFFCURVE",
"411 -386 OFFCURVE",
"411 -333 CURVE SMOOTH",
"411 -102 OFFCURVE",
"875 -50 OFFCURVE",
"875 349 CURVE SMOOTH",
"875 456 OFFCURVE",
"832 546 OFFCURVE",
"718 546 CURVE SMOOTH",
"655 546 OFFCURVE",
"617 510 OFFCURVE",
"596 445 CURVE",
"575 510 OFFCURVE",
"536 546 OFFCURVE",
"474 546 CURVE SMOOTH",
"361 546 OFFCURVE",
"322 474 OFFCURVE",
"322 301 CURVE SMOOTH",
"322 83 LINE",
"310 83 LINE SMOOTH",
"268 83 OFFCURVE",
"238 121 OFFCURVE",
"238 204 CURVE SMOOTH",
"238 319 LINE SMOOTH",
"238 422 OFFCURVE",
"235 546 OFFCURVE",
"140 546 CURVE SMOOTH",
"42 546 OFFCURVE",
"39 405 OFFCURVE",
"39 335 CURVE",
"45 333 OFFCURVE",
"48 332 OFFCURVE",
"57 332 CURVE SMOOTH",
"67 332 OFFCURVE",
"71 334 OFFCURVE",
"78 336 CURVE",
"80 410 OFFCURVE",
"80 463 OFFCURVE",
"141 463 CURVE SMOOTH",
"187 463 OFFCURVE",
"199 424 OFFCURVE",
"199 322 CURVE SMOOTH",
"199 227 LINE SMOOTH",
"199 107 OFFCURVE",
"203 0 OFFCURVE",
"338 0 CURVE SMOOTH",
"361 0 LINE",
"361 301 LINE SMOOTH",
"361 430 OFFCURVE",
"405 463 OFFCURVE",
"474 463 CURVE SMOOTH",
"532 463 OFFCURVE",
"579 411 OFFCURVE",
"579 358 CURVE",
"613 358 LINE",
"619 428 OFFCURVE",
"668 463 OFFCURVE",
"718 463 CURVE SMOOTH",
"788 463 OFFCURVE",
"827 418 OFFCURVE",
"827 352 CURVE SMOOTH",
"827 51 OFFCURVE",
"362 -28 OFFCURVE",
"362 -330 CURVE SMOOTH",
"362 -435 OFFCURVE",
"405 -546 OFFCURVE",
"541 -546 CURVE SMOOTH"
);
}
);
width = 1303;
}
);
note = uni1B69;
unicode = 1B69;
},
{
glyphname = uni1B6A;
lastChange = "2017-10-19 13:18:55 +0000";
layers = (
{
layerId = "3BC433F7-38BC-4C75-8B4E-78FBECB68114";
paths = (
{
closed = 1;
nodes = (
"114 180 LINE SMOOTH",
"237 180 OFFCURVE",
"314 132 OFFCURVE",
"314 46 CURVE SMOOTH",
"314 -21 OFFCURVE",
"292 -91 OFFCURVE",
"249 -164 CURVE SMOOTH",
"206 -236 OFFCURVE",
"184 -313 OFFCURVE",
"184 -392 CURVE SMOOTH",
"184 -433 OFFCURVE",
"204 -519 OFFCURVE",
"224 -546 CURVE",
"249 -527 LINE",
"237 -493 OFFCURVE",
"232 -460 OFFCURVE",
"232 -421 CURVE SMOOTH",
"232 -372 OFFCURVE",
"254 -307 OFFCURVE",
"298 -226 CURVE SMOOTH",
"342 -145 OFFCURVE",
"363 -65 OFFCURVE",
"363 14 CURVE SMOOTH",
"363 103 OFFCURVE",
"321 165 OFFCURVE",
"237 200 CURVE",
"302 232 OFFCURVE",
"341 289 OFFCURVE",
"341 349 CURVE SMOOTH",
"341 470 OFFCURVE",
"280 546 OFFCURVE",
"187 546 CURVE SMOOTH",
"92 546 OFFCURVE",
"39 463 OFFCURVE",
"39 335 CURVE",
"45 333 OFFCURVE",
"51 332 OFFCURVE",
"57 332 CURVE SMOOTH",
"62 332 OFFCURVE",
"69 333 OFFCURVE",
"78 336 CURVE",
"80 417 OFFCURVE",
"121 463 OFFCURVE",
"188 463 CURVE SMOOTH",
"251 463 OFFCURVE",
"292 422 OFFCURVE",
"292 352 CURVE SMOOTH",
"292 264 OFFCURVE",
"236 219 OFFCURVE",
"125 219 CURVE SMOOTH",
"99 219 LINE",
"94 180 LINE"
);
}
);
width = 412;
}
);
note = uni1B6A;
unicode = 1B6A;
},
{
glyphname = uni1B6B;
lastChange = "2017-10-19 13:19:19 +0000";
layers = (
{
layerId = "3BC433F7-38BC-4C75-8B4E-78FBECB68114";
paths = (
{
closed = 1;
nodes = (
"-161 815 OFFCURVE",
"-196 837 OFFCURVE",
"-230 837 CURVE SMOOTH",
"-274 837 OFFCURVE",
"-302 794 OFFCURVE",
"-302 734 CURVE SMOOTH",
"-302 666 OFFCURVE",
"-265 620 OFFCURVE",
"-206 620 CURVE SMOOTH",
"-161 620 OFFCURVE",
"-115 657 OFFCURVE",
"-98 708 CURVE",
"-116 721 LINE",
"-130 699 OFFCURVE",
"-158 688 OFFCURVE",
"-201 688 CURVE SMOOTH",
"-237 688 OFFCURVE",
"-263 712 OFFCURVE",
"-263 738 CURVE SMOOTH",
"-263 755 OFFCURVE",
"-252 769 OFFCURVE",
"-225 769 CURVE SMOOTH",
"-206 769 OFFCURVE",
"-178 760 OFFCURVE",
"-159 746 CURVE",
"-138 764 LINE"
);
}
);
width = 0;
}
);
note = uni1B6B;
unicode = 1B6B;
},
{
glyphname = uni1B6C;
lastChange = "2017-10-19 13:19:21 +0000";
layers = (
{
layerId = "3BC433F7-38BC-4C75-8B4E-78FBECB68114";
paths = (
{
closed = 1;
nodes = (
"-161 -162 OFFCURVE",
"-196 -140 OFFCURVE",
"-230 -140 CURVE SMOOTH",
"-274 -140 OFFCURVE",
"-302 -182 OFFCURVE",
"-302 -242 CURVE SMOOTH",
"-302 -311 OFFCURVE",
"-265 -356 OFFCURVE",
"-206 -356 CURVE SMOOTH",
"-161 -356 OFFCURVE",
"-115 -320 OFFCURVE",
"-98 -269 CURVE",
"-116 -256 LINE",
"-130 -277 OFFCURVE",
"-158 -288 OFFCURVE",
"-201 -288 CURVE SMOOTH",
"-237 -288 OFFCURVE",
"-263 -265 OFFCURVE",
"-263 -239 CURVE SMOOTH",
"-263 -222 OFFCURVE",
"-252 -208 OFFCURVE",
"-225 -208 CURVE SMOOTH",
"-206 -208 OFFCURVE",
"-178 -217 OFFCURVE",
"-159 -231 CURVE",
"-138 -213 LINE"
);
}
);
width = 0;
}
);
note = uni1B6C;
unicode = 1B6C;
},
{
glyphname = uni1B6D;
lastChange = "2017-10-19 13:19:19 +0000";
layers = (
{
layerId = "3BC433F7-38BC-4C75-8B4E-78FBECB68114";
paths = (
{
closed = 1;
nodes = (
"-452 744 OFFCURVE",
"-392 735 OFFCURVE",
"-330 735 CURVE SMOOTH",
"-321 735 LINE",
"-328 688 OFFCURVE",
"-334 652 OFFCURVE",
"-339 626 CURVE",
"-307 614 LINE",
"-294 668 OFFCURVE",
"-286 709 OFFCURVE",
"-281 737 CURVE",
"-209 744 OFFCURVE",
"-141 758 OFFCURVE",
"-75 782 CURVE",
"-88 814 LINE",
"-146 798 OFFCURVE",
"-207 790 OFFCURVE",
"-272 790 CURVE",
"-267 821 OFFCURVE",
"-264 850 OFFCURVE",
"-264 878 CURVE SMOOTH",
"-264 938 OFFCURVE",
"-287 979 OFFCURVE",
"-323 979 CURVE SMOOTH",
"-341 979 OFFCURVE",
"-372 944 OFFCURVE",
"-402 910 CURVE",
"-385 888 LINE",
"-350 918 LINE",
"-323 917 OFFCURVE",
"-309 900 OFFCURVE",
"-309 854 CURVE SMOOTH",
"-309 841 OFFCURVE",
"-311 820 OFFCURVE",
"-314 791 CURVE",
"-363 795 OFFCURVE",
"-413 806 OFFCURVE",
"-463 824 CURVE",
"-511 760 LINE"
);
}
);
width = 0;
}
);
note = uni1B6D;
unicode = 1B6D;
},
{
glyphname = uni1B6E;
lastChange = "2017-10-19 13:19:19 +0000";
layers = (
{
layerId = "3BC433F7-38BC-4C75-8B4E-78FBECB68114";
paths = (
{
closed = 1;
nodes = (
"-452 744 OFFCURVE",
"-392 735 OFFCURVE",
"-330 735 CURVE SMOOTH",
"-256 735 OFFCURVE",
"-154 753 OFFCURVE",
"-75 782 CURVE",
"-88 814 LINE",
"-147 798 OFFCURVE",
"-208 790 OFFCURVE",
"-272 790 CURVE SMOOTH",
"-335 790 OFFCURVE",
"-398 801 OFFCURVE",
"-463 824 CURVE",
"-511 760 LINE"
);
}
);
width = 0;
}
);
note = uni1B6E;
unicode = 1B6E;
},
{
glyphname = uni1B6F;
lastChange = "2017-10-19 13:19:19 +0000";
layers = (
{
layerId = "3BC433F7-38BC-4C75-8B4E-78FBECB68114";
paths = (
{
closed = 1;
nodes = (
"-388 813 OFFCURVE",
"-461 715 OFFCURVE",
"-561 646 CURVE",
"-544 615 LINE",
"-455 669 OFFCURVE",
"-381 742 OFFCURVE",
"-323 833 CURVE",
"-259 737 OFFCURVE",
"-186 665 OFFCURVE",
"-104 615 CURVE",
"-88 646 LINE",
"-160 694 OFFCURVE",
"-254 817 OFFCURVE",
"-287 894 CURVE",
"-275 917 OFFCURVE",
"-267 936 OFFCURVE",
"-261 949 CURVE",
"-342 938 LINE"
);
}
);
width = 0;
}
);
note = uni1B6F;
unicode = 1B6F;
},
{
glyphname = uni1B70;
lastChange = "2017-10-19 13:19:19 +0000";
layers = (
{
layerId = "3BC433F7-38BC-4C75-8B4E-78FBECB68114";
paths = (
{
closed = 1;
nodes = (
"-296 663 OFFCURVE",
"-288 702 OFFCURVE",
"-281 734 CURVE",
"-240 687 OFFCURVE",
"-192 647 OFFCURVE",
"-139 615 CURVE",
"-122 646 LINE",
"-157 669 OFFCURVE",
"-215 723 OFFCURVE",
"-250 774 CURVE",
"-191 782 OFFCURVE",
"-128 797 OFFCURVE",
"-75 816 CURVE",
"-88 848 LINE",
"-146 832 OFFCURVE",
"-215 824 OFFCURVE",
"-267 824 CURVE",
"-265 848 OFFCURVE",
"-264 864 OFFCURVE",
"-264 878 CURVE SMOOTH",
"-264 917 OFFCURVE",
"-276 979 OFFCURVE",
"-323 979 CURVE SMOOTH",
"-343 979 OFFCURVE",
"-376 940 OFFCURVE",
"-402 910 CURVE",
"-385 888 LINE",
"-350 918 LINE",
"-313 917 OFFCURVE",
"-309 882 OFFCURVE",
"-309 854 CURVE SMOOTH",
"-309 848 OFFCURVE",
"-310 837 OFFCURVE",
"-311 825 CURVE",
"-363 829 OFFCURVE",
"-414 840 OFFCURVE",
"-463 858 CURVE",
"-511 794 LINE",
"-461 780 OFFCURVE",
"-409 772 OFFCURVE",
"-356 770 CURVE",
"-392 726 OFFCURVE",
"-441 678 OFFCURVE",
"-487 646 CURVE",
"-471 615 LINE",
"-421 646 OFFCURVE",
"-365 692 OFFCURVE",
"-321 736 CURVE",
"-326 700 OFFCURVE",
"-333 662 OFFCURVE",
"-339 626 CURVE",
"-307 614 LINE"
);
}
);
width = 0;
}
);
note = uni1B70;
unicode = 1B70;
},
{
glyphname = uni1B71;
lastChange = "2017-10-19 13:19:19 +0000";
layers = (
{
layerId = "3BC433F7-38BC-4C75-8B4E-78FBECB68114";
paths = (
{
closed = 1;
nodes = (
"-471 846 OFFCURVE",
"-430 839 OFFCURVE",
"-389 835 CURVE",
"-432 758 OFFCURVE",
"-490 695 OFFCURVE",
"-561 646 CURVE",
"-544 615 LINE",
"-456 669 OFFCURVE",
"-381 742 OFFCURVE",
"-322 833 CURVE",
"-258 737 OFFCURVE",
"-186 664 OFFCURVE",
"-104 615 CURVE",
"-88 646 LINE",
"-138 679 OFFCURVE",
"-208 757 OFFCURVE",
"-257 837 CURVE",
"-193 845 OFFCURVE",
"-132 859 OFFCURVE",
"-75 880 CURVE",
"-88 912 LINE",
"-147 896 OFFCURVE",
"-208 887 OFFCURVE",
"-272 887 CURVE SMOOTH",
"-335 887 OFFCURVE",
"-398 898 OFFCURVE",
"-463 921 CURVE",
"-511 857 LINE"
);
}
);
width = 0;
}
);
note = uni1B71;
unicode = 1B71;
},
{
glyphname = uni1B72;
lastChange = "2017-10-19 13:19:19 +0000";
layers = (
{
layerId = "3BC433F7-38BC-4C75-8B4E-78FBECB68114";
paths = (
{
closed = 1;
nodes = (
"-462 733 OFFCURVE",
"-394 660 OFFCURVE",
"-312 603 CURVE",
"-263 696 OFFCURVE",
"-188 774 OFFCURVE",
"-88 837 CURVE",
"-93 917 LINE",
"-193 847 OFFCURVE",
"-271 761 OFFCURVE",
"-324 659 CURVE",
"-385 717 OFFCURVE",
"-424 791 OFFCURVE",
"-457 871 CURVE",
"-514 821 LINE"
);
}
);
width = 0;
}
);
note = uni1B72;
unicode = 1B72;
},
{
glyphname = uni1B73;
lastChange = "2017-10-19 13:19:19 +0000";
layers = (
{
layerId = "3BC433F7-38BC-4C75-8B4E-78FBECB68114";
paths = (
{
closed = 1;
nodes = (
"-351 969 OFFCURVE",
"-430 888 OFFCURVE",
"-430 794 CURVE SMOOTH",
"-430 700 OFFCURVE",
"-350 620 OFFCURVE",
"-256 620 CURVE SMOOTH",
"-162 620 OFFCURVE",
"-83 700 OFFCURVE",
"-83 794 CURVE SMOOTH",
"-83 888 OFFCURVE",
"-162 969 OFFCURVE",
"-256 969 CURVE SMOOTH"
);
},
{
closed = 1;
nodes = (
"-331 661 OFFCURVE",
"-391 721 OFFCURVE",
"-391 794 CURVE SMOOTH",
"-391 869 OFFCURVE",
"-331 929 OFFCURVE",
"-256 929 CURVE SMOOTH",
"-181 929 OFFCURVE",
"-123 868 OFFCURVE",
"-123 794 CURVE SMOOTH",
"-123 722 OFFCURVE",
"-180 661 OFFCURVE",
"-256 661 CURVE SMOOTH"
);
},
{
closed = 1;
nodes = (
"-280 840 OFFCURVE",
"-300 820 OFFCURVE",
"-300 796 CURVE SMOOTH",
"-300 772 OFFCURVE",
"-280 752 OFFCURVE",
"-256 752 CURVE SMOOTH",
"-232 752 OFFCURVE",
"-212 772 OFFCURVE",
"-212 796 CURVE SMOOTH",
"-212 820 OFFCURVE",
"-232 840 OFFCURVE",
"-256 840 CURVE SMOOTH"
);
}
);
width = 0;
}
);
note = uni1B73;
unicode = 1B73;
},
{
glyphname = uni1B74;
lastChange = "2017-10-19 13:18:55 +0000";
layers = (
{
layerId = "3BC433F7-38BC-4C75-8B4E-78FBECB68114";
paths = (
{
closed = 1;
nodes = (
"81 -6 OFFCURVE",
"92 0 OFFCURVE",
"100 17 CURVE SMOOTH",
"301 433 LINE",
"501 17 LINE SMOOTH",
"509 0 OFFCURVE",
"520 -6 OFFCURVE",
"531 -6 CURVE SMOOTH",
"548 -6 OFFCURVE",
"572 8 OFFCURVE",
"572 29 CURVE SMOOTH",
"572 35 OFFCURVE",
"570 41 OFFCURVE",
"567 48 CURVE SMOOTH",
"327 546 LINE",
"274 546 LINE",
"34 48 LINE SMOOTH",
"31 41 OFFCURVE",
"29 35 OFFCURVE",
"29 29 CURVE SMOOTH",
"29 8 OFFCURVE",
"53 -6 OFFCURVE",
"70 -6 CURVE SMOOTH"
);
}
);
width = 601;
}
);
note = uni1B74;
unicode = 1B74;
},
{
glyphname = uni1B75;
lastChange = "2017-10-19 13:18:55 +0000";
layers = (
{
layerId = "3BC433F7-38BC-4C75-8B4E-78FBECB68114";
paths = (
{
closed = 1;
nodes = (
"156 546 OFFCURVE",
"63 428 OFFCURVE",
"63 265 CURVE SMOOTH",
"63 101 OFFCURVE",
"154 -9 OFFCURVE",
"288 -9 CURVE SMOOTH",
"421 -9 OFFCURVE",
"508 99 OFFCURVE",
"508 265 CURVE SMOOTH",
"508 435 OFFCURVE",
"417 546 OFFCURVE",
"288 546 CURVE SMOOTH"
);
},
{
closed = 1;
nodes = (
"179 74 OFFCURVE",
"112 150 OFFCURVE",
"112 267 CURVE SMOOTH",
"112 386 OFFCURVE",
"179 463 OFFCURVE",
"287 463 CURVE SMOOTH",
"394 463 OFFCURVE",
"459 387 OFFCURVE",
"459 267 CURVE SMOOTH",
"459 146 OFFCURVE",
"392 74 OFFCURVE",
"287 74 CURVE SMOOTH"
);
}
);
width = 571;
}
);
note = uni1B75;
unicode = 1B75;
},
{
glyphname = uni1B76;
lastChange = "2017-10-19 13:18:55 +0000";
layers = (
{
layerId = "3BC433F7-38BC-4C75-8B4E-78FBECB68114";
paths = (
{
closed = 1;
nodes = (
"327 546 LINE",
"274 546 LINE",
"209 411 LINE",
"75 560 LINE SMOOTH",
"66 570 OFFCURVE",
"57 574 OFFCURVE",
"48 574 CURVE SMOOTH",
"27 574 OFFCURVE",
"10 554 OFFCURVE",
"10 531 CURVE SMOOTH",
"10 523 OFFCURVE",
"15 517 OFFCURVE",
"21 510 CURVE SMOOTH",
"175 341 LINE",
"34 48 LINE SMOOTH",
"31 41 OFFCURVE",
"29 35 OFFCURVE",
"29 29 CURVE SMOOTH",
"29 8 OFFCURVE",
"53 -6 OFFCURVE",
"70 -6 CURVE SMOOTH",
"81 -6 OFFCURVE",
"92 0 OFFCURVE",
"100 17 CURVE SMOOTH",
"228 282 LINE",
"264 243 LINE SMOOTH",
"274 233 OFFCURVE",
"281 229 OFFCURVE",
"292 229 CURVE SMOOTH",
"314 229 OFFCURVE",
"330 250 OFFCURVE",
"330 268 CURVE SMOOTH",
"330 278 OFFCURVE",
"324 285 OFFCURVE",
"317 292 CURVE SMOOTH",
"262 353 LINE",
"301 433 LINE",
"501 17 LINE SMOOTH",
"509 0 OFFCURVE",
"520 -6 OFFCURVE",
"531 -6 CURVE SMOOTH",
"548 -6 OFFCURVE",
"572 8 OFFCURVE",
"572 29 CURVE SMOOTH",
"572 35 OFFCURVE",
"570 41 OFFCURVE",
"567 48 CURVE SMOOTH"
);
}
);
width = 601;
}
);
note = uni1B76;
unicode = 1B76;
},
{
glyphname = uni1B77;
lastChange = "2017-10-19 13:18:55 +0000";
layers = (
{
layerId = "3BC433F7-38BC-4C75-8B4E-78FBECB68114";
paths = (
{
closed = 1;
nodes = (
"235 546 OFFCURVE",
"190 528 OFFCURVE",
"155 498 CURVE",
"99 560 LINE SMOOTH",
"90 570 OFFCURVE",
"82 574 OFFCURVE",
"73 574 CURVE SMOOTH",
"51 574 OFFCURVE",
"34 554 OFFCURVE",
"34 531 CURVE SMOOTH",
"34 523 OFFCURVE",
"39 517 OFFCURVE",
"45 510 CURVE SMOOTH",
"108 441 LINE",
"78 393 OFFCURVE",
"63 331 OFFCURVE",
"63 265 CURVE SMOOTH",
"63 114 OFFCURVE",
"145 -9 OFFCURVE",
"288 -9 CURVE SMOOTH",
"432 -9 OFFCURVE",
"508 114 OFFCURVE",
"508 265 CURVE SMOOTH",
"508 417 OFFCURVE",
"432 546 OFFCURVE",
"288 546 CURVE SMOOTH"
);
},
{
closed = 1;
nodes = (
"189 74 OFFCURVE",
"112 139 OFFCURVE",
"112 267 CURVE SMOOTH",
"112 322 OFFCURVE",
"126 365 OFFCURVE",
"149 397 CURVE",
"289 243 LINE SMOOTH",
"299 233 OFFCURVE",
"308 229 OFFCURVE",
"316 229 CURVE SMOOTH",
"338 229 OFFCURVE",
"354 250 OFFCURVE",
"354 268 CURVE SMOOTH",
"354 278 OFFCURVE",
"348 285 OFFCURVE",
"342 292 CURVE SMOOTH",
"204 444 LINE",
"229 457 OFFCURVE",
"257 463 OFFCURVE",
"287 463 CURVE SMOOTH",
"384 463 OFFCURVE",
"459 397 OFFCURVE",
"459 267 CURVE SMOOTH",
"459 139 OFFCURVE",
"384 74 OFFCURVE",
"287 74 CURVE SMOOTH"
);
}
);
width = 571;
}
);
note = uni1B77;
unicode = 1B77;
},
{
glyphname = uni1B78;
lastChange = "2017-10-19 13:18:55 +0000";
layers = (
{
layerId = "3BC433F7-38BC-4C75-8B4E-78FBECB68114";
paths = (
{
closed = 1;
nodes = (
"51 320 OFFCURVE",
"39 306 OFFCURVE",
"39 277 CURVE SMOOTH",
"39 252 OFFCURVE",
"52 237 OFFCURVE",
"76 237 CURVE SMOOTH",
"515 237 LINE SMOOTH",
"538 237 OFFCURVE",
"551 252 OFFCURVE",
"551 277 CURVE SMOOTH",
"551 306 OFFCURVE",
"539 320 OFFCURVE",
"515 320 CURVE SMOOTH",
"76 320 LINE SMOOTH"
);
}
);
width = 590;
}
);
note = uni1B78;
unicode = 1B78;
},
{
glyphname = uni1B79;
lastChange = "2017-10-19 13:18:55 +0000";
layers = (
{
layerId = "3BC433F7-38BC-4C75-8B4E-78FBECB68114";
paths = (
{
closed = 1;
nodes = (
"523 0 LINE SMOOTH",
"552 0 OFFCURVE",
"560 22 OFFCURVE",
"560 41 CURVE SMOOTH",
"560 61 OFFCURVE",
"552 83 OFFCURVE",
"523 83 CURVE SMOOTH",
"153 83 LINE",
"546 481 LINE SMOOTH",
"556 491 OFFCURVE",
"560 500 OFFCURVE",
"560 508 CURVE SMOOTH",
"560 528 OFFCURVE",
"539 546 OFFCURVE",
"521 546 CURVE SMOOTH",
"511 546 OFFCURVE",
"501 540 OFFCURVE",
"496 534 CURVE SMOOTH",
"49 82 LINE",
"84 0 LINE"
);
}
);
width = 624;
}
);
note = uni1B79;
unicode = 1B79;
},
{
glyphname = uni1B7A;
lastChange = "2017-10-19 13:18:55 +0000";
layers = (
{
layerId = "3BC433F7-38BC-4C75-8B4E-78FBECB68114";
paths = (
{
closed = 1;
nodes = (
"163 489 OFFCURVE",
"145 470 OFFCURVE",
"145 446 CURVE SMOOTH",
"145 440 OFFCURVE",
"148 434 OFFCURVE",
"156 425 CURVE SMOOTH",
"252 320 LINE",
"76 320 LINE SMOOTH",
"51 320 OFFCURVE",
"39 306 OFFCURVE",
"39 277 CURVE SMOOTH",
"39 252 OFFCURVE",
"52 237 OFFCURVE",
"76 237 CURVE SMOOTH",
"328 237 LINE",
"424 132 LINE SMOOTH",
"432 123 OFFCURVE",
"441 118 OFFCURVE",
"451 118 CURVE SMOOTH",
"470 118 OFFCURVE",
"489 135 OFFCURVE",
"489 157 CURVE SMOOTH",
"489 165 OFFCURVE",
"485 173 OFFCURVE",
"477 182 CURVE SMOOTH",
"427 237 LINE",
"515 237 LINE SMOOTH",
"538 237 OFFCURVE",
"551 252 OFFCURVE",
"551 277 CURVE SMOOTH",
"551 306 OFFCURVE",
"539 320 OFFCURVE",
"515 320 CURVE SMOOTH",
"351 320 LINE",
"209 475 LINE SMOOTH",
"201 484 OFFCURVE",
"192 489 OFFCURVE",
"183 489 CURVE SMOOTH"
);
}
);
width = 590;
}
);
note = uni1B7A;
unicode = 1B7A;
},
{
glyphname = uni1B7B;
lastChange = "2017-10-19 13:18:55 +0000";
layers = (
{
layerId = "3BC433F7-38BC-4C75-8B4E-78FBECB68114";
paths = (
{
closed = 1;
nodes = (
"153 83 LINE",
"330 263 LINE",
"372 217 LINE SMOOTH",
"381 207 OFFCURVE",
"391 203 OFFCURVE",
"399 203 CURVE SMOOTH",
"422 203 OFFCURVE",
"437 224 OFFCURVE",
"437 242 CURVE SMOOTH",
"437 252 OFFCURVE",
"432 259 OFFCURVE",
"425 267 CURVE SMOOTH",
"382 315 LINE",
"546 481 LINE SMOOTH",
"556 491 OFFCURVE",
"560 500 OFFCURVE",
"560 508 CURVE SMOOTH",
"560 528 OFFCURVE",
"539 546 OFFCURVE",
"521 546 CURVE SMOOTH",
"511 546 OFFCURVE",
"501 540 OFFCURVE",
"496 534 CURVE SMOOTH",
"332 369 LINE",
"158 560 LINE SMOOTH",
"149 570 OFFCURVE",
"140 574 OFFCURVE",
"131 574 CURVE SMOOTH",
"110 574 OFFCURVE",
"93 554 OFFCURVE",
"93 531 CURVE SMOOTH",
"93 523 OFFCURVE",
"98 517 OFFCURVE",
"104 510 CURVE SMOOTH",
"281 317 LINE",
"49 82 LINE",
"84 0 LINE",
"523 0 LINE SMOOTH",
"552 0 OFFCURVE",
"560 22 OFFCURVE",
"560 41 CURVE SMOOTH",
"560 61 OFFCURVE",
"552 83 OFFCURVE",
"523 83 CURVE SMOOTH"
);
}
);
width = 633;
}
);
note = uni1B7B;
unicode = 1B7B;
},
{
glyphname = uni1B7C;
lastChange = "2017-10-19 13:18:55 +0000";
layers = (
{
layerId = "3BC433F7-38BC-4C75-8B4E-78FBECB68114";
paths = (
{
closed = 1;
nodes = (
"143 375 OFFCURVE",
"98 329 OFFCURVE",
"98 271 CURVE SMOOTH",
"98 213 OFFCURVE",
"144 168 OFFCURVE",
"201 168 CURVE SMOOTH",
"259 168 OFFCURVE",
"305 214 OFFCURVE",
"305 271 CURVE SMOOTH",
"305 330 OFFCURVE",
"258 375 OFFCURVE",
"201 375 CURVE SMOOTH"
);
}
);
width = 402;
}
);
note = uni1B7C;
unicode = 1B7C;
},
{
glyphname = uni25CC;
lastChange = "2017-10-19 13:18:59 +0000";
layers = (
{
layerId = "3BC433F7-38BC-4C75-8B4E-78FBECB68114";
paths = (
{
closed = 1;
nodes = (
"199 522 OFFCURVE",
"187 510 OFFCURVE",
"187 496 CURVE SMOOTH",
"187 482 OFFCURVE",
"199 470 OFFCURVE",
"213 470 CURVE SMOOTH",
"227 470 OFFCURVE",
"239 482 OFFCURVE",
"239 496 CURVE SMOOTH",
"239 510 OFFCURVE",
"227 522 OFFCURVE",
"213 522 CURVE SMOOTH"
);
},
{
closed = 1;
nodes = (
"367 522 OFFCURVE",
"355 510 OFFCURVE",
"355 496 CURVE SMOOTH",
"355 482 OFFCURVE",
"367 470 OFFCURVE",
"381 470 CURVE SMOOTH",
"395 470 OFFCURVE",
"407 482 OFFCURVE",
"407 496 CURVE SMOOTH",
"407 510 OFFCURVE",
"395 522 OFFCURVE",
"381 522 CURVE SMOOTH"
);
},
{
closed = 1;
nodes = (
"199 112 OFFCURVE",
"187 100 OFFCURVE",
"187 86 CURVE SMOOTH",
"187 72 OFFCURVE",
"199 60 OFFCURVE",
"213 60 CURVE SMOOTH",
"227 60 OFFCURVE",
"239 72 OFFCURVE",
"239 86 CURVE SMOOTH",
"239 100 OFFCURVE",
"227 112 OFFCURVE",
"213 112 CURVE SMOOTH"
);
},
{
closed = 1;
nodes = (
"367 112 OFFCURVE",
"355 100 OFFCURVE",
"355 86 CURVE SMOOTH",
"355 72 OFFCURVE",
"367 60 OFFCURVE",
"381 60 CURVE SMOOTH",
"395 60 OFFCURVE",
"407 72 OFFCURVE",
"407 86 CURVE SMOOTH",
"407 100 OFFCURVE",
"395 112 OFFCURVE",
"381 112 CURVE SMOOTH"
);
},
{
closed = 1;
nodes = (
"283 540 OFFCURVE",
"271 528 OFFCURVE",
"271 514 CURVE SMOOTH",
"271 500 OFFCURVE",
"283 488 OFFCURVE",
"297 488 CURVE SMOOTH",
"311 488 OFFCURVE",
"323 500 OFFCURVE",
"323 514 CURVE SMOOTH",
"323 528 OFFCURVE",
"311 540 OFFCURVE",
"297 540 CURVE SMOOTH"
);
},
{
closed = 1;
nodes = (
"283 94 OFFCURVE",
"271 82 OFFCURVE",
"271 68 CURVE SMOOTH",
"271 54 OFFCURVE",
"283 42 OFFCURVE",
"297 42 CURVE SMOOTH",
"311 42 OFFCURVE",
"323 54 OFFCURVE",
"323 68 CURVE SMOOTH",
"323 82 OFFCURVE",
"311 94 OFFCURVE",
"297 94 CURVE SMOOTH"
);
},
{
closed = 1;
nodes = (
"48 277 OFFCURVE",
"60 265 OFFCURVE",
"74 265 CURVE SMOOTH",
"88 265 OFFCURVE",
"100 277 OFFCURVE",
"100 291 CURVE SMOOTH",
"100 305 OFFCURVE",
"88 317 OFFCURVE",
"74 317 CURVE SMOOTH",
"60 317 OFFCURVE",
"48 305 OFFCURVE",
"48 291 CURVE SMOOTH"
);
},
{
closed = 1;
nodes = (
"494 277 OFFCURVE",
"506 265 OFFCURVE",
"520 265 CURVE SMOOTH",
"534 265 OFFCURVE",
"546 277 OFFCURVE",
"546 291 CURVE SMOOTH",
"546 305 OFFCURVE",
"534 317 OFFCURVE",
"520 317 CURVE SMOOTH",
"506 317 OFFCURVE",
"494 305 OFFCURVE",
"494 291 CURVE SMOOTH"
);
},
{
closed = 1;
nodes = (
"113 119 OFFCURVE",
"125 107 OFFCURVE",
"139 107 CURVE SMOOTH",
"153 107 OFFCURVE",
"165 119 OFFCURVE",
"165 133 CURVE SMOOTH",
"165 147 OFFCURVE",
"153 159 OFFCURVE",
"139 159 CURVE SMOOTH",
"125 159 OFFCURVE",
"113 147 OFFCURVE",
"113 133 CURVE SMOOTH"
);
},
{
closed = 1;
nodes = (
"113 435 OFFCURVE",
"125 423 OFFCURVE",
"139 423 CURVE SMOOTH",
"153 423 OFFCURVE",
"165 435 OFFCURVE",
"165 449 CURVE SMOOTH",
"165 463 OFFCURVE",
"153 475 OFFCURVE",
"139 475 CURVE SMOOTH",
"125 475 OFFCURVE",
"113 463 OFFCURVE",
"113 449 CURVE SMOOTH"
);
},
{
closed = 1;
nodes = (
"429 119 OFFCURVE",
"441 107 OFFCURVE",
"455 107 CURVE SMOOTH",
"469 107 OFFCURVE",
"481 119 OFFCURVE",
"481 133 CURVE SMOOTH",
"481 147 OFFCURVE",
"469 159 OFFCURVE",
"455 159 CURVE SMOOTH",
"441 159 OFFCURVE",
"429 147 OFFCURVE",
"429 133 CURVE SMOOTH"
);
},
{
closed = 1;
nodes = (
"429 435 OFFCURVE",
"441 423 OFFCURVE",
"455 423 CURVE SMOOTH",
"469 423 OFFCURVE",
"481 435 OFFCURVE",
"481 449 CURVE SMOOTH",
"481 463 OFFCURVE",
"469 475 OFFCURVE",
"455 475 CURVE SMOOTH",
"441 475 OFFCURVE",
"429 463 OFFCURVE",
"429 449 CURVE SMOOTH"
);
},
{
closed = 1;
nodes = (
"66 193 OFFCURVE",
"78 181 OFFCURVE",
"92 181 CURVE SMOOTH",
"106 181 OFFCURVE",
"118 193 OFFCURVE",
"118 207 CURVE SMOOTH",
"118 221 OFFCURVE",
"106 233 OFFCURVE",
"92 233 CURVE SMOOTH",
"78 233 OFFCURVE",
"66 221 OFFCURVE",
"66 207 CURVE SMOOTH"
);
},
{
closed = 1;
nodes = (
"66 361 OFFCURVE",
"78 349 OFFCURVE",
"92 349 CURVE SMOOTH",
"106 349 OFFCURVE",
"118 361 OFFCURVE",
"118 375 CURVE SMOOTH",
"118 389 OFFCURVE",
"106 401 OFFCURVE",
"92 401 CURVE SMOOTH",
"78 401 OFFCURVE",
"66 389 OFFCURVE",
"66 375 CURVE SMOOTH"
);
},
{
closed = 1;
nodes = (
"476 193 OFFCURVE",
"488 181 OFFCURVE",
"502 181 CURVE SMOOTH",
"516 181 OFFCURVE",
"528 193 OFFCURVE",
"528 207 CURVE SMOOTH",
"528 221 OFFCURVE",
"516 233 OFFCURVE",
"502 233 CURVE SMOOTH",
"488 233 OFFCURVE",
"476 221 OFFCURVE",
"476 207 CURVE SMOOTH"
);
},
{
closed = 1;
nodes = (
"476 361 OFFCURVE",
"488 349 OFFCURVE",
"502 349 CURVE SMOOTH",
"516 349 OFFCURVE",
"528 361 OFFCURVE",
"528 375 CURVE SMOOTH",
"528 389 OFFCURVE",
"516 401 OFFCURVE",
"502 401 CURVE SMOOTH",
"488 401 OFFCURVE",
"476 389 OFFCURVE",
"476 375 CURVE SMOOTH"
);
}
);
width = 594;
}
);
note = uni25CC;
unicode = 25CC;
},
{
glyphname = uni1B13.sub;
lastChange = "2017-10-19 13:20:04 +0000";
layers = (
{
layerId = "3BC433F7-38BC-4C75-8B4E-78FBECB68114";
paths = (
{
closed = 1;
nodes = (
"-575 -546 OFFCURVE",
"-553 -467 OFFCURVE",
"-553 -364 CURVE SMOOTH",
"-553 -356 LINE",
"-534 -355 OFFCURVE",
"-516 -355 OFFCURVE",
"-498 -355 CURVE",
"-492 -498 OFFCURVE",
"-397 -546 OFFCURVE",
"-319 -546 CURVE SMOOTH",
"-267 -546 OFFCURVE",
"-205 -517 OFFCURVE",
"-205 -452 CURVE SMOOTH",
"-205 -335 OFFCURVE",
"-315 -282 OFFCURVE",
"-458 -273 CURVE",
"-448 -177 OFFCURVE",
"-362 -150 OFFCURVE",
"-275 -150 CURVE SMOOTH",
"-138 -150 OFFCURVE",
"-103 -212 OFFCURVE",
"-103 -305 CURVE SMOOTH",
"-103 -536 LINE",
"-63 -536 LINE",
"-63 -303 LINE SMOOTH",
"-63 -146 OFFCURVE",
"-130 -67 OFFCURVE",
"-277 -67 CURVE SMOOTH",
"-410 -67 OFFCURVE",
"-494 -146 OFFCURVE",
"-498 -272 CURVE",
"-525 -272 OFFCURVE",
"-539 -273 OFFCURVE",
"-553 -274 CURVE",
"-554 -173 OFFCURVE",
"-568 -67 OFFCURVE",
"-659 -67 CURVE SMOOTH",
"-743 -67 OFFCURVE",
"-767 -169 OFFCURVE",
"-767 -239 CURVE",
"-760 -241 OFFCURVE",
"-758 -242 OFFCURVE",
"-749 -242 CURVE SMOOTH",
"-739 -242 OFFCURVE",
"-734 -240 OFFCURVE",
"-728 -238 CURVE",
"-726 -179 OFFCURVE",
"-709 -150 OFFCURVE",
"-665 -150 CURVE SMOOTH",
"-618 -150 OFFCURVE",
"-592 -179 OFFCURVE",
"-592 -279 CURVE",
"-678 -295 OFFCURVE",
"-748 -340 OFFCURVE",
"-748 -444 CURVE SMOOTH",
"-748 -495 OFFCURVE",
"-717 -546 OFFCURVE",
"-662 -546 CURVE SMOOTH"
);
},
{
closed = 1;
nodes = (
"-686 -497 OFFCURVE",
"-704 -480 OFFCURVE",
"-704 -438 CURVE SMOOTH",
"-704 -381 OFFCURVE",
"-657 -363 OFFCURVE",
"-592 -358 CURVE",
"-592 -368 LINE SMOOTH",
"-592 -470 OFFCURVE",
"-621 -497 OFFCURVE",
"-660 -497 CURVE SMOOTH"
);
},
{
closed = 1;
nodes = (
"-357 -497 OFFCURVE",
"-453 -479 OFFCURVE",
"-459 -357 CURVE",
"-343 -365 OFFCURVE",
"-253 -406 OFFCURVE",
"-253 -466 CURVE SMOOTH",
"-253 -487 OFFCURVE",
"-275 -497 OFFCURVE",
"-313 -497 CURVE SMOOTH"
);
}
);
width = 0;
}
);
note = uni1B13.sub;
},
{
glyphname = uni1B14.sub;
lastChange = "2017-10-19 13:20:04 +0000";
layers = (
{
layerId = "3BC433F7-38BC-4C75-8B4E-78FBECB68114";
paths = (
{
closed = 1;
nodes = (
"-256 -456 OFFCURVE",
"-273 -403 OFFCURVE",
"-273 -323 CURVE SMOOTH",
"-273 -303 LINE SMOOTH",
"-273 -146 OFFCURVE",
"-340 -67 OFFCURVE",
"-487 -67 CURVE SMOOTH",
"-620 -67 OFFCURVE",
"-704 -146 OFFCURVE",
"-708 -272 CURVE",
"-735 -272 OFFCURVE",
"-749 -273 OFFCURVE",
"-763 -274 CURVE",
"-764 -173 OFFCURVE",
"-778 -67 OFFCURVE",
"-869 -67 CURVE SMOOTH",
"-953 -67 OFFCURVE",
"-977 -169 OFFCURVE",
"-977 -239 CURVE",
"-970 -241 OFFCURVE",
"-968 -242 OFFCURVE",
"-959 -242 CURVE SMOOTH",
"-949 -242 OFFCURVE",
"-944 -240 OFFCURVE",
"-938 -238 CURVE",
"-936 -179 OFFCURVE",
"-919 -150 OFFCURVE",
"-875 -150 CURVE SMOOTH",
"-828 -150 OFFCURVE",
"-802 -179 OFFCURVE",
"-802 -279 CURVE",
"-888 -295 OFFCURVE",
"-958 -340 OFFCURVE",
"-958 -444 CURVE SMOOTH",
"-958 -495 OFFCURVE",
"-927 -546 OFFCURVE",
"-872 -546 CURVE SMOOTH",
"-785 -546 OFFCURVE",
"-763 -467 OFFCURVE",
"-763 -364 CURVE SMOOTH",
"-763 -356 LINE",
"-744 -355 OFFCURVE",
"-726 -355 OFFCURVE",
"-708 -355 CURVE",
"-702 -498 OFFCURVE",
"-607 -546 OFFCURVE",
"-529 -546 CURVE SMOOTH",
"-477 -546 OFFCURVE",
"-415 -517 OFFCURVE",
"-415 -452 CURVE SMOOTH",
"-415 -335 OFFCURVE",
"-525 -282 OFFCURVE",
"-668 -273 CURVE",
"-658 -177 OFFCURVE",
"-572 -150 OFFCURVE",
"-485 -150 CURVE SMOOTH",
"-348 -150 OFFCURVE",
"-313 -212 OFFCURVE",
"-313 -305 CURVE SMOOTH",
"-313 -339 LINE SMOOTH",
"-313 -458 OFFCURVE",
"-281 -541 OFFCURVE",
"-145 -541 CURVE SMOOTH",
"-82 -541 OFFCURVE",
"1 -544 OFFCURVE",
"24 -613 CURVE",
"58 -603 LINE",
"36 -490 OFFCURVE",
"-51 -460 OFFCURVE",
"-139 -458 CURVE SMOOTH"
);
},
{
closed = 1;
nodes = (
"-463 -487 OFFCURVE",
"-485 -497 OFFCURVE",
"-522 -497 CURVE SMOOTH",
"-567 -497 OFFCURVE",
"-663 -479 OFFCURVE",
"-669 -357 CURVE",
"-553 -365 OFFCURVE",
"-463 -406 OFFCURVE",
"-463 -466 CURVE SMOOTH"
);
},
{
closed = 1;
nodes = (
"-802 -470 OFFCURVE",
"-831 -497 OFFCURVE",
"-870 -497 CURVE SMOOTH",
"-896 -497 OFFCURVE",
"-914 -480 OFFCURVE",
"-914 -438 CURVE SMOOTH",
"-914 -381 OFFCURVE",
"-867 -363 OFFCURVE",
"-802 -358 CURVE",
"-802 -368 LINE SMOOTH"
);
}
);
width = 0;
}
);
note = uni1B14.sub;
},
{
glyphname = uni1B15.sub;
lastChange = "2017-10-19 13:20:04 +0000";
layers = (
{
layerId = "3BC433F7-38BC-4C75-8B4E-78FBECB68114";
paths = (
{
closed = 1;
nodes = (
"-464 -303 LINE SMOOTH",
"-464 -188 OFFCURVE",
"-394 -150 OFFCURVE",
"-283 -150 CURVE SMOOTH",
"-146 -150 OFFCURVE",
"-103 -208 OFFCURVE",
"-103 -305 CURVE SMOOTH",
"-103 -536 LINE",
"-63 -536 LINE",
"-63 -303 LINE SMOOTH",
"-63 -136 OFFCURVE",
"-137 -67 OFFCURVE",
"-284 -67 CURVE SMOOTH",
"-421 -67 OFFCURVE",
"-503 -149 OFFCURVE",
"-503 -303 CURVE SMOOTH",
"-503 -453 LINE",
"-538 -453 OFFCURVE",
"-563 -416 OFFCURVE",
"-563 -333 CURVE SMOOTH",
"-563 -285 LINE SMOOTH",
"-563 -182 OFFCURVE",
"-566 -67 OFFCURVE",
"-661 -67 CURVE SMOOTH",
"-740 -67 OFFCURVE",
"-761 -168 OFFCURVE",
"-761 -239 CURVE",
"-755 -240 OFFCURVE",
"-752 -242 OFFCURVE",
"-744 -242 CURVE SMOOTH",
"-733 -242 OFFCURVE",
"-729 -240 OFFCURVE",
"-722 -238 CURVE",
"-721 -178 OFFCURVE",
"-706 -150 OFFCURVE",
"-660 -150 CURVE SMOOTH",
"-614 -150 OFFCURVE",
"-602 -179 OFFCURVE",
"-602 -281 CURVE SMOOTH",
"-602 -309 LINE SMOOTH",
"-602 -429 OFFCURVE",
"-598 -536 OFFCURVE",
"-464 -536 CURVE"
);
}
);
width = 0;
}
);
note = uni1B15.sub;
},
{
glyphname = uni1B16.sub;
lastChange = "2017-10-19 13:19:33 +0000";
layers = (
{
layerId = "3BC433F7-38BC-4C75-8B4E-78FBECB68114";
paths = (
{
closed = 1;
nodes = (
"-296 -67 OFFCURVE",
"-338 -105 OFFCURVE",
"-364 -159 CURVE",
"-302 -159 OFFCURVE",
"-264 -190 OFFCURVE",
"-242 -227 CURVE SMOOTH",
"-221 -262 OFFCURVE",
"-213 -312 OFFCURVE",
"-213 -330 CURVE SMOOTH",
"-213 -361 OFFCURVE",
"-219 -412 OFFCURVE",
"-232 -434 CURVE SMOOTH",
"-243 -453 OFFCURVE",
"-260 -463 OFFCURVE",
"-292 -463 CURVE SMOOTH",
"-375 -463 OFFCURVE",
"-358 -358 OFFCURVE",
"-423 -358 CURVE SMOOTH",
"-484 -358 OFFCURVE",
"-461 -463 OFFCURVE",
"-555 -463 CURVE SMOOTH",
"-614 -463 OFFCURVE",
"-633 -430 OFFCURVE",
"-633 -301 CURVE SMOOTH",
"-633 -76 LINE",
"-656 -76 LINE SMOOTH",
"-792 -76 OFFCURVE",
"-797 -173 OFFCURVE",
"-797 -293 CURVE SMOOTH",
"-797 -453 LINE",
"-832 -453 OFFCURVE",
"-856 -416 OFFCURVE",
"-856 -333 CURVE SMOOTH",
"-856 -285 LINE SMOOTH",
"-856 -182 OFFCURVE",
"-860 -67 OFFCURVE",
"-955 -67 CURVE SMOOTH",
"-1034 -67 OFFCURVE",
"-1055 -168 OFFCURVE",
"-1055 -239 CURVE",
"-1049 -240 OFFCURVE",
"-1046 -242 OFFCURVE",
"-1038 -242 CURVE SMOOTH",
"-1027 -242 OFFCURVE",
"-1023 -240 OFFCURVE",
"-1016 -238 CURVE",
"-1015 -178 OFFCURVE",
"-1000 -150 OFFCURVE",
"-954 -150 CURVE SMOOTH",
"-908 -150 OFFCURVE",
"-896 -179 OFFCURVE",
"-896 -281 CURVE SMOOTH",
"-896 -309 LINE SMOOTH",
"-896 -429 OFFCURVE",
"-892 -536 OFFCURVE",
"-758 -536 CURVE",
"-758 -298 LINE SMOOTH",
"-758 -196 OFFCURVE",
"-731 -159 OFFCURVE",
"-685 -159 CURVE SMOOTH",
"-672 -159 LINE",
"-672 -323 LINE SMOOTH",
"-672 -474 OFFCURVE",
"-650 -546 OFFCURVE",
"-564 -546 CURVE SMOOTH",
"-478 -546 OFFCURVE",
"-501 -445 OFFCURVE",
"-423 -445 CURVE SMOOTH",
"-346 -445 OFFCURVE",
"-369 -546 OFFCURVE",
"-282 -546 CURVE SMOOTH",
"-221 -546 OFFCURVE",
"-196 -511 OFFCURVE",
"-184 -452 CURVE SMOOTH",
"-177 -418 OFFCURVE",
"-174 -362 OFFCURVE",
"-174 -328 CURVE SMOOTH",
"-174 -323 LINE SMOOTH",
"-174 -260 OFFCURVE",
"-192 -198 OFFCURVE",
"-249 -152 CURVE",
"-240 -148 OFFCURVE",
"-221 -146 OFFCURVE",
"-210 -146 CURVE SMOOTH",
"-156 -146 OFFCURVE",
"-103 -178 OFFCURVE",
"-103 -298 CURVE SMOOTH",
"-103 -536 LINE",
"-63 -536 LINE",
"-63 -293 LINE SMOOTH",
"-63 -161 OFFCURVE",
"-105 -67 OFFCURVE",
"-229 -67 CURVE SMOOTH"
);
}
);
width = 0;
}
);
note = uni1B16.sub;
},
{
glyphname = uni1B17.sub;
lastChange = "2017-10-19 13:20:04 +0000";
layers = (
{
layerId = "3BC433F7-38BC-4C75-8B4E-78FBECB68114";
paths = (
{
closed = 1;
nodes = (
"-263 -67 OFFCURVE",
"-296 -104 OFFCURVE",
"-317 -168 CURVE",
"-338 -104 OFFCURVE",
"-372 -67 OFFCURVE",
"-434 -67 CURVE SMOOTH",
"-547 -67 OFFCURVE",
"-571 -154 OFFCURVE",
"-571 -327 CURVE SMOOTH",
"-571 -453 LINE",
"-606 -453 OFFCURVE",
"-631 -416 OFFCURVE",
"-631 -333 CURVE SMOOTH",
"-631 -285 LINE SMOOTH",
"-631 -182 OFFCURVE",
"-634 -67 OFFCURVE",
"-729 -67 CURVE SMOOTH",
"-808 -67 OFFCURVE",
"-830 -168 OFFCURVE",
"-830 -239 CURVE",
"-823 -241 OFFCURVE",
"-821 -242 OFFCURVE",
"-812 -242 CURVE SMOOTH",
"-802 -242 OFFCURVE",
"-797 -240 OFFCURVE",
"-791 -238 CURVE",
"-789 -178 OFFCURVE",
"-774 -150 OFFCURVE",
"-728 -150 CURVE SMOOTH",
"-683 -150 OFFCURVE",
"-670 -179 OFFCURVE",
"-670 -281 CURVE SMOOTH",
"-670 -309 LINE SMOOTH",
"-670 -429 OFFCURVE",
"-666 -536 OFFCURVE",
"-532 -536 CURVE",
"-532 -327 LINE SMOOTH",
"-532 -198 OFFCURVE",
"-508 -150 OFFCURVE",
"-439 -150 CURVE SMOOTH",
"-381 -150 OFFCURVE",
"-334 -195 OFFCURVE",
"-334 -248 CURVE",
"-300 -248 LINE",
"-294 -178 OFFCURVE",
"-245 -150 OFFCURVE",
"-195 -150 CURVE SMOOTH",
"-126 -150 OFFCURVE",
"-103 -198 OFFCURVE",
"-103 -327 CURVE SMOOTH",
"-103 -546 LINE",
"-63 -546 LINE",
"-63 -327 LINE SMOOTH",
"-63 -154 OFFCURVE",
"-87 -67 OFFCURVE",
"-200 -67 CURVE SMOOTH"
);
}
);
width = 0;
}
);
note = uni1B17.sub;
},
{
glyphname = uni1B18.sub;
lastChange = "2017-10-19 13:20:04 +0000";
layers = (
{
layerId = "3BC433F7-38BC-4C75-8B4E-78FBECB68114";
paths = (
{
closed = 1;
nodes = (
"-63 -303 LINE SMOOTH",
"-63 -148 OFFCURVE",
"-120 -67 OFFCURVE",
"-229 -67 CURVE SMOOTH",
"-291 -67 OFFCURVE",
"-335 -98 OFFCURVE",
"-364 -159 CURVE",
"-276 -159 OFFCURVE",
"-214 -234 OFFCURVE",
"-214 -334 CURVE SMOOTH",
"-214 -420 OFFCURVE",
"-253 -463 OFFCURVE",
"-353 -463 CURVE SMOOTH",
"-438 -463 OFFCURVE",
"-480 -411 OFFCURVE",
"-480 -306 CURVE SMOOTH",
"-480 -76 LINE",
"-519 -76 LINE",
"-519 -310 LINE SMOOTH",
"-519 -464 OFFCURVE",
"-461 -546 OFFCURVE",
"-353 -546 CURVE SMOOTH",
"-242 -546 OFFCURVE",
"-175 -468 OFFCURVE",
"-175 -331 CURVE SMOOTH",
"-175 -261 OFFCURVE",
"-205 -188 OFFCURVE",
"-249 -152 CURVE",
"-238 -148 OFFCURVE",
"-226 -146 OFFCURVE",
"-210 -146 CURVE SMOOTH",
"-143 -146 OFFCURVE",
"-103 -206 OFFCURVE",
"-103 -308 CURVE SMOOTH",
"-103 -536 LINE",
"-63 -536 LINE"
);
},
{
closed = 1;
nodes = (
"-649 -519 OFFCURVE",
"-580 -410 OFFCURVE",
"-580 -250 CURVE SMOOTH",
"-580 -76 LINE",
"-619 -76 LINE",
"-619 -246 LINE SMOOTH",
"-619 -372 OFFCURVE",
"-661 -438 OFFCURVE",
"-766 -463 CURVE",
"-766 -546 LINE"
);
}
);
width = 0;
}
);
note = uni1B18.sub;
},
{
glyphname = uni1B19.sub;
lastChange = "2017-10-19 13:20:04 +0000";
layers = (
{
layerId = "3BC433F7-38BC-4C75-8B4E-78FBECB68114";
paths = (
{
closed = 1;
nodes = (
"-103 -76 LINE",
"-103 -301 LINE SMOOTH",
"-103 -411 OFFCURVE",
"-145 -463 OFFCURVE",
"-254 -463 CURVE SMOOTH",
"-349 -463 OFFCURVE",
"-396 -411 OFFCURVE",
"-396 -308 CURVE SMOOTH",
"-396 -137 OFFCURVE",
"-460 -67 OFFCURVE",
"-581 -67 CURVE SMOOTH",
"-696 -67 OFFCURVE",
"-767 -148 OFFCURVE",
"-767 -315 CURVE SMOOTH",
"-767 -444 OFFCURVE",
"-760 -546 OFFCURVE",
"-668 -546 CURVE SMOOTH",
"-606 -546 OFFCURVE",
"-568 -478 OFFCURVE",
"-568 -375 CURVE",
"-574 -374 OFFCURVE",
"-579 -373 OFFCURVE",
"-585 -372 CURVE SMOOTH",
"-590 -372 OFFCURVE",
"-598 -373 OFFCURVE",
"-607 -375 CURVE",
"-608 -436 OFFCURVE",
"-624 -463 OFFCURVE",
"-669 -463 CURVE SMOOTH",
"-722 -463 OFFCURVE",
"-728 -414 OFFCURVE",
"-728 -332 CURVE SMOOTH",
"-728 -304 LINE SMOOTH",
"-728 -200 OFFCURVE",
"-682 -150 OFFCURVE",
"-583 -150 CURVE SMOOTH",
"-481 -150 OFFCURVE",
"-435 -188 OFFCURVE",
"-435 -308 CURVE SMOOTH",
"-435 -467 OFFCURVE",
"-375 -546 OFFCURVE",
"-254 -546 CURVE SMOOTH",
"-129 -546 OFFCURVE",
"-63 -462 OFFCURVE",
"-63 -301 CURVE SMOOTH",
"-63 -76 LINE"
);
}
);
width = 0;
}
);
note = uni1B19.sub;
},
{
glyphname = uni1B1A.sub;
lastChange = "2017-10-19 13:20:04 +0000";
layers = (
{
layerId = "3BC433F7-38BC-4C75-8B4E-78FBECB68114";
paths = (
{
closed = 1;
nodes = (
"-331 -546 OFFCURVE",
"-230 -496 OFFCURVE",
"-230 -403 CURVE SMOOTH",
"-230 -377 OFFCURVE",
"-240 -353 OFFCURVE",
"-262 -333 CURVE",
"-210 -335 OFFCURVE",
"-103 -355 OFFCURVE",
"-103 -479 CURVE SMOOTH",
"-103 -536 LINE",
"-63 -536 LINE",
"-63 -481 LINE SMOOTH",
"-63 -322 OFFCURVE",
"-173 -261 OFFCURVE",
"-288 -261 CURVE SMOOTH",
"-314 -261 OFFCURVE",
"-392 -268 OFFCURVE",
"-445 -301 CURVE",
"-445 -325 LINE",
"-316 -325 OFFCURVE",
"-279 -358 OFFCURVE",
"-279 -392 CURVE SMOOTH",
"-279 -428 OFFCURVE",
"-339 -463 OFFCURVE",
"-477 -463 CURVE SMOOTH",
"-567 -463 OFFCURVE",
"-659 -434 OFFCURVE",
"-659 -329 CURVE SMOOTH",
"-659 -224 OFFCURVE",
"-553 -130 OFFCURVE",
"-396 -105 CURVE",
"-404 -67 LINE",
"-572 -89 OFFCURVE",
"-708 -203 OFFCURVE",
"-708 -336 CURVE SMOOTH",
"-708 -482 OFFCURVE",
"-603 -546 OFFCURVE",
"-477 -546 CURVE SMOOTH"
);
}
);
width = 0;
}
);
note = uni1B1A.sub;
},
{
glyphname = uni1B1B.sub;
lastChange = "2017-10-19 13:20:04 +0000";
layers = (
{
layerId = "3BC433F7-38BC-4C75-8B4E-78FBECB68114";
paths = (
{
closed = 1;
nodes = (
"-231 -546 OFFCURVE",
"-254 -445 OFFCURVE",
"-176 -445 CURVE SMOOTH",
"-99 -445 OFFCURVE",
"-122 -546 OFFCURVE",
"-35 -546 CURVE SMOOTH",
"73 -546 OFFCURVE",
"103 -474 OFFCURVE",
"103 -301 CURVE SMOOTH",
"103 484 LINE",
"130 480 LINE SMOOTH",
"176 473 OFFCURVE",
"233 465 OFFCURVE",
"233 363 CURVE SMOOTH",
"233 345 LINE",
"272 345 LINE",
"272 368 LINE SMOOTH",
"272 487 OFFCURVE",
"236 549 OFFCURVE",
"103 563 CURVE",
"103 583 LINE SMOOTH",
"103 686 OFFCURVE",
"81 767 OFFCURVE",
"-6 767 CURVE SMOOTH",
"-62 767 OFFCURVE",
"-92 723 OFFCURVE",
"-92 672 CURVE SMOOTH",
"-92 579 OFFCURVE",
"-23 517 OFFCURVE",
"63 492 CURVE",
"63 -301 LINE SMOOTH",
"63 -430 OFFCURVE",
"41 -463 OFFCURVE",
"-44 -463 CURVE SMOOTH",
"-118 -463 OFFCURVE",
"-111 -358 OFFCURVE",
"-176 -358 CURVE SMOOTH",
"-237 -358 OFFCURVE",
"-224 -463 OFFCURVE",
"-308 -463 CURVE SMOOTH",
"-383 -463 OFFCURVE",
"-432 -410 OFFCURVE",
"-432 -314 CURVE SMOOTH",
"-432 -229 OFFCURVE",
"-414 -153 OFFCURVE",
"-374 -97 CURVE",
"-403 -67 LINE",
"-441 -118 OFFCURVE",
"-476 -195 OFFCURVE",
"-476 -331 CURVE SMOOTH",
"-476 -445 OFFCURVE",
"-429 -546 OFFCURVE",
"-317 -546 CURVE SMOOTH"
);
},
{
closed = 1;
nodes = (
"-1 584 OFFCURVE",
"-48 616 OFFCURVE",
"-48 667 CURVE SMOOTH",
"-48 708 OFFCURVE",
"-30 718 OFFCURVE",
"-4 718 CURVE SMOOTH",
"35 718 OFFCURVE",
"63 688 OFFCURVE",
"63 586 CURVE SMOOTH",
"63 570 LINE"
);
}
);
width = 321;
}
);
note = uni1B1B.sub;
},
{
glyphname = uni1B1C.sub;
lastChange = "2017-10-19 13:19:35 +0000";
layers = (
{
layerId = "3BC433F7-38BC-4C75-8B4E-78FBECB68114";
paths = (
{
closed = 1;
nodes = (
"-178 -546 OFFCURVE",
"-63 -508 OFFCURVE",
"-63 -302 CURVE SMOOTH",
"-63 -163 OFFCURVE",
"-134 -67 OFFCURVE",
"-286 -67 CURVE SMOOTH",
"-396 -67 OFFCURVE",
"-481 -147 OFFCURVE",
"-481 -319 CURVE SMOOTH",
"-481 -333 LINE SMOOTH",
"-481 -416 OFFCURVE",
"-511 -453 OFFCURVE",
"-546 -453 CURVE",
"-546 -327 LINE SMOOTH",
"-546 -154 OFFCURVE",
"-570 -67 OFFCURVE",
"-683 -67 CURVE SMOOTH",
"-745 -67 OFFCURVE",
"-779 -104 OFFCURVE",
"-800 -168 CURVE",
"-821 -104 OFFCURVE",
"-854 -67 OFFCURVE",
"-917 -67 CURVE SMOOTH",
"-1029 -67 OFFCURVE",
"-1054 -154 OFFCURVE",
"-1054 -327 CURVE SMOOTH",
"-1054 -453 LINE",
"-1089 -453 OFFCURVE",
"-1113 -416 OFFCURVE",
"-1113 -333 CURVE SMOOTH",
"-1113 -285 LINE SMOOTH",
"-1113 -182 OFFCURVE",
"-1117 -67 OFFCURVE",
"-1212 -67 CURVE SMOOTH",
"-1291 -67 OFFCURVE",
"-1312 -168 OFFCURVE",
"-1312 -239 CURVE",
"-1306 -240 OFFCURVE",
"-1303 -242 OFFCURVE",
"-1294 -242 CURVE SMOOTH",
"-1284 -242 OFFCURVE",
"-1280 -240 OFFCURVE",
"-1273 -238 CURVE",
"-1271 -178 OFFCURVE",
"-1256 -150 OFFCURVE",
"-1210 -150 CURVE SMOOTH",
"-1165 -150 OFFCURVE",
"-1152 -179 OFFCURVE",
"-1152 -281 CURVE SMOOTH",
"-1152 -309 LINE SMOOTH",
"-1152 -429 OFFCURVE",
"-1148 -536 OFFCURVE",
"-1015 -536 CURVE",
"-1015 -327 LINE SMOOTH",
"-1015 -198 OFFCURVE",
"-991 -150 OFFCURVE",
"-921 -150 CURVE SMOOTH",
"-863 -150 OFFCURVE",
"-816 -195 OFFCURVE",
"-816 -248 CURVE",
"-783 -248 LINE",
"-776 -178 OFFCURVE",
"-727 -150 OFFCURVE",
"-678 -150 CURVE SMOOTH",
"-608 -150 OFFCURVE",
"-585 -198 OFFCURVE",
"-585 -327 CURVE SMOOTH",
"-585 -536 LINE",
"-464 -536 OFFCURVE",
"-442 -450 OFFCURVE",
"-442 -345 CURVE SMOOTH",
"-442 -320 LINE SMOOTH",
"-442 -220 OFFCURVE",
"-391 -150 OFFCURVE",
"-283 -150 CURVE SMOOTH",
"-185 -150 OFFCURVE",
"-112 -198 OFFCURVE",
"-112 -306 CURVE SMOOTH",
"-112 -463 OFFCURVE",
"-187 -497 OFFCURVE",
"-247 -497 CURVE SMOOTH",
"-266 -497 OFFCURVE",
"-301 -494 OFFCURVE",
"-316 -486 CURVE",
"-341 -525 LINE",
"-316 -540 OFFCURVE",
"-281 -546 OFFCURVE",
"-252 -546 CURVE SMOOTH"
);
}
);
width = 0;
}
);
note = uni1B1C.sub;
},
{
glyphname = uni1B1D.sub;
lastChange = "2017-10-19 13:20:04 +0000";
layers = (
{
layerId = "3BC433F7-38BC-4C75-8B4E-78FBECB68114";
paths = (
{
closed = 1;
nodes = (
"-38 -384 OFFCURVE",
"-91 -396 OFFCURVE",
"-136 -396 CURVE SMOOTH",
"-149 -396 OFFCURVE",
"-164 -394 OFFCURVE",
"-179 -390 CURVE",
"-144 -357 OFFCURVE",
"-121 -316 OFFCURVE",
"-121 -265 CURVE SMOOTH",
"-121 -216 OFFCURVE",
"-155 -185 OFFCURVE",
"-225 -185 CURVE SMOOTH",
"-280 -185 OFFCURVE",
"-329 -218 OFFCURVE",
"-329 -269 CURVE SMOOTH",
"-329 -320 OFFCURVE",
"-308 -359 OFFCURVE",
"-279 -386 CURVE",
"-326 -398 OFFCURVE",
"-388 -405 OFFCURVE",
"-462 -405 CURVE SMOOTH",
"-531 -405 OFFCURVE",
"-739 -405 OFFCURVE",
"-739 -175 CURVE SMOOTH",
"-739 -161 OFFCURVE",
"-738 -146 OFFCURVE",
"-736 -129 CURVE",
"-778 -124 LINE",
"-782 -148 OFFCURVE",
"-783 -171 OFFCURVE",
"-783 -193 CURVE SMOOTH",
"-783 -415 OFFCURVE",
"-598 -488 OFFCURVE",
"-469 -488 CURVE SMOOTH",
"-401 -488 OFFCURVE",
"-299 -468 OFFCURVE",
"-224 -423 CURVE",
"-192 -437 OFFCURVE",
"-159 -444 OFFCURVE",
"-134 -444 CURVE SMOOTH",
"-78 -444 OFFCURVE",
"-26 -425 OFFCURVE",
"12 -385 CURVE",
"-6 -344 LINE"
);
},
{
closed = 1;
nodes = (
"-280 -284 OFFCURVE",
"-275 -258 OFFCURVE",
"-224 -258 CURVE SMOOTH",
"-171 -258 OFFCURVE",
"-165 -285 OFFCURVE",
"-165 -304 CURVE SMOOTH",
"-165 -329 OFFCURVE",
"-187 -352 OFFCURVE",
"-228 -370 CURVE",
"-258 -353 OFFCURVE",
"-280 -329 OFFCURVE",
"-280 -301 CURVE SMOOTH"
);
}
);
width = 0;
}
);
note = uni1B1D.sub;
},
{
glyphname = uni1B1E.sub;
lastChange = "2017-10-19 13:20:04 +0000";
layers = (
{
layerId = "3BC433F7-38BC-4C75-8B4E-78FBECB68114";
paths = (
{
closed = 1;
nodes = (
"-223 -185 OFFCURVE",
"-271 -218 OFFCURVE",
"-271 -269 CURVE SMOOTH",
"-271 -321 OFFCURVE",
"-251 -359 OFFCURVE",
"-221 -386 CURVE",
"-269 -398 OFFCURVE",
"-331 -405 OFFCURVE",
"-405 -405 CURVE SMOOTH",
"-546 -405 OFFCURVE",
"-756 -400 OFFCURVE",
"-756 -171 CURVE SMOOTH",
"-756 -156 OFFCURVE",
"-755 -141 OFFCURVE",
"-753 -125 CURVE",
"-795 -119 LINE",
"-798 -144 OFFCURVE",
"-800 -167 OFFCURVE",
"-800 -190 CURVE SMOOTH",
"-800 -430 OFFCURVE",
"-610 -488 OFFCURVE",
"-411 -488 CURVE SMOOTH",
"-290 -488 OFFCURVE",
"-63 -426 OFFCURVE",
"-63 -265 CURVE SMOOTH",
"-63 -216 OFFCURVE",
"-97 -185 OFFCURVE",
"-167 -185 CURVE SMOOTH"
);
},
{
closed = 1;
nodes = (
"-200 -353 OFFCURVE",
"-223 -329 OFFCURVE",
"-223 -301 CURVE SMOOTH",
"-223 -284 OFFCURVE",
"-217 -258 OFFCURVE",
"-167 -258 CURVE SMOOTH",
"-113 -258 OFFCURVE",
"-107 -285 OFFCURVE",
"-107 -304 CURVE SMOOTH",
"-107 -329 OFFCURVE",
"-129 -352 OFFCURVE",
"-171 -370 CURVE"
);
}
);
width = 0;
}
);
note = uni1B1E.sub;
},
{
glyphname = uni1B1F.sub;
lastChange = "2017-10-19 13:20:04 +0000";
layers = (
{
layerId = "3BC433F7-38BC-4C75-8B4E-78FBECB68114";
paths = (
{
closed = 1;
nodes = (
"-492 -546 OFFCURVE",
"-515 -445 OFFCURVE",
"-437 -445 CURVE SMOOTH",
"-359 -445 OFFCURVE",
"-382 -546 OFFCURVE",
"-295 -546 CURVE SMOOTH",
"-207 -546 OFFCURVE",
"-188 -474 OFFCURVE",
"-188 -301 CURVE SMOOTH",
"-188 -159 LINE",
"-175 -159 LINE SMOOTH",
"-129 -159 OFFCURVE",
"-103 -196 OFFCURVE",
"-103 -298 CURVE SMOOTH",
"-103 -536 LINE",
"-63 -536 LINE",
"-63 -293 LINE SMOOTH",
"-63 -173 OFFCURVE",
"-69 -76 OFFCURVE",
"-204 -76 CURVE SMOOTH",
"-227 -76 LINE",
"-227 -301 LINE SMOOTH",
"-227 -430 OFFCURVE",
"-246 -463 OFFCURVE",
"-305 -463 CURVE SMOOTH",
"-388 -463 OFFCURVE",
"-372 -358 OFFCURVE",
"-437 -358 CURVE SMOOTH",
"-498 -358 OFFCURVE",
"-489 -463 OFFCURVE",
"-568 -463 CURVE SMOOTH",
"-619 -463 OFFCURVE",
"-649 -426 OFFCURVE",
"-649 -297 CURVE SMOOTH",
"-649 -222 OFFCURVE",
"-625 -148 OFFCURVE",
"-584 -97 CURVE",
"-613 -67 LINE",
"-652 -121 OFFCURVE",
"-693 -203 OFFCURVE",
"-693 -298 CURVE SMOOTH",
"-693 -464 OFFCURVE",
"-643 -546 OFFCURVE",
"-578 -546 CURVE SMOOTH"
);
}
);
width = 0;
}
);
note = uni1B1F.sub;
},
{
glyphname = uni1B20.sub;
lastChange = "2017-10-19 13:20:04 +0000";
layers = (
{
layerId = "3BC433F7-38BC-4C75-8B4E-78FBECB68114";
paths = (
{
closed = 1;
nodes = (
"-373 -546 OFFCURVE",
"-396 -445 OFFCURVE",
"-318 -445 CURVE SMOOTH",
"-240 -445 OFFCURVE",
"-263 -546 OFFCURVE",
"-176 -546 CURVE SMOOTH",
"-112 -546 OFFCURVE",
"-63 -463 OFFCURVE",
"-63 -290 CURVE SMOOTH",
"-63 -188 OFFCURVE",
"-109 -119 OFFCURVE",
"-144 -67 CURVE",
"-172 -97 LINE",
"-168 -103 OFFCURVE",
"-108 -188 OFFCURVE",
"-108 -282 CURVE SMOOTH",
"-108 -416 OFFCURVE",
"-133 -463 OFFCURVE",
"-186 -463 CURVE SMOOTH",
"-269 -463 OFFCURVE",
"-257 -358 OFFCURVE",
"-318 -358 CURVE SMOOTH",
"-379 -358 OFFCURVE",
"-369 -463 OFFCURVE",
"-449 -463 CURVE SMOOTH",
"-501 -463 OFFCURVE",
"-530 -426 OFFCURVE",
"-530 -292 CURVE SMOOTH",
"-530 -229 OFFCURVE",
"-508 -155 OFFCURVE",
"-465 -97 CURVE",
"-494 -67 LINE",
"-534 -121 OFFCURVE",
"-574 -207 OFFCURVE",
"-574 -290 CURVE SMOOTH",
"-574 -479 OFFCURVE",
"-519 -546 OFFCURVE",
"-459 -546 CURVE SMOOTH"
);
}
);
width = 0;
}
);
note = uni1B20.sub;
},
{
glyphname = uni1B21.sub;
lastChange = "2017-10-19 13:20:04 +0000";
layers = (
{
layerId = "3BC433F7-38BC-4C75-8B4E-78FBECB68114";
paths = (
{
closed = 1;
nodes = (
"-71 -547 OFFCURVE",
"-63 -480 OFFCURVE",
"-63 -429 CURVE SMOOTH",
"-63 -77 LINE",
"-103 -77 LINE",
"-103 -399 LINE SMOOTH",
"-103 -441 OFFCURVE",
"-109 -474 OFFCURVE",
"-135 -474 CURVE SMOOTH",
"-164 -474 OFFCURVE",
"-176 -449 OFFCURVE",
"-176 -359 CURVE SMOOTH",
"-176 -289 LINE SMOOTH",
"-176 -122 OFFCURVE",
"-216 -67 OFFCURVE",
"-294 -67 CURVE SMOOTH",
"-397 -67 OFFCURVE",
"-354 -198 OFFCURVE",
"-442 -198 CURVE SMOOTH",
"-531 -198 OFFCURVE",
"-488 -67 OFFCURVE",
"-590 -67 CURVE SMOOTH",
"-753 -67 OFFCURVE",
"-669 -260 OFFCURVE",
"-805 -260 CURVE SMOOTH",
"-838 -260 OFFCURVE",
"-863 -247 OFFCURVE",
"-864 -173 CURVE",
"-871 -171 OFFCURVE",
"-875 -169 OFFCURVE",
"-886 -169 CURVE SMOOTH",
"-895 -169 OFFCURVE",
"-897 -170 OFFCURVE",
"-903 -172 CURVE",
"-903 -242 OFFCURVE",
"-878 -343 OFFCURVE",
"-806 -343 CURVE SMOOTH",
"-662 -343 OFFCURVE",
"-734 -150 OFFCURVE",
"-586 -150 CURVE SMOOTH",
"-496 -150 OFFCURVE",
"-523 -281 OFFCURVE",
"-442 -281 CURVE SMOOTH",
"-361 -281 OFFCURVE",
"-393 -150 OFFCURVE",
"-298 -150 CURVE SMOOTH",
"-242 -150 OFFCURVE",
"-215 -179 OFFCURVE",
"-215 -291 CURVE SMOOTH",
"-215 -355 LINE SMOOTH",
"-215 -458 OFFCURVE",
"-210 -547 OFFCURVE",
"-134 -547 CURVE SMOOTH"
);
}
);
width = 0;
}
);
note = uni1B21.sub;
},
{
glyphname = uni1B22.sub;
lastChange = "2017-10-19 13:20:04 +0000";
layers = (
{
layerId = "3BC433F7-38BC-4C75-8B4E-78FBECB68114";
paths = (
{
closed = 1;
nodes = (
"-335 -546 OFFCURVE",
"-267 -458 OFFCURVE",
"-267 -397 CURVE SMOOTH",
"-267 -238 OFFCURVE",
"-446 -311 OFFCURVE",
"-446 -243 CURVE SMOOTH",
"-446 -191 OFFCURVE",
"-397 -150 OFFCURVE",
"-285 -150 CURVE SMOOTH",
"-167 -150 OFFCURVE",
"-103 -183 OFFCURVE",
"-103 -313 CURVE SMOOTH",
"-103 -536 LINE",
"-63 -536 LINE",
"-63 -313 LINE SMOOTH",
"-63 -133 OFFCURVE",
"-138 -67 OFFCURVE",
"-285 -67 CURVE SMOOTH",
"-410 -67 OFFCURVE",
"-495 -146 OFFCURVE",
"-495 -240 CURVE SMOOTH",
"-495 -403 OFFCURVE",
"-315 -328 OFFCURVE",
"-315 -396 CURVE SMOOTH",
"-315 -424 OFFCURVE",
"-354 -463 OFFCURVE",
"-475 -463 CURVE SMOOTH",
"-600 -463 OFFCURVE",
"-637 -413 OFFCURVE",
"-637 -322 CURVE SMOOTH",
"-637 -285 LINE SMOOTH",
"-637 -182 OFFCURVE",
"-641 -67 OFFCURVE",
"-736 -67 CURVE SMOOTH",
"-814 -67 OFFCURVE",
"-836 -168 OFFCURVE",
"-836 -239 CURVE",
"-830 -240 OFFCURVE",
"-827 -242 OFFCURVE",
"-818 -242 CURVE SMOOTH",
"-808 -242 OFFCURVE",
"-804 -240 OFFCURVE",
"-797 -238 CURVE",
"-795 -178 OFFCURVE",
"-780 -150 OFFCURVE",
"-734 -150 CURVE SMOOTH",
"-689 -150 OFFCURVE",
"-676 -179 OFFCURVE",
"-676 -281 CURVE SMOOTH",
"-676 -336 LINE SMOOTH",
"-676 -505 OFFCURVE",
"-596 -546 OFFCURVE",
"-475 -546 CURVE SMOOTH"
);
}
);
width = 0;
}
);
note = uni1B22.sub;
},
{
glyphname = uni1B23.sub;
lastChange = "2017-10-19 13:20:04 +0000";
layers = (
{
layerId = "3BC433F7-38BC-4C75-8B4E-78FBECB68114";
paths = (
{
closed = 1;
nodes = (
"-103 -301 LINE SMOOTH",
"-103 -378 OFFCURVE",
"-147 -427 OFFCURVE",
"-219 -447 CURVE",
"-249 -382 LINE SMOOTH",
"-287 -300 OFFCURVE",
"-323 -220 OFFCURVE",
"-371 -220 CURVE SMOOTH",
"-417 -220 OFFCURVE",
"-439 -293 OFFCURVE",
"-439 -356 CURVE",
"-407 -359 LINE",
"-407 -333 OFFCURVE",
"-394 -304 OFFCURVE",
"-364 -304 CURVE SMOOTH",
"-328 -304 OFFCURVE",
"-307 -353 OFFCURVE",
"-273 -425 CURVE SMOOTH",
"-258 -457 LINE",
"-285 -461 OFFCURVE",
"-314 -463 OFFCURVE",
"-342 -463 CURVE SMOOTH",
"-466 -463 OFFCURVE",
"-591 -415 OFFCURVE",
"-591 -320 CURVE SMOOTH",
"-591 -299 OFFCURVE",
"-586 -281 OFFCURVE",
"-577 -266 CURVE SMOOTH",
"-548 -217 OFFCURVE",
"-503 -197 OFFCURVE",
"-429 -157 CURVE SMOOTH",
"-392 -137 OFFCURVE",
"-354 -112 OFFCURVE",
"-332 -81 CURVE",
"-354 -59 LINE",
"-375 -89 OFFCURVE",
"-412 -114 OFFCURVE",
"-454 -136 CURVE SMOOTH",
"-496 -158 OFFCURVE",
"-540 -183 OFFCURVE",
"-574 -212 CURVE SMOOTH",
"-608 -241 OFFCURVE",
"-633 -276 OFFCURVE",
"-633 -323 CURVE SMOOTH",
"-633 -462 OFFCURVE",
"-492 -546 OFFCURVE",
"-341 -546 CURVE SMOOTH",
"-301 -546 OFFCURVE",
"-262 -540 OFFCURVE",
"-225 -528 CURVE",
"-199 -585 LINE",
"-164 -566 LINE",
"-189 -513 LINE",
"-105 -471 OFFCURVE",
"-63 -397 OFFCURVE",
"-63 -301 CURVE SMOOTH",
"-63 63 LINE",
"-103 63 LINE"
);
}
);
width = 0;
}
);
note = uni1B23.sub;
},
{
glyphname = uni1B24.sub;
lastChange = "2017-10-19 13:20:04 +0000";
layers = (
{
layerId = "3BC433F7-38BC-4C75-8B4E-78FBECB68114";
paths = (
{
closed = 1;
nodes = (
"-63 -383 OFFCURVE",
"-159 -277 OFFCURVE",
"-311 -277 CURVE SMOOTH",
"-426 -277 OFFCURVE",
"-521 -354 OFFCURVE",
"-541 -465 CURVE",
"-572 -432 OFFCURVE",
"-587 -387 OFFCURVE",
"-587 -330 CURVE SMOOTH",
"-587 -195 OFFCURVE",
"-501 -116 OFFCURVE",
"-364 -116 CURVE SMOOTH",
"-349 -116 OFFCURVE",
"-332 -117 OFFCURVE",
"-314 -120 CURVE",
"-303 -73 LINE",
"-324 -69 OFFCURVE",
"-345 -67 OFFCURVE",
"-365 -67 CURVE SMOOTH",
"-519 -67 OFFCURVE",
"-636 -166 OFFCURVE",
"-636 -325 CURVE SMOOTH",
"-636 -427 OFFCURVE",
"-597 -500 OFFCURVE",
"-512 -551 CURVE",
"-508 -436 OFFCURVE",
"-430 -360 OFFCURVE",
"-310 -360 CURVE SMOOTH",
"-191 -360 OFFCURVE",
"-112 -433 OFFCURVE",
"-112 -546 CURVE",
"-63 -542 LINE"
);
}
);
width = 0;
}
);
note = uni1B24.sub;
},
{
glyphname = uni1B25.sub;
lastChange = "2017-10-19 13:20:04 +0000";
layers = (
{
layerId = "3BC433F7-38BC-4C75-8B4E-78FBECB68114";
paths = (
{
closed = 1;
nodes = (
"-478 -546 OFFCURVE",
"-501 -445 OFFCURVE",
"-423 -445 CURVE SMOOTH",
"-346 -445 OFFCURVE",
"-369 -546 OFFCURVE",
"-282 -546 CURVE SMOOTH",
"-197 -546 OFFCURVE",
"-174 -480 OFFCURVE",
"-174 -324 CURVE SMOOTH",
"-174 -253 OFFCURVE",
"-191 -200 OFFCURVE",
"-249 -152 CURVE",
"-240 -148 OFFCURVE",
"-221 -146 OFFCURVE",
"-210 -146 CURVE SMOOTH",
"-156 -146 OFFCURVE",
"-103 -178 OFFCURVE",
"-103 -298 CURVE SMOOTH",
"-103 -536 LINE",
"-63 -536 LINE",
"-63 -293 LINE SMOOTH",
"-63 -161 OFFCURVE",
"-105 -67 OFFCURVE",
"-229 -67 CURVE SMOOTH",
"-296 -67 OFFCURVE",
"-338 -105 OFFCURVE",
"-364 -159 CURVE",
"-254 -159 OFFCURVE",
"-213 -255 OFFCURVE",
"-213 -330 CURVE SMOOTH",
"-213 -435 OFFCURVE",
"-236 -463 OFFCURVE",
"-292 -463 CURVE SMOOTH",
"-375 -463 OFFCURVE",
"-358 -358 OFFCURVE",
"-423 -358 CURVE SMOOTH",
"-484 -358 OFFCURVE",
"-469 -463 OFFCURVE",
"-555 -463 CURVE SMOOTH",
"-607 -463 OFFCURVE",
"-635 -422 OFFCURVE",
"-635 -302 CURVE SMOOTH",
"-635 -222 OFFCURVE",
"-610 -145 OFFCURVE",
"-570 -97 CURVE",
"-599 -67 LINE",
"-640 -126 OFFCURVE",
"-679 -200 OFFCURVE",
"-679 -302 CURVE SMOOTH",
"-679 -449 OFFCURVE",
"-633 -546 OFFCURVE",
"-564 -546 CURVE SMOOTH"
);
}
);
width = 0;
}
);
note = uni1B25.sub;
},
{
glyphname = uni1B26.sub;
lastChange = "2017-10-19 13:20:04 +0000";
layers = (
{
layerId = "3BC433F7-38BC-4C75-8B4E-78FBECB68114";
paths = (
{
closed = 1;
nodes = (
"-143 -446 OFFCURVE",
"-106 -350 OFFCURVE",
"-83 -246 CURVE",
"-74 -246 LINE SMOOTH",
"-23 -246 OFFCURVE",
"25 -237 OFFCURVE",
"63 -210 CURVE",
"46 -175 LINE",
"9 -192 OFFCURVE",
"-26 -200 OFFCURVE",
"-62 -200 CURVE SMOOTH",
"-65 -200 OFFCURVE",
"-68 -200 OFFCURVE",
"-74 -199 CURVE",
"-67 -155 OFFCURVE",
"-63 -110 OFFCURVE",
"-63 -61 CURVE SMOOTH",
"-63 20 LINE",
"-103 20 LINE",
"-103 -60 LINE SMOOTH",
"-103 -108 OFFCURVE",
"-106 -152 OFFCURVE",
"-113 -195 CURVE",
"-242 -173 OFFCURVE",
"-345 -67 OFFCURVE",
"-449 -67 CURVE SMOOTH",
"-543 -67 OFFCURVE",
"-626 -124 OFFCURVE",
"-626 -208 CURVE SMOOTH",
"-626 -323 OFFCURVE",
"-509 -373 OFFCURVE",
"-352 -419 CURVE SMOOTH",
"-261 -447 OFFCURVE",
"-220 -479 OFFCURVE",
"-220 -521 CURVE",
"-221 -526 OFFCURVE",
"-223 -531 OFFCURVE",
"-226 -537 CURVE",
"-191 -547 LINE"
);
},
{
closed = 1;
nodes = (
"-308 -223 OFFCURVE",
"-123 -243 CURVE",
"-143 -336 OFFCURVE",
"-173 -412 OFFCURVE",
"-198 -467 CURVE",
"-228 -426 OFFCURVE",
"-282 -397 OFFCURVE",
"-358 -371 CURVE SMOOTH",
"-478 -330 OFFCURVE",
"-577 -297 OFFCURVE",
"-577 -210 CURVE SMOOTH",
"-577 -164 OFFCURVE",
"-545 -141 OFFCURVE",
"-480 -141 CURVE SMOOTH",
"-405 -141 OFFCURVE"
);
}
);
width = 0;
}
);
note = uni1B26.sub;
},
{
glyphname = uni1B27.sub;
lastChange = "2017-10-19 13:18:57 +0000";
layers = (
{
layerId = "3BC433F7-38BC-4C75-8B4E-78FBECB68114";
paths = (
{
closed = 1;
nodes = (
"53 57 OFFCURVE",
"123 -10 OFFCURVE",
"240 -10 CURVE SMOOTH",
"382 -10 OFFCURVE",
"454 73 OFFCURVE",
"454 235 CURVE SMOOTH",
"454 454 LINE",
"467 454 LINE SMOOTH",
"515 454 OFFCURVE",
"540 405 OFFCURVE",
"540 306 CURVE SMOOTH",
"540 0 LINE",
"579 0 LINE",
"579 310 LINE SMOOTH",
"579 375 OFFCURVE",
"574 422 OFFCURVE",
"565 452 CURVE SMOOTH",
"547 510 OFFCURVE",
"506 537 OFFCURVE",
"438 537 CURVE SMOOTH",
"415 537 LINE",
"415 235 LINE SMOOTH",
"415 125 OFFCURVE",
"366 73 OFFCURVE",
"244 73 CURVE SMOOTH",
"140 73 OFFCURVE",
"83 112 OFFCURVE",
"71 190 CURVE",
"39 180 LINE"
);
}
);
width = 642;
}
);
note = uni1B27.sub;
},
{
glyphname = uni1B28.sub;
lastChange = "2017-10-19 13:18:57 +0000";
layers = (
{
layerId = "3BC433F7-38BC-4C75-8B4E-78FBECB68114";
paths = (
{
closed = 1;
nodes = (
"560 570 OFFCURVE",
"511 523 OFFCURVE",
"454 523 CURVE",
"451 623 OFFCURVE",
"405 698 OFFCURVE",
"343 698 CURVE SMOOTH",
"292 698 OFFCURVE",
"260 664 OFFCURVE",
"260 608 CURVE SMOOTH",
"260 520 OFFCURVE",
"321 455 OFFCURVE",
"415 441 CURVE",
"415 235 LINE SMOOTH",
"415 125 OFFCURVE",
"366 73 OFFCURVE",
"244 73 CURVE SMOOTH",
"140 73 OFFCURVE",
"83 112 OFFCURVE",
"71 190 CURVE",
"39 180 LINE",
"53 57 OFFCURVE",
"123 -10 OFFCURVE",
"240 -10 CURVE SMOOTH",
"382 -10 OFFCURVE",
"454 73 OFFCURVE",
"454 235 CURVE SMOOTH",
"454 440 LINE",
"533 442 OFFCURVE",
"591 514 OFFCURVE",
"600 625 CURVE",
"566 646 LINE"
);
},
{
closed = 1;
nodes = (
"344 529 OFFCURVE",
"304 560 OFFCURVE",
"304 609 CURVE SMOOTH",
"304 636 OFFCURVE",
"317 649 OFFCURVE",
"345 649 CURVE SMOOTH",
"380 649 OFFCURVE",
"413 596 OFFCURVE",
"415 523 CURVE"
);
}
);
width = 600;
}
);
note = uni1B28.sub;
},
